<?xml version="1.0" encoding="utf-8" standalone="no"?>
<!DOCTYPE svg PUBLIC "-//W3C//DTD SVG 1.1//EN"
  "http://www.w3.org/Graphics/SVG/1.1/DTD/svg11.dtd">
<svg xmlns:xlink="http://www.w3.org/1999/xlink" width="460.8pt" height="345.6pt" viewBox="0 0 460.8 345.6" xmlns="http://www.w3.org/2000/svg" version="1.1">
 <metadata>
  <rdf:RDF xmlns:dc="http://purl.org/dc/elements/1.1/" xmlns:cc="http://creativecommons.org/ns#" xmlns:rdf="http://www.w3.org/1999/02/22-rdf-syntax-ns#">
   <cc:Work>
    <dc:type rdf:resource="http://purl.org/dc/dcmitype/StillImage"/>
    <dc:date>2023-05-29T15:05:42.991256</dc:date>
    <dc:format>image/svg+xml</dc:format>
    <dc:creator>
     <cc:Agent>
      <dc:title>Matplotlib v3.7.0, https://matplotlib.org/</dc:title>
     </cc:Agent>
    </dc:creator>
   </cc:Work>
  </rdf:RDF>
 </metadata>
 <defs>
  <style type="text/css">*{stroke-linejoin: round; stroke-linecap: butt}</style>
 </defs>
 <g id="figure_1">
  <g id="patch_1">
   <path d="M 0 345.6 
L 460.8 345.6 
L 460.8 0 
L 0 0 
z
" style="fill: #ffffff"/>
  </g>
  <g id="axes_1">
   <g id="patch_2">
    <path d="M 57.6 307.584 
L 414.72 307.584 
L 414.72 41.472 
L 57.6 41.472 
z
" style="fill: #ffffff"/>
   </g>
   <g id="matplotlib.axis_1">
    <g id="xtick_1">
     <g id="line2d_1">
      <defs>
       <path id="m51bba93a5f" d="M 0 0 
L 0 3.5 
" style="stroke: #000000; stroke-width: 0.8"/>
      </defs>
      <g>
       <use xlink:href="#m51bba93a5f" x="95.476364" y="307.584" style="stroke: #000000; stroke-width: 0.8"/>
      </g>
     </g>
     <g id="text_1">
      <!-- 0.6 -->
      <g transform="translate(87.524801 322.182437) scale(0.1 -0.1)">
       <defs>
        <path id="DejaVuSans-30" d="M 2034 4250 
Q 1547 4250 1301 3770 
Q 1056 3291 1056 2328 
Q 1056 1369 1301 889 
Q 1547 409 2034 409 
Q 2525 409 2770 889 
Q 3016 1369 3016 2328 
Q 3016 3291 2770 3770 
Q 2525 4250 2034 4250 
z
M 2034 4750 
Q 2819 4750 3233 4129 
Q 3647 3509 3647 2328 
Q 3647 1150 3233 529 
Q 2819 -91 2034 -91 
Q 1250 -91 836 529 
Q 422 1150 422 2328 
Q 422 3509 836 4129 
Q 1250 4750 2034 4750 
z
" transform="scale(0.015625)"/>
        <path id="DejaVuSans-2e" d="M 684 794 
L 1344 794 
L 1344 0 
L 684 0 
L 684 794 
z
" transform="scale(0.015625)"/>
        <path id="DejaVuSans-36" d="M 2113 2584 
Q 1688 2584 1439 2293 
Q 1191 2003 1191 1497 
Q 1191 994 1439 701 
Q 1688 409 2113 409 
Q 2538 409 2786 701 
Q 3034 994 3034 1497 
Q 3034 2003 2786 2293 
Q 2538 2584 2113 2584 
z
M 3366 4563 
L 3366 3988 
Q 3128 4100 2886 4159 
Q 2644 4219 2406 4219 
Q 1781 4219 1451 3797 
Q 1122 3375 1075 2522 
Q 1259 2794 1537 2939 
Q 1816 3084 2150 3084 
Q 2853 3084 3261 2657 
Q 3669 2231 3669 1497 
Q 3669 778 3244 343 
Q 2819 -91 2113 -91 
Q 1303 -91 875 529 
Q 447 1150 447 2328 
Q 447 3434 972 4092 
Q 1497 4750 2381 4750 
Q 2619 4750 2861 4703 
Q 3103 4656 3366 4563 
z
" transform="scale(0.015625)"/>
       </defs>
       <use xlink:href="#DejaVuSans-30"/>
       <use xlink:href="#DejaVuSans-2e" x="63.623047"/>
       <use xlink:href="#DejaVuSans-36" x="95.410156"/>
      </g>
     </g>
    </g>
    <g id="xtick_2">
     <g id="line2d_2">
      <g>
       <use xlink:href="#m51bba93a5f" x="138.763636" y="307.584" style="stroke: #000000; stroke-width: 0.8"/>
      </g>
     </g>
     <g id="text_2">
      <!-- 0.8 -->
      <g transform="translate(130.812074 322.182437) scale(0.1 -0.1)">
       <defs>
        <path id="DejaVuSans-38" d="M 2034 2216 
Q 1584 2216 1326 1975 
Q 1069 1734 1069 1313 
Q 1069 891 1326 650 
Q 1584 409 2034 409 
Q 2484 409 2743 651 
Q 3003 894 3003 1313 
Q 3003 1734 2745 1975 
Q 2488 2216 2034 2216 
z
M 1403 2484 
Q 997 2584 770 2862 
Q 544 3141 544 3541 
Q 544 4100 942 4425 
Q 1341 4750 2034 4750 
Q 2731 4750 3128 4425 
Q 3525 4100 3525 3541 
Q 3525 3141 3298 2862 
Q 3072 2584 2669 2484 
Q 3125 2378 3379 2068 
Q 3634 1759 3634 1313 
Q 3634 634 3220 271 
Q 2806 -91 2034 -91 
Q 1263 -91 848 271 
Q 434 634 434 1313 
Q 434 1759 690 2068 
Q 947 2378 1403 2484 
z
M 1172 3481 
Q 1172 3119 1398 2916 
Q 1625 2713 2034 2713 
Q 2441 2713 2670 2916 
Q 2900 3119 2900 3481 
Q 2900 3844 2670 4047 
Q 2441 4250 2034 4250 
Q 1625 4250 1398 4047 
Q 1172 3844 1172 3481 
z
" transform="scale(0.015625)"/>
       </defs>
       <use xlink:href="#DejaVuSans-30"/>
       <use xlink:href="#DejaVuSans-2e" x="63.623047"/>
       <use xlink:href="#DejaVuSans-38" x="95.410156"/>
      </g>
     </g>
    </g>
    <g id="xtick_3">
     <g id="line2d_3">
      <g>
       <use xlink:href="#m51bba93a5f" x="182.050909" y="307.584" style="stroke: #000000; stroke-width: 0.8"/>
      </g>
     </g>
     <g id="text_3">
      <!-- 1.0 -->
      <g transform="translate(174.099347 322.182437) scale(0.1 -0.1)">
       <defs>
        <path id="DejaVuSans-31" d="M 794 531 
L 1825 531 
L 1825 4091 
L 703 3866 
L 703 4441 
L 1819 4666 
L 2450 4666 
L 2450 531 
L 3481 531 
L 3481 0 
L 794 0 
L 794 531 
z
" transform="scale(0.015625)"/>
       </defs>
       <use xlink:href="#DejaVuSans-31"/>
       <use xlink:href="#DejaVuSans-2e" x="63.623047"/>
       <use xlink:href="#DejaVuSans-30" x="95.410156"/>
      </g>
     </g>
    </g>
    <g id="xtick_4">
     <g id="line2d_4">
      <g>
       <use xlink:href="#m51bba93a5f" x="225.338182" y="307.584" style="stroke: #000000; stroke-width: 0.8"/>
      </g>
     </g>
     <g id="text_4">
      <!-- 1.2 -->
      <g transform="translate(217.386619 322.182437) scale(0.1 -0.1)">
       <defs>
        <path id="DejaVuSans-32" d="M 1228 531 
L 3431 531 
L 3431 0 
L 469 0 
L 469 531 
Q 828 903 1448 1529 
Q 2069 2156 2228 2338 
Q 2531 2678 2651 2914 
Q 2772 3150 2772 3378 
Q 2772 3750 2511 3984 
Q 2250 4219 1831 4219 
Q 1534 4219 1204 4116 
Q 875 4013 500 3803 
L 500 4441 
Q 881 4594 1212 4672 
Q 1544 4750 1819 4750 
Q 2544 4750 2975 4387 
Q 3406 4025 3406 3419 
Q 3406 3131 3298 2873 
Q 3191 2616 2906 2266 
Q 2828 2175 2409 1742 
Q 1991 1309 1228 531 
z
" transform="scale(0.015625)"/>
       </defs>
       <use xlink:href="#DejaVuSans-31"/>
       <use xlink:href="#DejaVuSans-2e" x="63.623047"/>
       <use xlink:href="#DejaVuSans-32" x="95.410156"/>
      </g>
     </g>
    </g>
    <g id="xtick_5">
     <g id="line2d_5">
      <g>
       <use xlink:href="#m51bba93a5f" x="268.625455" y="307.584" style="stroke: #000000; stroke-width: 0.8"/>
      </g>
     </g>
     <g id="text_5">
      <!-- 1.4 -->
      <g transform="translate(260.673892 322.182437) scale(0.1 -0.1)">
       <defs>
        <path id="DejaVuSans-34" d="M 2419 4116 
L 825 1625 
L 2419 1625 
L 2419 4116 
z
M 2253 4666 
L 3047 4666 
L 3047 1625 
L 3713 1625 
L 3713 1100 
L 3047 1100 
L 3047 0 
L 2419 0 
L 2419 1100 
L 313 1100 
L 313 1709 
L 2253 4666 
z
" transform="scale(0.015625)"/>
       </defs>
       <use xlink:href="#DejaVuSans-31"/>
       <use xlink:href="#DejaVuSans-2e" x="63.623047"/>
       <use xlink:href="#DejaVuSans-34" x="95.410156"/>
      </g>
     </g>
    </g>
    <g id="xtick_6">
     <g id="line2d_6">
      <g>
       <use xlink:href="#m51bba93a5f" x="311.912727" y="307.584" style="stroke: #000000; stroke-width: 0.8"/>
      </g>
     </g>
     <g id="text_6">
      <!-- 1.6 -->
      <g transform="translate(303.961165 322.182437) scale(0.1 -0.1)">
       <use xlink:href="#DejaVuSans-31"/>
       <use xlink:href="#DejaVuSans-2e" x="63.623047"/>
       <use xlink:href="#DejaVuSans-36" x="95.410156"/>
      </g>
     </g>
    </g>
    <g id="xtick_7">
     <g id="line2d_7">
      <g>
       <use xlink:href="#m51bba93a5f" x="355.2" y="307.584" style="stroke: #000000; stroke-width: 0.8"/>
      </g>
     </g>
     <g id="text_7">
      <!-- 1.8 -->
      <g transform="translate(347.248438 322.182437) scale(0.1 -0.1)">
       <use xlink:href="#DejaVuSans-31"/>
       <use xlink:href="#DejaVuSans-2e" x="63.623047"/>
       <use xlink:href="#DejaVuSans-38" x="95.410156"/>
      </g>
     </g>
    </g>
    <g id="xtick_8">
     <g id="line2d_8">
      <g>
       <use xlink:href="#m51bba93a5f" x="398.487273" y="307.584" style="stroke: #000000; stroke-width: 0.8"/>
      </g>
     </g>
     <g id="text_8">
      <!-- 2.0 -->
      <g transform="translate(390.53571 322.182437) scale(0.1 -0.1)">
       <use xlink:href="#DejaVuSans-32"/>
       <use xlink:href="#DejaVuSans-2e" x="63.623047"/>
       <use xlink:href="#DejaVuSans-30" x="95.410156"/>
      </g>
     </g>
    </g>
   </g>
   <g id="matplotlib.axis_2">
    <g id="ytick_1">
     <g id="line2d_9">
      <defs>
       <path id="mc2cf4830a4" d="M 0 0 
L -3.5 0 
" style="stroke: #000000; stroke-width: 0.8"/>
      </defs>
      <g>
       <use xlink:href="#mc2cf4830a4" x="57.6" y="295.488" style="stroke: #000000; stroke-width: 0.8"/>
      </g>
     </g>
     <g id="text_9">
      <!-- 0 -->
      <g transform="translate(44.2375 299.287219) scale(0.1 -0.1)">
       <use xlink:href="#DejaVuSans-30"/>
      </g>
     </g>
    </g>
    <g id="ytick_2">
     <g id="line2d_10">
      <g>
       <use xlink:href="#mc2cf4830a4" x="57.6" y="241.224712" style="stroke: #000000; stroke-width: 0.8"/>
      </g>
     </g>
     <g id="text_10">
      <!-- 2 -->
      <g transform="translate(44.2375 245.023931) scale(0.1 -0.1)">
       <use xlink:href="#DejaVuSans-32"/>
      </g>
     </g>
    </g>
    <g id="ytick_3">
     <g id="line2d_11">
      <g>
       <use xlink:href="#mc2cf4830a4" x="57.6" y="186.961425" style="stroke: #000000; stroke-width: 0.8"/>
      </g>
     </g>
     <g id="text_11">
      <!-- 4 -->
      <g transform="translate(44.2375 190.760644) scale(0.1 -0.1)">
       <use xlink:href="#DejaVuSans-34"/>
      </g>
     </g>
    </g>
    <g id="ytick_4">
     <g id="line2d_12">
      <g>
       <use xlink:href="#mc2cf4830a4" x="57.6" y="132.698137" style="stroke: #000000; stroke-width: 0.8"/>
      </g>
     </g>
     <g id="text_12">
      <!-- 6 -->
      <g transform="translate(44.2375 136.497356) scale(0.1 -0.1)">
       <use xlink:href="#DejaVuSans-36"/>
      </g>
     </g>
    </g>
    <g id="ytick_5">
     <g id="line2d_13">
      <g>
       <use xlink:href="#mc2cf4830a4" x="57.6" y="78.43485" style="stroke: #000000; stroke-width: 0.8"/>
      </g>
     </g>
     <g id="text_13">
      <!-- 8 -->
      <g transform="translate(44.2375 82.234069) scale(0.1 -0.1)">
       <use xlink:href="#DejaVuSans-38"/>
      </g>
     </g>
    </g>
   </g>
   <g id="line2d_14">
    <path d="M 73.832727 295.48703 
L 77.112066 295.48664 
L 80.391405 295.486104 
L 83.670744 295.485372 
L 86.950083 295.484378 
L 90.229421 295.483037 
L 93.50876 295.481238 
L 96.788099 295.478839 
L 100.067438 295.47566 
L 103.346777 295.471473 
L 106.626116 295.465993 
L 109.905455 295.458863 
L 113.184793 295.449644 
L 116.464132 295.437796 
L 119.743471 295.422665 
L 123.02281 295.403461 
L 126.302149 295.379238 
L 129.581488 295.348875 
L 132.860826 295.311053 
L 136.140165 295.264238 
L 139.419504 295.206657 
L 142.698843 295.136281 
L 145.978182 295.050819 
L 149.257521 294.9477 
L 152.53686 294.82408 
L 155.816198 294.676844 
L 159.095537 294.502628 
L 162.374876 294.297844 
L 165.654215 294.058728 
L 168.933554 293.781394 
L 172.212893 293.461907 
L 175.492231 293.096377 
L 178.77157 292.681056 
L 182.050909 292.212465 
L 185.330248 291.687523 
L 188.609587 291.103687 
L 191.888926 290.459106 
L 195.168264 289.752769 
L 198.447603 288.984654 
L 201.726942 288.155869 
L 205.006281 287.26877 
L 208.28562 286.327071 
L 211.564959 285.335911 
L 214.844298 284.301898 
L 218.123636 283.233103 
L 221.402975 282.139022 
L 224.682314 281.030478 
L 227.961653 279.919484 
L 231.240992 278.819058 
L 234.520331 277.742985 
L 237.799669 276.705552 
L 241.079008 275.721239 
L 244.358347 274.804391 
L 247.637686 273.968874 
L 250.917025 273.227731 
L 254.196364 272.592839 
L 257.475702 272.0746 
L 260.755041 271.681653 
L 264.03438 271.420637 
L 267.313719 271.296 
L 270.593058 271.30988 
L 273.872397 271.462039 
L 277.151736 271.74987 
L 280.431074 272.168474 
L 283.710413 272.710794 
L 286.989752 273.36782 
L 290.269091 274.12883 
L 293.54843 274.981688 
L 296.827769 275.913159 
L 300.107107 276.909252 
L 303.386446 277.95557 
L 306.665785 279.037645 
L 309.945124 280.141267 
L 313.224463 281.252783 
L 316.503802 282.35936 
L 319.78314 283.449209 
L 323.062479 284.511762 
L 326.341818 285.537804 
L 329.621157 286.519553 
L 332.900496 287.450697 
L 336.179835 288.326385 
L 339.459174 289.143184 
L 342.738512 289.898993 
L 346.017851 290.592943 
L 349.29719 291.225265 
L 352.576529 291.79715 
L 355.855868 292.3106 
L 359.135207 292.768275 
L 362.414545 293.173349 
L 365.693884 293.529365 
L 368.973223 293.840107 
L 372.252562 294.109483 
L 375.531901 294.341425 
L 378.81124 294.539799 
L 382.090579 294.708338 
L 385.369917 294.85059 
L 388.649256 294.969869 
L 391.928595 295.069238 
L 395.207934 295.151486 
L 398.487273 295.219128 
" clip-path="url(#p45f99705c8)" style="fill: none; stroke: #d8bfd8; stroke-width: 1.5; stroke-linecap: square"/>
   </g>
   <g id="line2d_15">
    <path d="M 73.832727 295.487985 
L 77.112066 295.487983 
L 80.391405 295.48798 
L 83.670744 295.487977 
L 86.950083 295.487974 
L 90.229421 295.48797 
L 93.50876 295.487965 
L 96.788099 295.487959 
L 100.067438 295.487953 
L 103.346777 295.487945 
L 106.626116 295.487935 
L 109.905455 295.487924 
L 113.184793 295.48791 
L 116.464132 295.487893 
L 119.743471 295.487873 
L 123.02281 295.487847 
L 126.302149 295.487815 
L 129.581488 295.487776 
L 132.860826 295.487725 
L 136.140165 295.487661 
L 139.419504 295.487579 
L 142.698843 295.487471 
L 145.978182 295.487331 
L 149.257521 295.487145 
L 152.53686 295.486895 
L 155.816198 295.486559 
L 159.095537 295.4861 
L 162.374876 295.485467 
L 165.654215 295.484584 
L 168.933554 295.48334 
L 172.212893 295.481568 
L 175.492231 295.479018 
L 178.77157 295.475305 
L 182.050909 295.469845 
L 185.330248 295.46173 
L 188.609587 295.449551 
L 191.888926 295.431096 
L 195.168264 295.402882 
L 198.447603 295.359397 
L 201.726942 295.291892 
L 205.006281 295.186463 
L 208.28562 295.021024 
L 211.564959 294.760604 
L 214.844298 294.350153 
L 218.123636 293.703816 
L 221.402975 292.689503 
L 224.682314 291.107772 
L 227.961653 288.665075 
L 231.240992 284.943928 
L 234.520331 279.377637 
L 237.799669 271.245568 
L 241.079008 259.716258 
L 244.358347 243.976412 
L 247.637686 223.484995 
L 250.917025 198.367453 
L 254.196364 169.897839 
L 257.475702 140.902619 
L 260.755041 115.796432 
L 264.03438 99.926688 
L 267.313719 98.095278 
L 270.593058 112.59734 
L 273.872397 141.679978 
L 277.151736 179.509937 
L 280.431074 218.112726 
L 283.710413 250.470176 
L 286.989752 273.001464 
L 290.269091 286.006989 
L 293.54843 292.175004 
L 296.827769 294.547358 
L 300.107107 295.275582 
L 303.386446 295.450716 
L 306.665785 295.483038 
L 309.945124 295.487512 
L 313.224463 295.487966 
L 316.503802 295.487998 
L 319.78314 295.488 
L 323.062479 295.488 
L 326.341818 295.488 
L 329.621157 295.488 
L 332.900496 295.488 
L 336.179835 295.488 
L 339.459174 295.488 
L 342.738512 295.488 
L 346.017851 295.488 
L 349.29719 295.488 
L 352.576529 295.488 
L 355.855868 295.488 
L 359.135207 295.488 
L 362.414545 295.488 
L 365.693884 295.488 
L 368.973223 295.488 
L 372.252562 295.488 
L 375.531901 295.488 
L 378.81124 295.488 
L 382.090579 295.488 
L 385.369917 295.488 
L 388.649256 295.488 
L 391.928595 295.488 
L 395.207934 295.488 
L 398.487273 295.488 
" clip-path="url(#p45f99705c8)" style="fill: none; stroke: #ffa500; stroke-width: 1.5; stroke-linecap: square"/>
   </g>
   <g id="line2d_16">
    <path d="M 73.832727 295.478303 
L 77.112066 295.474403 
L 80.391405 295.469043 
L 83.670744 295.461722 
L 86.950083 295.451782 
L 90.229421 295.438368 
L 93.50876 295.420376 
L 96.788099 295.396387 
L 100.067438 295.364599 
L 103.346777 295.322733 
L 106.626116 295.267929 
L 109.905455 295.196628 
L 113.184793 295.104436 
L 116.464132 294.985962 
L 119.743471 294.834654 
L 123.02281 294.642611 
L 126.302149 294.400379 
L 129.581488 294.096747 
L 132.860826 293.718534 
L 136.140165 293.250383 
L 139.419504 292.674565 
L 142.698843 291.970814 
L 145.978182 291.116189 
L 149.257521 290.085001 
L 152.53686 288.848798 
L 155.816198 287.376439 
L 159.095537 285.634275 
L 162.374876 283.586439 
L 165.654215 281.19528 
L 168.933554 278.421936 
L 172.212893 275.227071 
L 175.492231 271.571765 
L 178.77157 267.418559 
L 182.050909 262.732653 
L 185.330248 257.483226 
L 188.609587 251.644867 
L 191.888926 245.199057 
L 195.168264 238.135688 
L 198.447603 230.454543 
L 201.726942 222.166685 
L 205.006281 213.295699 
L 208.28562 203.878708 
L 211.564959 193.967111 
L 214.844298 183.626977 
L 218.123636 172.939034 
L 221.402975 161.998222 
L 224.682314 150.912779 
L 227.961653 139.802843 
L 231.240992 128.798576 
L 234.520331 118.037848 
L 237.799669 107.663518 
L 241.079008 97.820388 
L 244.358347 88.651908 
L 247.637686 80.296742 
L 250.917025 72.885305 
L 254.196364 66.536389 
L 257.475702 61.354002 
L 260.755041 57.424533 
L 264.03438 54.814365 
L 267.313719 53.568 
L 270.593058 53.706803 
L 273.872397 55.228392 
L 277.151736 58.106702 
L 280.431074 62.292736 
L 283.710413 67.715942 
L 286.989752 74.286199 
L 290.269091 81.896304 
L 293.54843 90.424879 
L 296.827769 99.739586 
L 300.107107 109.700524 
L 303.386446 120.163701 
L 306.665785 130.984448 
L 309.945124 142.020669 
L 313.224463 153.135829 
L 316.503802 164.2016 
L 319.78314 175.100089 
L 323.062479 185.725621 
L 326.341818 195.98604 
L 329.621157 205.803529 
L 332.900496 215.114966 
L 336.179835 223.871851 
L 339.459174 232.039836 
L 342.738512 239.597931 
L 346.017851 246.537433 
L 349.29719 252.860654 
L 352.576529 258.579503 
L 355.855868 263.713998 
L 359.135207 268.290751 
L 362.414545 272.34149 
L 365.693884 275.901648 
L 368.973223 279.009067 
L 372.252562 281.702831 
L 375.531901 284.022246 
L 378.81124 286.005985 
L 382.090579 287.691384 
L 385.369917 289.113896 
L 388.649256 290.30669 
L 391.928595 291.300377 
L 395.207934 292.122861 
L 398.487273 292.799277 
" clip-path="url(#p45f99705c8)" style="fill: none; stroke: #6a5acd; stroke-width: 1.5; stroke-linecap: square"/>
   </g>
   <g id="patch_3">
    <path d="M 57.6 307.584 
L 57.6 41.472 
" style="fill: none; stroke: #000000; stroke-width: 0.8; stroke-linejoin: miter; stroke-linecap: square"/>
   </g>
   <g id="patch_4">
    <path d="M 414.72 307.584 
L 414.72 41.472 
" style="fill: none; stroke: #000000; stroke-width: 0.8; stroke-linejoin: miter; stroke-linecap: square"/>
   </g>
   <g id="patch_5">
    <path d="M 57.6 307.584 
L 414.72 307.584 
" style="fill: none; stroke: #000000; stroke-width: 0.8; stroke-linejoin: miter; stroke-linecap: square"/>
   </g>
   <g id="patch_6">
    <path d="M 57.6 41.472 
L 414.72 41.472 
" style="fill: none; stroke: #000000; stroke-width: 0.8; stroke-linejoin: miter; stroke-linecap: square"/>
   </g>
   <g id="legend_1">
    <g id="patch_7">
     <path d="M 298.854375 93.506375 
L 407.72 93.506375 
Q 409.72 93.506375 409.72 91.506375 
L 409.72 48.472 
Q 409.72 46.472 407.72 46.472 
L 298.854375 46.472 
Q 296.854375 46.472 296.854375 48.472 
L 296.854375 91.506375 
Q 296.854375 93.506375 298.854375 93.506375 
z
" style="fill: #ffffff; opacity: 0.8; stroke: #cccccc; stroke-linejoin: miter"/>
    </g>
    <g id="line2d_17">
     <path d="M 300.854375 54.570438 
L 310.854375 54.570438 
L 320.854375 54.570438 
" style="fill: none; stroke: #d8bfd8; stroke-width: 1.5; stroke-linecap: square"/>
    </g>
    <g id="text_14">
     <!-- N[1.4, 0.2^2] -->
     <g transform="translate(328.854375 58.070438) scale(0.1 -0.1)">
      <defs>
       <path id="DejaVuSans-4e" d="M 628 4666 
L 1478 4666 
L 3547 763 
L 3547 4666 
L 4159 4666 
L 4159 0 
L 3309 0 
L 1241 3903 
L 1241 0 
L 628 0 
L 628 4666 
z
" transform="scale(0.015625)"/>
       <path id="DejaVuSans-5b" d="M 550 4863 
L 1875 4863 
L 1875 4416 
L 1125 4416 
L 1125 -397 
L 1875 -397 
L 1875 -844 
L 550 -844 
L 550 4863 
z
" transform="scale(0.015625)"/>
       <path id="DejaVuSans-2c" d="M 750 794 
L 1409 794 
L 1409 256 
L 897 -744 
L 494 -744 
L 750 256 
L 750 794 
z
" transform="scale(0.015625)"/>
       <path id="DejaVuSans-20" transform="scale(0.015625)"/>
       <path id="DejaVuSans-5e" d="M 2988 4666 
L 4684 2925 
L 4056 2925 
L 2681 4159 
L 1306 2925 
L 678 2925 
L 2375 4666 
L 2988 4666 
z
" transform="scale(0.015625)"/>
       <path id="DejaVuSans-5d" d="M 1947 4863 
L 1947 -844 
L 622 -844 
L 622 -397 
L 1369 -397 
L 1369 4416 
L 622 4416 
L 622 4863 
L 1947 4863 
z
" transform="scale(0.015625)"/>
      </defs>
      <use xlink:href="#DejaVuSans-4e"/>
      <use xlink:href="#DejaVuSans-5b" x="74.804688"/>
      <use xlink:href="#DejaVuSans-31" x="113.818359"/>
      <use xlink:href="#DejaVuSans-2e" x="177.441406"/>
      <use xlink:href="#DejaVuSans-34" x="209.228516"/>
      <use xlink:href="#DejaVuSans-2c" x="272.851562"/>
      <use xlink:href="#DejaVuSans-20" x="304.638672"/>
      <use xlink:href="#DejaVuSans-30" x="336.425781"/>
      <use xlink:href="#DejaVuSans-2e" x="400.048828"/>
      <use xlink:href="#DejaVuSans-32" x="431.835938"/>
      <use xlink:href="#DejaVuSans-5e" x="495.458984"/>
      <use xlink:href="#DejaVuSans-32" x="579.248047"/>
      <use xlink:href="#DejaVuSans-5d" x="642.871094"/>
     </g>
    </g>
    <g id="line2d_18">
     <path d="M 300.854375 69.248563 
L 310.854375 69.248563 
L 320.854375 69.248563 
" style="fill: none; stroke: #ffa500; stroke-width: 1.5; stroke-linecap: square"/>
    </g>
    <g id="text_15">
     <!-- density -->
     <g transform="translate(328.854375 72.748563) scale(0.1 -0.1)">
      <defs>
       <path id="DejaVuSans-64" d="M 2906 2969 
L 2906 4863 
L 3481 4863 
L 3481 0 
L 2906 0 
L 2906 525 
Q 2725 213 2448 61 
Q 2172 -91 1784 -91 
Q 1150 -91 751 415 
Q 353 922 353 1747 
Q 353 2572 751 3078 
Q 1150 3584 1784 3584 
Q 2172 3584 2448 3432 
Q 2725 3281 2906 2969 
z
M 947 1747 
Q 947 1113 1208 752 
Q 1469 391 1925 391 
Q 2381 391 2643 752 
Q 2906 1113 2906 1747 
Q 2906 2381 2643 2742 
Q 2381 3103 1925 3103 
Q 1469 3103 1208 2742 
Q 947 2381 947 1747 
z
" transform="scale(0.015625)"/>
       <path id="DejaVuSans-65" d="M 3597 1894 
L 3597 1613 
L 953 1613 
Q 991 1019 1311 708 
Q 1631 397 2203 397 
Q 2534 397 2845 478 
Q 3156 559 3463 722 
L 3463 178 
Q 3153 47 2828 -22 
Q 2503 -91 2169 -91 
Q 1331 -91 842 396 
Q 353 884 353 1716 
Q 353 2575 817 3079 
Q 1281 3584 2069 3584 
Q 2775 3584 3186 3129 
Q 3597 2675 3597 1894 
z
M 3022 2063 
Q 3016 2534 2758 2815 
Q 2500 3097 2075 3097 
Q 1594 3097 1305 2825 
Q 1016 2553 972 2059 
L 3022 2063 
z
" transform="scale(0.015625)"/>
       <path id="DejaVuSans-6e" d="M 3513 2113 
L 3513 0 
L 2938 0 
L 2938 2094 
Q 2938 2591 2744 2837 
Q 2550 3084 2163 3084 
Q 1697 3084 1428 2787 
Q 1159 2491 1159 1978 
L 1159 0 
L 581 0 
L 581 3500 
L 1159 3500 
L 1159 2956 
Q 1366 3272 1645 3428 
Q 1925 3584 2291 3584 
Q 2894 3584 3203 3211 
Q 3513 2838 3513 2113 
z
" transform="scale(0.015625)"/>
       <path id="DejaVuSans-73" d="M 2834 3397 
L 2834 2853 
Q 2591 2978 2328 3040 
Q 2066 3103 1784 3103 
Q 1356 3103 1142 2972 
Q 928 2841 928 2578 
Q 928 2378 1081 2264 
Q 1234 2150 1697 2047 
L 1894 2003 
Q 2506 1872 2764 1633 
Q 3022 1394 3022 966 
Q 3022 478 2636 193 
Q 2250 -91 1575 -91 
Q 1294 -91 989 -36 
Q 684 19 347 128 
L 347 722 
Q 666 556 975 473 
Q 1284 391 1588 391 
Q 1994 391 2212 530 
Q 2431 669 2431 922 
Q 2431 1156 2273 1281 
Q 2116 1406 1581 1522 
L 1381 1569 
Q 847 1681 609 1914 
Q 372 2147 372 2553 
Q 372 3047 722 3315 
Q 1072 3584 1716 3584 
Q 2034 3584 2315 3537 
Q 2597 3491 2834 3397 
z
" transform="scale(0.015625)"/>
       <path id="DejaVuSans-69" d="M 603 3500 
L 1178 3500 
L 1178 0 
L 603 0 
L 603 3500 
z
M 603 4863 
L 1178 4863 
L 1178 4134 
L 603 4134 
L 603 4863 
z
" transform="scale(0.015625)"/>
       <path id="DejaVuSans-74" d="M 1172 4494 
L 1172 3500 
L 2356 3500 
L 2356 3053 
L 1172 3053 
L 1172 1153 
Q 1172 725 1289 603 
Q 1406 481 1766 481 
L 2356 481 
L 2356 0 
L 1766 0 
Q 1100 0 847 248 
Q 594 497 594 1153 
L 594 3053 
L 172 3053 
L 172 3500 
L 594 3500 
L 594 4494 
L 1172 4494 
z
" transform="scale(0.015625)"/>
       <path id="DejaVuSans-79" d="M 2059 -325 
Q 1816 -950 1584 -1140 
Q 1353 -1331 966 -1331 
L 506 -1331 
L 506 -850 
L 844 -850 
Q 1081 -850 1212 -737 
Q 1344 -625 1503 -206 
L 1606 56 
L 191 3500 
L 800 3500 
L 1894 763 
L 2988 3500 
L 3597 3500 
L 2059 -325 
z
" transform="scale(0.015625)"/>
      </defs>
      <use xlink:href="#DejaVuSans-64"/>
      <use xlink:href="#DejaVuSans-65" x="63.476562"/>
      <use xlink:href="#DejaVuSans-6e" x="125"/>
      <use xlink:href="#DejaVuSans-73" x="188.378906"/>
      <use xlink:href="#DejaVuSans-69" x="240.478516"/>
      <use xlink:href="#DejaVuSans-74" x="268.261719"/>
      <use xlink:href="#DejaVuSans-79" x="307.470703"/>
     </g>
    </g>
    <g id="line2d_19">
     <path d="M 300.854375 83.926688 
L 310.854375 83.926688 
L 320.854375 83.926688 
" style="fill: none; stroke: #6a5acd; stroke-width: 1.5; stroke-linecap: square"/>
    </g>
    <g id="text_16">
     <!-- c N[1.4, 0.2^2] -->
     <g transform="translate(328.854375 87.426688) scale(0.1 -0.1)">
      <defs>
       <path id="DejaVuSans-63" d="M 3122 3366 
L 3122 2828 
Q 2878 2963 2633 3030 
Q 2388 3097 2138 3097 
Q 1578 3097 1268 2742 
Q 959 2388 959 1747 
Q 959 1106 1268 751 
Q 1578 397 2138 397 
Q 2388 397 2633 464 
Q 2878 531 3122 666 
L 3122 134 
Q 2881 22 2623 -34 
Q 2366 -91 2075 -91 
Q 1284 -91 818 406 
Q 353 903 353 1747 
Q 353 2603 823 3093 
Q 1294 3584 2113 3584 
Q 2378 3584 2631 3529 
Q 2884 3475 3122 3366 
z
" transform="scale(0.015625)"/>
      </defs>
      <use xlink:href="#DejaVuSans-63"/>
      <use xlink:href="#DejaVuSans-20" x="54.980469"/>
      <use xlink:href="#DejaVuSans-4e" x="86.767578"/>
      <use xlink:href="#DejaVuSans-5b" x="161.572266"/>
      <use xlink:href="#DejaVuSans-31" x="200.585938"/>
      <use xlink:href="#DejaVuSans-2e" x="264.208984"/>
      <use xlink:href="#DejaVuSans-34" x="295.996094"/>
      <use xlink:href="#DejaVuSans-2c" x="359.619141"/>
      <use xlink:href="#DejaVuSans-20" x="391.40625"/>
      <use xlink:href="#DejaVuSans-30" x="423.193359"/>
      <use xlink:href="#DejaVuSans-2e" x="486.816406"/>
      <use xlink:href="#DejaVuSans-32" x="518.603516"/>
      <use xlink:href="#DejaVuSans-5e" x="582.226562"/>
      <use xlink:href="#DejaVuSans-32" x="666.015625"/>
      <use xlink:href="#DejaVuSans-5d" x="729.638672"/>
     </g>
    </g>
   </g>
  </g>
 </g>
 <defs>
  <clipPath id="p45f99705c8">
   <rect x="57.6" y="41.472" width="357.12" height="266.112"/>
  </clipPath>
 </defs>
</svg>
