<?xml version="1.0" encoding="utf-8" standalone="no"?>
<!DOCTYPE svg PUBLIC "-//W3C//DTD SVG 1.1//EN"
  "http://www.w3.org/Graphics/SVG/1.1/DTD/svg11.dtd">
<svg xmlns:xlink="http://www.w3.org/1999/xlink" width="1368pt" height="720pt" viewBox="0 0 1368 720" xmlns="http://www.w3.org/2000/svg" version="1.1">
 <metadata>
  <rdf:RDF xmlns:dc="http://purl.org/dc/elements/1.1/" xmlns:cc="http://creativecommons.org/ns#" xmlns:rdf="http://www.w3.org/1999/02/22-rdf-syntax-ns#">
   <cc:Work>
    <dc:type rdf:resource="http://purl.org/dc/dcmitype/StillImage"/>
    <dc:date>2023-05-29T15:03:06.389004</dc:date>
    <dc:format>image/svg+xml</dc:format>
    <dc:creator>
     <cc:Agent>
      <dc:title>Matplotlib v3.7.0, https://matplotlib.org/</dc:title>
     </cc:Agent>
    </dc:creator>
   </cc:Work>
  </rdf:RDF>
 </metadata>
 <defs>
  <style type="text/css">*{stroke-linejoin: round; stroke-linecap: butt}</style>
 </defs>
 <g id="figure_1">
  <g id="patch_1">
   <path d="M 0 720 
L 1368 720 
L 1368 0 
L 0 0 
z
" style="fill: #ffffff"/>
  </g>
  <g id="axes_1">
   <g id="patch_2">
    <path d="M 24.1625 349.12875 
L 678.6 349.12875 
L 678.6 33.21375 
L 24.1625 33.21375 
z
" style="fill: #ffffff"/>
   </g>
   <g id="patch_3">
    <path d="M 190.24929 349.12875 
L 201.194133 349.12875 
L 201.194133 321.776802 
L 190.24929 321.776802 
z
" clip-path="url(#p787755dc13)" style="fill: #da70d6"/>
   </g>
   <g id="patch_4">
    <path d="M 202.410227 349.12875 
L 213.35507 349.12875 
L 213.35507 349.12875 
L 202.410227 349.12875 
z
" clip-path="url(#p787755dc13)" style="fill: #da70d6"/>
   </g>
   <g id="patch_5">
    <path d="M 214.571164 349.12875 
L 225.516007 349.12875 
L 225.516007 349.12875 
L 214.571164 349.12875 
z
" clip-path="url(#p787755dc13)" style="fill: #da70d6"/>
   </g>
   <g id="patch_6">
    <path d="M 226.732101 349.12875 
L 237.676944 349.12875 
L 237.676944 349.12875 
L 226.732101 349.12875 
z
" clip-path="url(#p787755dc13)" style="fill: #da70d6"/>
   </g>
   <g id="patch_7">
    <path d="M 238.893038 349.12875 
L 249.837881 349.12875 
L 249.837881 321.776802 
L 238.893038 321.776802 
z
" clip-path="url(#p787755dc13)" style="fill: #da70d6"/>
   </g>
   <g id="patch_8">
    <path d="M 251.053975 349.12875 
L 261.998818 349.12875 
L 261.998818 349.12875 
L 251.053975 349.12875 
z
" clip-path="url(#p787755dc13)" style="fill: #da70d6"/>
   </g>
   <g id="patch_9">
    <path d="M 263.214912 349.12875 
L 274.159755 349.12875 
L 274.159755 349.12875 
L 263.214912 349.12875 
z
" clip-path="url(#p787755dc13)" style="fill: #da70d6"/>
   </g>
   <g id="patch_10">
    <path d="M 275.375849 349.12875 
L 286.320692 349.12875 
L 286.320692 321.776802 
L 275.375849 321.776802 
z
" clip-path="url(#p787755dc13)" style="fill: #da70d6"/>
   </g>
   <g id="patch_11">
    <path d="M 287.536786 349.12875 
L 298.481629 349.12875 
L 298.481629 321.776802 
L 287.536786 321.776802 
z
" clip-path="url(#p787755dc13)" style="fill: #da70d6"/>
   </g>
   <g id="patch_12">
    <path d="M 299.697723 349.12875 
L 310.642566 349.12875 
L 310.642566 239.720958 
L 299.697723 239.720958 
z
" clip-path="url(#p787755dc13)" style="fill: #da70d6"/>
   </g>
   <g id="patch_13">
    <path d="M 311.85866 349.12875 
L 322.803503 349.12875 
L 322.803503 321.776802 
L 311.85866 321.776802 
z
" clip-path="url(#p787755dc13)" style="fill: #da70d6"/>
   </g>
   <g id="patch_14">
    <path d="M 324.019597 349.12875 
L 334.96444 349.12875 
L 334.96444 321.776802 
L 324.019597 321.776802 
z
" clip-path="url(#p787755dc13)" style="fill: #da70d6"/>
   </g>
   <g id="patch_15">
    <path d="M 336.180534 349.12875 
L 347.125378 349.12875 
L 347.125378 267.072906 
L 336.180534 267.072906 
z
" clip-path="url(#p787755dc13)" style="fill: #da70d6"/>
   </g>
   <g id="patch_16">
    <path d="M 348.341471 349.12875 
L 359.286315 349.12875 
L 359.286315 349.12875 
L 348.341471 349.12875 
z
" clip-path="url(#p787755dc13)" style="fill: #da70d6"/>
   </g>
   <g id="patch_17">
    <path d="M 360.502408 349.12875 
L 371.447252 349.12875 
L 371.447252 212.36901 
L 360.502408 212.36901 
z
" clip-path="url(#p787755dc13)" style="fill: #da70d6"/>
   </g>
   <g id="patch_18">
    <path d="M 372.663345 349.12875 
L 383.608189 349.12875 
L 383.608189 294.424854 
L 372.663345 294.424854 
z
" clip-path="url(#p787755dc13)" style="fill: #da70d6"/>
   </g>
   <g id="patch_19">
    <path d="M 384.824282 349.12875 
L 395.769126 349.12875 
L 395.769126 239.720958 
L 384.824282 239.720958 
z
" clip-path="url(#p787755dc13)" style="fill: #da70d6"/>
   </g>
   <g id="patch_20">
    <path d="M 396.985219 349.12875 
L 407.930063 349.12875 
L 407.930063 48.257321 
L 396.985219 48.257321 
z
" clip-path="url(#p787755dc13)" style="fill: #da70d6"/>
   </g>
   <g id="patch_21">
    <path d="M 409.146156 349.12875 
L 420.091 349.12875 
L 420.091 130.313166 
L 409.146156 130.313166 
z
" clip-path="url(#p787755dc13)" style="fill: #da70d6"/>
   </g>
   <g id="patch_22">
    <path d="M 421.307093 349.12875 
L 432.251937 349.12875 
L 432.251937 102.961218 
L 421.307093 102.961218 
z
" clip-path="url(#p787755dc13)" style="fill: #da70d6"/>
   </g>
   <g id="patch_23">
    <path d="M 433.46803 349.12875 
L 444.412874 349.12875 
L 444.412874 102.961218 
L 433.46803 102.961218 
z
" clip-path="url(#p787755dc13)" style="fill: #da70d6"/>
   </g>
   <g id="patch_24">
    <path d="M 445.628968 349.12875 
L 456.573811 349.12875 
L 456.573811 239.720958 
L 445.628968 239.720958 
z
" clip-path="url(#p787755dc13)" style="fill: #da70d6"/>
   </g>
   <g id="patch_25">
    <path d="M 457.789905 349.12875 
L 468.734748 349.12875 
L 468.734748 75.609269 
L 457.789905 75.609269 
z
" clip-path="url(#p787755dc13)" style="fill: #da70d6"/>
   </g>
   <g id="patch_26">
    <path d="M 469.950842 349.12875 
L 480.895685 349.12875 
L 480.895685 157.665114 
L 469.950842 157.665114 
z
" clip-path="url(#p787755dc13)" style="fill: #da70d6"/>
   </g>
   <g id="patch_27">
    <path d="M 482.111779 349.12875 
L 493.056622 349.12875 
L 493.056622 157.665114 
L 482.111779 157.665114 
z
" clip-path="url(#p787755dc13)" style="fill: #da70d6"/>
   </g>
   <g id="patch_28">
    <path d="M 494.272716 349.12875 
L 505.217559 349.12875 
L 505.217559 239.720958 
L 494.272716 239.720958 
z
" clip-path="url(#p787755dc13)" style="fill: #da70d6"/>
   </g>
   <g id="patch_29">
    <path d="M 506.433653 349.12875 
L 517.378496 349.12875 
L 517.378496 267.072906 
L 506.433653 267.072906 
z
" clip-path="url(#p787755dc13)" style="fill: #da70d6"/>
   </g>
   <g id="patch_30">
    <path d="M 518.59459 349.12875 
L 529.539433 349.12875 
L 529.539433 294.424854 
L 518.59459 294.424854 
z
" clip-path="url(#p787755dc13)" style="fill: #da70d6"/>
   </g>
   <g id="patch_31">
    <path d="M 530.755527 349.12875 
L 541.70037 349.12875 
L 541.70037 349.12875 
L 530.755527 349.12875 
z
" clip-path="url(#p787755dc13)" style="fill: #da70d6"/>
   </g>
   <g id="patch_32">
    <path d="M 542.916464 349.12875 
L 553.861307 349.12875 
L 553.861307 294.424854 
L 542.916464 294.424854 
z
" clip-path="url(#p787755dc13)" style="fill: #da70d6"/>
   </g>
   <g id="matplotlib.axis_1">
    <g id="xtick_1">
     <g id="line2d_1">
      <defs>
       <path id="m6c5dedbb78" d="M 0 0 
L 0 3.5 
" style="stroke: #000000; stroke-width: 0.8"/>
      </defs>
      <g>
       <use xlink:href="#m6c5dedbb78" x="53.909659" y="349.12875" style="stroke: #000000; stroke-width: 0.8"/>
      </g>
     </g>
     <g id="text_1">
      <!-- 1.0 -->
      <g transform="translate(45.958097 363.727188) scale(0.1 -0.1)">
       <defs>
        <path id="DejaVuSans-31" d="M 794 531 
L 1825 531 
L 1825 4091 
L 703 3866 
L 703 4441 
L 1819 4666 
L 2450 4666 
L 2450 531 
L 3481 531 
L 3481 0 
L 794 0 
L 794 531 
z
" transform="scale(0.015625)"/>
        <path id="DejaVuSans-2e" d="M 684 794 
L 1344 794 
L 1344 0 
L 684 0 
L 684 794 
z
" transform="scale(0.015625)"/>
        <path id="DejaVuSans-30" d="M 2034 4250 
Q 1547 4250 1301 3770 
Q 1056 3291 1056 2328 
Q 1056 1369 1301 889 
Q 1547 409 2034 409 
Q 2525 409 2770 889 
Q 3016 1369 3016 2328 
Q 3016 3291 2770 3770 
Q 2525 4250 2034 4250 
z
M 2034 4750 
Q 2819 4750 3233 4129 
Q 3647 3509 3647 2328 
Q 3647 1150 3233 529 
Q 2819 -91 2034 -91 
Q 1250 -91 836 529 
Q 422 1150 422 2328 
Q 422 3509 836 4129 
Q 1250 4750 2034 4750 
z
" transform="scale(0.015625)"/>
       </defs>
       <use xlink:href="#DejaVuSans-31"/>
       <use xlink:href="#DejaVuSans-2e" x="63.623047"/>
       <use xlink:href="#DejaVuSans-30" x="95.410156"/>
      </g>
     </g>
    </g>
    <g id="xtick_2">
     <g id="line2d_2">
      <g>
       <use xlink:href="#m6c5dedbb78" x="153.066856" y="349.12875" style="stroke: #000000; stroke-width: 0.8"/>
      </g>
     </g>
     <g id="text_2">
      <!-- 1.1 -->
      <g transform="translate(145.115294 363.727188) scale(0.1 -0.1)">
       <use xlink:href="#DejaVuSans-31"/>
       <use xlink:href="#DejaVuSans-2e" x="63.623047"/>
       <use xlink:href="#DejaVuSans-31" x="95.410156"/>
      </g>
     </g>
    </g>
    <g id="xtick_3">
     <g id="line2d_3">
      <g>
       <use xlink:href="#m6c5dedbb78" x="252.224053" y="349.12875" style="stroke: #000000; stroke-width: 0.8"/>
      </g>
     </g>
     <g id="text_3">
      <!-- 1.2 -->
      <g transform="translate(244.272491 363.727188) scale(0.1 -0.1)">
       <defs>
        <path id="DejaVuSans-32" d="M 1228 531 
L 3431 531 
L 3431 0 
L 469 0 
L 469 531 
Q 828 903 1448 1529 
Q 2069 2156 2228 2338 
Q 2531 2678 2651 2914 
Q 2772 3150 2772 3378 
Q 2772 3750 2511 3984 
Q 2250 4219 1831 4219 
Q 1534 4219 1204 4116 
Q 875 4013 500 3803 
L 500 4441 
Q 881 4594 1212 4672 
Q 1544 4750 1819 4750 
Q 2544 4750 2975 4387 
Q 3406 4025 3406 3419 
Q 3406 3131 3298 2873 
Q 3191 2616 2906 2266 
Q 2828 2175 2409 1742 
Q 1991 1309 1228 531 
z
" transform="scale(0.015625)"/>
       </defs>
       <use xlink:href="#DejaVuSans-31"/>
       <use xlink:href="#DejaVuSans-2e" x="63.623047"/>
       <use xlink:href="#DejaVuSans-32" x="95.410156"/>
      </g>
     </g>
    </g>
    <g id="xtick_4">
     <g id="line2d_4">
      <g>
       <use xlink:href="#m6c5dedbb78" x="351.38125" y="349.12875" style="stroke: #000000; stroke-width: 0.8"/>
      </g>
     </g>
     <g id="text_4">
      <!-- 1.3 -->
      <g transform="translate(343.429688 363.727188) scale(0.1 -0.1)">
       <defs>
        <path id="DejaVuSans-33" d="M 2597 2516 
Q 3050 2419 3304 2112 
Q 3559 1806 3559 1356 
Q 3559 666 3084 287 
Q 2609 -91 1734 -91 
Q 1441 -91 1130 -33 
Q 819 25 488 141 
L 488 750 
Q 750 597 1062 519 
Q 1375 441 1716 441 
Q 2309 441 2620 675 
Q 2931 909 2931 1356 
Q 2931 1769 2642 2001 
Q 2353 2234 1838 2234 
L 1294 2234 
L 1294 2753 
L 1863 2753 
Q 2328 2753 2575 2939 
Q 2822 3125 2822 3475 
Q 2822 3834 2567 4026 
Q 2313 4219 1838 4219 
Q 1578 4219 1281 4162 
Q 984 4106 628 3988 
L 628 4550 
Q 988 4650 1302 4700 
Q 1616 4750 1894 4750 
Q 2613 4750 3031 4423 
Q 3450 4097 3450 3541 
Q 3450 3153 3228 2886 
Q 3006 2619 2597 2516 
z
" transform="scale(0.015625)"/>
       </defs>
       <use xlink:href="#DejaVuSans-31"/>
       <use xlink:href="#DejaVuSans-2e" x="63.623047"/>
       <use xlink:href="#DejaVuSans-33" x="95.410156"/>
      </g>
     </g>
    </g>
    <g id="xtick_5">
     <g id="line2d_5">
      <g>
       <use xlink:href="#m6c5dedbb78" x="450.538447" y="349.12875" style="stroke: #000000; stroke-width: 0.8"/>
      </g>
     </g>
     <g id="text_5">
      <!-- 1.4 -->
      <g transform="translate(442.586884 363.727188) scale(0.1 -0.1)">
       <defs>
        <path id="DejaVuSans-34" d="M 2419 4116 
L 825 1625 
L 2419 1625 
L 2419 4116 
z
M 2253 4666 
L 3047 4666 
L 3047 1625 
L 3713 1625 
L 3713 1100 
L 3047 1100 
L 3047 0 
L 2419 0 
L 2419 1100 
L 313 1100 
L 313 1709 
L 2253 4666 
z
" transform="scale(0.015625)"/>
       </defs>
       <use xlink:href="#DejaVuSans-31"/>
       <use xlink:href="#DejaVuSans-2e" x="63.623047"/>
       <use xlink:href="#DejaVuSans-34" x="95.410156"/>
      </g>
     </g>
    </g>
    <g id="xtick_6">
     <g id="line2d_6">
      <g>
       <use xlink:href="#m6c5dedbb78" x="549.695644" y="349.12875" style="stroke: #000000; stroke-width: 0.8"/>
      </g>
     </g>
     <g id="text_6">
      <!-- 1.5 -->
      <g transform="translate(541.744081 363.727188) scale(0.1 -0.1)">
       <defs>
        <path id="DejaVuSans-35" d="M 691 4666 
L 3169 4666 
L 3169 4134 
L 1269 4134 
L 1269 2991 
Q 1406 3038 1543 3061 
Q 1681 3084 1819 3084 
Q 2600 3084 3056 2656 
Q 3513 2228 3513 1497 
Q 3513 744 3044 326 
Q 2575 -91 1722 -91 
Q 1428 -91 1123 -41 
Q 819 9 494 109 
L 494 744 
Q 775 591 1075 516 
Q 1375 441 1709 441 
Q 2250 441 2565 725 
Q 2881 1009 2881 1497 
Q 2881 1984 2565 2268 
Q 2250 2553 1709 2553 
Q 1456 2553 1204 2497 
Q 953 2441 691 2322 
L 691 4666 
z
" transform="scale(0.015625)"/>
       </defs>
       <use xlink:href="#DejaVuSans-31"/>
       <use xlink:href="#DejaVuSans-2e" x="63.623047"/>
       <use xlink:href="#DejaVuSans-35" x="95.410156"/>
      </g>
     </g>
    </g>
    <g id="xtick_7">
     <g id="line2d_7">
      <g>
       <use xlink:href="#m6c5dedbb78" x="648.852841" y="349.12875" style="stroke: #000000; stroke-width: 0.8"/>
      </g>
     </g>
     <g id="text_7">
      <!-- 1.6 -->
      <g transform="translate(640.901278 363.727188) scale(0.1 -0.1)">
       <defs>
        <path id="DejaVuSans-36" d="M 2113 2584 
Q 1688 2584 1439 2293 
Q 1191 2003 1191 1497 
Q 1191 994 1439 701 
Q 1688 409 2113 409 
Q 2538 409 2786 701 
Q 3034 994 3034 1497 
Q 3034 2003 2786 2293 
Q 2538 2584 2113 2584 
z
M 3366 4563 
L 3366 3988 
Q 3128 4100 2886 4159 
Q 2644 4219 2406 4219 
Q 1781 4219 1451 3797 
Q 1122 3375 1075 2522 
Q 1259 2794 1537 2939 
Q 1816 3084 2150 3084 
Q 2853 3084 3261 2657 
Q 3669 2231 3669 1497 
Q 3669 778 3244 343 
Q 2819 -91 2113 -91 
Q 1303 -91 875 529 
Q 447 1150 447 2328 
Q 447 3434 972 4092 
Q 1497 4750 2381 4750 
Q 2619 4750 2861 4703 
Q 3103 4656 3366 4563 
z
" transform="scale(0.015625)"/>
       </defs>
       <use xlink:href="#DejaVuSans-31"/>
       <use xlink:href="#DejaVuSans-2e" x="63.623047"/>
       <use xlink:href="#DejaVuSans-36" x="95.410156"/>
      </g>
     </g>
    </g>
   </g>
   <g id="matplotlib.axis_2">
    <g id="ytick_1">
     <g id="line2d_8">
      <defs>
       <path id="m656816e8c4" d="M 0 0 
L -3.5 0 
" style="stroke: #000000; stroke-width: 0.8"/>
      </defs>
      <g>
       <use xlink:href="#m656816e8c4" x="24.1625" y="349.12875" style="stroke: #000000; stroke-width: 0.8"/>
      </g>
     </g>
     <g id="text_8">
      <!-- 0 -->
      <g transform="translate(10.8 352.927969) scale(0.1 -0.1)">
       <use xlink:href="#DejaVuSans-30"/>
      </g>
     </g>
    </g>
    <g id="ytick_2">
     <g id="line2d_9">
      <g>
       <use xlink:href="#m656816e8c4" x="24.1625" y="282.038246" style="stroke: #000000; stroke-width: 0.8"/>
      </g>
     </g>
     <g id="text_9">
      <!-- 2 -->
      <g transform="translate(10.8 285.837464) scale(0.1 -0.1)">
       <use xlink:href="#DejaVuSans-32"/>
      </g>
     </g>
    </g>
    <g id="ytick_3">
     <g id="line2d_10">
      <g>
       <use xlink:href="#m656816e8c4" x="24.1625" y="214.947741" style="stroke: #000000; stroke-width: 0.8"/>
      </g>
     </g>
     <g id="text_10">
      <!-- 4 -->
      <g transform="translate(10.8 218.74696) scale(0.1 -0.1)">
       <use xlink:href="#DejaVuSans-34"/>
      </g>
     </g>
    </g>
    <g id="ytick_4">
     <g id="line2d_11">
      <g>
       <use xlink:href="#m656816e8c4" x="24.1625" y="147.857237" style="stroke: #000000; stroke-width: 0.8"/>
      </g>
     </g>
     <g id="text_11">
      <!-- 6 -->
      <g transform="translate(10.8 151.656455) scale(0.1 -0.1)">
       <use xlink:href="#DejaVuSans-36"/>
      </g>
     </g>
    </g>
    <g id="ytick_5">
     <g id="line2d_12">
      <g>
       <use xlink:href="#m656816e8c4" x="24.1625" y="80.766732" style="stroke: #000000; stroke-width: 0.8"/>
      </g>
     </g>
     <g id="text_12">
      <!-- 8 -->
      <g transform="translate(10.8 84.565951) scale(0.1 -0.1)">
       <defs>
        <path id="DejaVuSans-38" d="M 2034 2216 
Q 1584 2216 1326 1975 
Q 1069 1734 1069 1313 
Q 1069 891 1326 650 
Q 1584 409 2034 409 
Q 2484 409 2743 651 
Q 3003 894 3003 1313 
Q 3003 1734 2745 1975 
Q 2488 2216 2034 2216 
z
M 1403 2484 
Q 997 2584 770 2862 
Q 544 3141 544 3541 
Q 544 4100 942 4425 
Q 1341 4750 2034 4750 
Q 2731 4750 3128 4425 
Q 3525 4100 3525 3541 
Q 3525 3141 3298 2862 
Q 3072 2584 2669 2484 
Q 3125 2378 3379 2068 
Q 3634 1759 3634 1313 
Q 3634 634 3220 271 
Q 2806 -91 2034 -91 
Q 1263 -91 848 271 
Q 434 634 434 1313 
Q 434 1759 690 2068 
Q 947 2378 1403 2484 
z
M 1172 3481 
Q 1172 3119 1398 2916 
Q 1625 2713 2034 2713 
Q 2441 2713 2670 2916 
Q 2900 3119 2900 3481 
Q 2900 3844 2670 4047 
Q 2441 4250 2034 4250 
Q 1625 4250 1398 4047 
Q 1172 3844 1172 3481 
z
" transform="scale(0.015625)"/>
       </defs>
       <use xlink:href="#DejaVuSans-38"/>
      </g>
     </g>
    </g>
   </g>
   <g id="line2d_13">
    <path d="M 53.909659 349.106303 
L 59.919186 349.102764 
L 65.928713 349.098612 
L 71.93824 349.093731 
L 77.947767 349.087986 
L 83.957295 349.081212 
L 89.966822 349.073214 
L 95.976349 349.063757 
L 101.985876 349.052558 
L 107.995403 349.039278 
L 114.00493 349.023511 
L 120.014457 349.004767 
L 126.023984 348.982456 
L 132.033511 348.95587 
L 138.043038 348.924155 
L 144.052565 348.886285 
L 150.062093 348.841022 
L 156.07162 348.78688 
L 162.081147 348.722068 
L 168.090674 348.644432 
L 174.100201 348.551386 
L 180.109728 348.439823 
L 186.119255 348.306015 
L 192.128782 348.145498 
L 198.138309 347.952929 
L 204.147836 347.72193 
L 210.157363 347.444897 
L 216.16689 347.11279 
L 222.176418 346.714887 
L 228.185945 346.23851 
L 234.195472 345.66872 
L 240.204999 344.987978 
L 246.214526 344.175786 
L 252.224053 343.208298 
L 258.23358 342.05793 
L 264.243107 340.692964 
L 270.252634 339.077193 
L 276.262161 337.169599 
L 282.271688 334.924144 
L 288.281216 332.289682 
L 294.290743 329.210082 
L 300.30027 325.6246 
L 306.309797 321.468608 
L 312.319324 316.674746 
L 318.328851 311.174598 
L 324.338378 304.90098 
L 330.347905 297.790921 
L 336.357432 289.789399 
L 342.366959 280.853858 
L 348.376486 270.95947 
L 354.386014 260.105062 
L 360.395541 248.3195 
L 366.405068 235.668248 
L 372.414595 222.259689 
L 378.424122 208.250654 
L 384.433649 193.85052 
L 390.443176 179.323144 
L 396.452703 164.985836 
L 402.46223 151.204663 
L 408.471757 138.385456 
L 414.481284 126.960163 
L 420.490812 117.368557 
L 426.500339 110.035761 
L 432.509866 105.346613 
L 438.519393 103.618481 
L 444.52892 105.07466 
L 450.538447 109.820872 
L 456.547974 117.82756 
L 462.557501 128.920512 
L 468.567028 142.78182 
L 474.576555 158.962282 
L 480.586082 176.905195 
L 486.59561 195.980086 
L 492.605137 215.523613 
L 498.614664 234.883764 
L 504.624191 253.462852 
L 510.633718 270.754751 
L 516.643245 286.372488 
L 522.652772 300.063517 
L 528.662299 311.711682 
L 534.671826 321.326655 
L 540.681353 329.023243 
L 546.69088 334.994107 
L 552.700407 339.479939 
L 558.709935 342.740929 
L 564.719462 345.0326 
L 570.728989 346.587891 
L 576.738516 347.606146 
L 582.748043 348.248518 
L 588.75757 348.638526 
L 594.767097 348.866119 
L 600.776624 348.993606 
L 606.786151 349.062058 
L 612.795678 349.097237 
L 618.805205 349.114516 
L 624.814733 349.122615 
L 630.82426 349.126231 
L 636.833787 349.127766 
L 642.843314 349.128385 
L 648.852841 349.128622 
" clip-path="url(#p787755dc13)" style="fill: none; stroke: #000000; stroke-width: 1.5; stroke-linecap: square"/>
   </g>
   <g id="patch_33">
    <path d="M 24.1625 349.12875 
L 24.1625 33.21375 
" style="fill: none; stroke: #000000; stroke-width: 0.8; stroke-linejoin: miter; stroke-linecap: square"/>
   </g>
   <g id="patch_34">
    <path d="M 678.6 349.12875 
L 678.6 33.21375 
" style="fill: none; stroke: #000000; stroke-width: 0.8; stroke-linejoin: miter; stroke-linecap: square"/>
   </g>
   <g id="patch_35">
    <path d="M 24.1625 349.12875 
L 678.6 349.12875 
" style="fill: none; stroke: #000000; stroke-width: 0.8; stroke-linejoin: miter; stroke-linecap: square"/>
   </g>
   <g id="patch_36">
    <path d="M 24.1625 33.21375 
L 678.6 33.21375 
" style="fill: none; stroke: #000000; stroke-width: 0.8; stroke-linejoin: miter; stroke-linecap: square"/>
   </g>
   <g id="legend_1">
    <g id="patch_37">
     <path d="M 620.5125 55.891875 
L 671.6 55.891875 
Q 673.6 55.891875 673.6 53.891875 
L 673.6 40.21375 
Q 673.6 38.21375 671.6 38.21375 
L 620.5125 38.21375 
Q 618.5125 38.21375 618.5125 40.21375 
L 618.5125 53.891875 
Q 618.5125 55.891875 620.5125 55.891875 
z
" style="fill: #ffffff; opacity: 0.8; stroke: #cccccc; stroke-linejoin: miter"/>
    </g>
    <g id="patch_38">
     <path d="M 622.5125 49.812188 
L 642.5125 49.812188 
L 642.5125 42.812188 
L 622.5125 42.812188 
z
" style="fill: #da70d6"/>
    </g>
    <g id="text_13">
     <!-- 100 -->
     <g transform="translate(650.5125 49.812188) scale(0.1 -0.1)">
      <use xlink:href="#DejaVuSans-31"/>
      <use xlink:href="#DejaVuSans-30" x="63.623047"/>
      <use xlink:href="#DejaVuSans-30" x="127.246094"/>
     </g>
    </g>
   </g>
  </g>
  <g id="axes_2">
   <g id="patch_39">
    <path d="M 702.7625 349.12875 
L 1357.2 349.12875 
L 1357.2 33.21375 
L 702.7625 33.21375 
z
" style="fill: #ffffff"/>
   </g>
   <g id="patch_40">
    <path d="M 890.775185 349.12875 
L 901.523033 349.12875 
L 901.523033 335.452776 
L 890.775185 335.452776 
z
" clip-path="url(#p271768104c)" style="fill: #da70d6"/>
   </g>
   <g id="patch_41">
    <path d="M 902.717238 349.12875 
L 913.465086 349.12875 
L 913.465086 349.12875 
L 902.717238 349.12875 
z
" clip-path="url(#p271768104c)" style="fill: #da70d6"/>
   </g>
   <g id="patch_42">
    <path d="M 914.659292 349.12875 
L 925.40714 349.12875 
L 925.40714 349.12875 
L 914.659292 349.12875 
z
" clip-path="url(#p271768104c)" style="fill: #da70d6"/>
   </g>
   <g id="patch_43">
    <path d="M 926.601345 349.12875 
L 937.349194 349.12875 
L 937.349194 349.12875 
L 926.601345 349.12875 
z
" clip-path="url(#p271768104c)" style="fill: #da70d6"/>
   </g>
   <g id="patch_44">
    <path d="M 938.543399 349.12875 
L 949.291247 349.12875 
L 949.291247 335.452776 
L 938.543399 335.452776 
z
" clip-path="url(#p271768104c)" style="fill: #da70d6"/>
   </g>
   <g id="patch_45">
    <path d="M 950.485453 349.12875 
L 961.233301 349.12875 
L 961.233301 328.614789 
L 950.485453 328.614789 
z
" clip-path="url(#p271768104c)" style="fill: #da70d6"/>
   </g>
   <g id="patch_46">
    <path d="M 962.427506 349.12875 
L 973.175355 349.12875 
L 973.175355 335.452776 
L 962.427506 335.452776 
z
" clip-path="url(#p271768104c)" style="fill: #da70d6"/>
   </g>
   <g id="patch_47">
    <path d="M 974.36956 349.12875 
L 985.117408 349.12875 
L 985.117408 321.776802 
L 974.36956 321.776802 
z
" clip-path="url(#p271768104c)" style="fill: #da70d6"/>
   </g>
   <g id="patch_48">
    <path d="M 986.311614 349.12875 
L 997.059462 349.12875 
L 997.059462 342.290763 
L 986.311614 342.290763 
z
" clip-path="url(#p271768104c)" style="fill: #da70d6"/>
   </g>
   <g id="patch_49">
    <path d="M 998.253667 349.12875 
L 1009.001515 349.12875 
L 1009.001515 342.290763 
L 998.253667 342.290763 
z
" clip-path="url(#p271768104c)" style="fill: #da70d6"/>
   </g>
   <g id="patch_50">
    <path d="M 1010.195721 349.12875 
L 1020.943569 349.12875 
L 1020.943569 287.586867 
L 1010.195721 287.586867 
z
" clip-path="url(#p271768104c)" style="fill: #da70d6"/>
   </g>
   <g id="patch_51">
    <path d="M 1022.137774 349.12875 
L 1032.885623 349.12875 
L 1032.885623 280.74888 
L 1022.137774 280.74888 
z
" clip-path="url(#p271768104c)" style="fill: #da70d6"/>
   </g>
   <g id="patch_52">
    <path d="M 1034.079828 349.12875 
L 1044.827676 349.12875 
L 1044.827676 246.558945 
L 1034.079828 246.558945 
z
" clip-path="url(#p271768104c)" style="fill: #da70d6"/>
   </g>
   <g id="patch_53">
    <path d="M 1046.021882 349.12875 
L 1056.76973 349.12875 
L 1056.76973 239.720958 
L 1046.021882 239.720958 
z
" clip-path="url(#p271768104c)" style="fill: #da70d6"/>
   </g>
   <g id="patch_54">
    <path d="M 1057.963935 349.12875 
L 1068.711784 349.12875 
L 1068.711784 185.017062 
L 1057.963935 185.017062 
z
" clip-path="url(#p271768104c)" style="fill: #da70d6"/>
   </g>
   <g id="patch_55">
    <path d="M 1069.905989 349.12875 
L 1080.653837 349.12875 
L 1080.653837 164.503101 
L 1069.905989 164.503101 
z
" clip-path="url(#p271768104c)" style="fill: #da70d6"/>
   </g>
   <g id="patch_56">
    <path d="M 1081.848043 349.12875 
L 1092.595891 349.12875 
L 1092.595891 185.017062 
L 1081.848043 185.017062 
z
" clip-path="url(#p271768104c)" style="fill: #da70d6"/>
   </g>
   <g id="patch_57">
    <path d="M 1093.790096 349.12875 
L 1104.537945 349.12875 
L 1104.537945 75.609269 
L 1093.790096 75.609269 
z
" clip-path="url(#p271768104c)" style="fill: #da70d6"/>
   </g>
   <g id="patch_58">
    <path d="M 1105.73215 349.12875 
L 1116.479998 349.12875 
L 1116.479998 75.609269 
L 1105.73215 75.609269 
z
" clip-path="url(#p271768104c)" style="fill: #da70d6"/>
   </g>
   <g id="patch_59">
    <path d="M 1117.674204 349.12875 
L 1128.422052 349.12875 
L 1128.422052 48.257321 
L 1117.674204 48.257321 
z
" clip-path="url(#p271768104c)" style="fill: #da70d6"/>
   </g>
   <g id="patch_60">
    <path d="M 1129.616257 349.12875 
L 1140.364105 349.12875 
L 1140.364105 164.503101 
L 1129.616257 164.503101 
z
" clip-path="url(#p271768104c)" style="fill: #da70d6"/>
   </g>
   <g id="patch_61">
    <path d="M 1141.558311 349.12875 
L 1152.306159 349.12875 
L 1152.306159 143.98914 
L 1141.558311 143.98914 
z
" clip-path="url(#p271768104c)" style="fill: #da70d6"/>
   </g>
   <g id="patch_62">
    <path d="M 1153.500364 349.12875 
L 1164.248213 349.12875 
L 1164.248213 226.044984 
L 1153.500364 226.044984 
z
" clip-path="url(#p271768104c)" style="fill: #da70d6"/>
   </g>
   <g id="patch_63">
    <path d="M 1165.442418 349.12875 
L 1176.190266 349.12875 
L 1176.190266 212.36901 
L 1165.442418 212.36901 
z
" clip-path="url(#p271768104c)" style="fill: #da70d6"/>
   </g>
   <g id="patch_64">
    <path d="M 1177.384472 349.12875 
L 1188.13232 349.12875 
L 1188.13232 232.882971 
L 1177.384472 232.882971 
z
" clip-path="url(#p271768104c)" style="fill: #da70d6"/>
   </g>
   <g id="patch_65">
    <path d="M 1189.326525 349.12875 
L 1200.074374 349.12875 
L 1200.074374 246.558945 
L 1189.326525 246.558945 
z
" clip-path="url(#p271768104c)" style="fill: #da70d6"/>
   </g>
   <g id="patch_66">
    <path d="M 1201.268579 349.12875 
L 1212.016427 349.12875 
L 1212.016427 314.938815 
L 1201.268579 314.938815 
z
" clip-path="url(#p271768104c)" style="fill: #da70d6"/>
   </g>
   <g id="patch_67">
    <path d="M 1213.210633 349.12875 
L 1223.958481 349.12875 
L 1223.958481 335.452776 
L 1213.210633 335.452776 
z
" clip-path="url(#p271768104c)" style="fill: #da70d6"/>
   </g>
   <g id="patch_68">
    <path d="M 1225.152686 349.12875 
L 1235.900534 349.12875 
L 1235.900534 342.290763 
L 1225.152686 342.290763 
z
" clip-path="url(#p271768104c)" style="fill: #da70d6"/>
   </g>
   <g id="patch_69">
    <path d="M 1237.09474 349.12875 
L 1247.842588 349.12875 
L 1247.842588 342.290763 
L 1237.09474 342.290763 
z
" clip-path="url(#p271768104c)" style="fill: #da70d6"/>
   </g>
   <g id="matplotlib.axis_3">
    <g id="xtick_8">
     <g id="line2d_14">
      <g>
       <use xlink:href="#m6c5dedbb78" x="732.509659" y="349.12875" style="stroke: #000000; stroke-width: 0.8"/>
      </g>
     </g>
     <g id="text_14">
      <!-- 1.0 -->
      <g transform="translate(724.558097 363.727188) scale(0.1 -0.1)">
       <use xlink:href="#DejaVuSans-31"/>
       <use xlink:href="#DejaVuSans-2e" x="63.623047"/>
       <use xlink:href="#DejaVuSans-30" x="95.410156"/>
      </g>
     </g>
    </g>
    <g id="xtick_9">
     <g id="line2d_15">
      <g>
       <use xlink:href="#m6c5dedbb78" x="831.666856" y="349.12875" style="stroke: #000000; stroke-width: 0.8"/>
      </g>
     </g>
     <g id="text_15">
      <!-- 1.1 -->
      <g transform="translate(823.715294 363.727188) scale(0.1 -0.1)">
       <use xlink:href="#DejaVuSans-31"/>
       <use xlink:href="#DejaVuSans-2e" x="63.623047"/>
       <use xlink:href="#DejaVuSans-31" x="95.410156"/>
      </g>
     </g>
    </g>
    <g id="xtick_10">
     <g id="line2d_16">
      <g>
       <use xlink:href="#m6c5dedbb78" x="930.824053" y="349.12875" style="stroke: #000000; stroke-width: 0.8"/>
      </g>
     </g>
     <g id="text_16">
      <!-- 1.2 -->
      <g transform="translate(922.872491 363.727188) scale(0.1 -0.1)">
       <use xlink:href="#DejaVuSans-31"/>
       <use xlink:href="#DejaVuSans-2e" x="63.623047"/>
       <use xlink:href="#DejaVuSans-32" x="95.410156"/>
      </g>
     </g>
    </g>
    <g id="xtick_11">
     <g id="line2d_17">
      <g>
       <use xlink:href="#m6c5dedbb78" x="1029.98125" y="349.12875" style="stroke: #000000; stroke-width: 0.8"/>
      </g>
     </g>
     <g id="text_17">
      <!-- 1.3 -->
      <g transform="translate(1022.029688 363.727188) scale(0.1 -0.1)">
       <use xlink:href="#DejaVuSans-31"/>
       <use xlink:href="#DejaVuSans-2e" x="63.623047"/>
       <use xlink:href="#DejaVuSans-33" x="95.410156"/>
      </g>
     </g>
    </g>
    <g id="xtick_12">
     <g id="line2d_18">
      <g>
       <use xlink:href="#m6c5dedbb78" x="1129.138447" y="349.12875" style="stroke: #000000; stroke-width: 0.8"/>
      </g>
     </g>
     <g id="text_18">
      <!-- 1.4 -->
      <g transform="translate(1121.186884 363.727188) scale(0.1 -0.1)">
       <use xlink:href="#DejaVuSans-31"/>
       <use xlink:href="#DejaVuSans-2e" x="63.623047"/>
       <use xlink:href="#DejaVuSans-34" x="95.410156"/>
      </g>
     </g>
    </g>
    <g id="xtick_13">
     <g id="line2d_19">
      <g>
       <use xlink:href="#m6c5dedbb78" x="1228.295644" y="349.12875" style="stroke: #000000; stroke-width: 0.8"/>
      </g>
     </g>
     <g id="text_19">
      <!-- 1.5 -->
      <g transform="translate(1220.344081 363.727188) scale(0.1 -0.1)">
       <use xlink:href="#DejaVuSans-31"/>
       <use xlink:href="#DejaVuSans-2e" x="63.623047"/>
       <use xlink:href="#DejaVuSans-35" x="95.410156"/>
      </g>
     </g>
    </g>
    <g id="xtick_14">
     <g id="line2d_20">
      <g>
       <use xlink:href="#m6c5dedbb78" x="1327.452841" y="349.12875" style="stroke: #000000; stroke-width: 0.8"/>
      </g>
     </g>
     <g id="text_20">
      <!-- 1.6 -->
      <g transform="translate(1319.501278 363.727188) scale(0.1 -0.1)">
       <use xlink:href="#DejaVuSans-31"/>
       <use xlink:href="#DejaVuSans-2e" x="63.623047"/>
       <use xlink:href="#DejaVuSans-36" x="95.410156"/>
      </g>
     </g>
    </g>
   </g>
   <g id="matplotlib.axis_4">
    <g id="ytick_6">
     <g id="line2d_21">
      <g>
       <use xlink:href="#m656816e8c4" x="702.7625" y="349.12875" style="stroke: #000000; stroke-width: 0.8"/>
      </g>
     </g>
     <g id="text_21">
      <!-- 0 -->
      <g transform="translate(689.4 352.927969) scale(0.1 -0.1)">
       <use xlink:href="#DejaVuSans-30"/>
      </g>
     </g>
    </g>
    <g id="ytick_7">
     <g id="line2d_22">
      <g>
       <use xlink:href="#m656816e8c4" x="702.7625" y="283.2458" style="stroke: #000000; stroke-width: 0.8"/>
      </g>
     </g>
     <g id="text_22">
      <!-- 2 -->
      <g transform="translate(689.4 287.045019) scale(0.1 -0.1)">
       <use xlink:href="#DejaVuSans-32"/>
      </g>
     </g>
    </g>
    <g id="ytick_8">
     <g id="line2d_23">
      <g>
       <use xlink:href="#m656816e8c4" x="702.7625" y="217.362851" style="stroke: #000000; stroke-width: 0.8"/>
      </g>
     </g>
     <g id="text_23">
      <!-- 4 -->
      <g transform="translate(689.4 221.16207) scale(0.1 -0.1)">
       <use xlink:href="#DejaVuSans-34"/>
      </g>
     </g>
    </g>
    <g id="ytick_9">
     <g id="line2d_24">
      <g>
       <use xlink:href="#m656816e8c4" x="702.7625" y="151.479901" style="stroke: #000000; stroke-width: 0.8"/>
      </g>
     </g>
     <g id="text_24">
      <!-- 6 -->
      <g transform="translate(689.4 155.27912) scale(0.1 -0.1)">
       <use xlink:href="#DejaVuSans-36"/>
      </g>
     </g>
    </g>
    <g id="ytick_10">
     <g id="line2d_25">
      <g>
       <use xlink:href="#m656816e8c4" x="702.7625" y="85.596952" style="stroke: #000000; stroke-width: 0.8"/>
      </g>
     </g>
     <g id="text_25">
      <!-- 8 -->
      <g transform="translate(689.4 89.39617) scale(0.1 -0.1)">
       <use xlink:href="#DejaVuSans-38"/>
      </g>
     </g>
    </g>
   </g>
   <g id="line2d_26">
    <path d="M 732.509659 349.106707 
L 738.519186 349.103232 
L 744.528713 349.099154 
L 750.53824 349.094362 
L 756.547767 349.08872 
L 762.557295 349.082068 
L 768.566822 349.074214 
L 774.576349 349.064926 
L 780.585876 349.053929 
L 786.595403 349.040889 
L 792.60493 349.025405 
L 798.614457 349.006998 
L 804.623984 348.985089 
L 810.633511 348.958981 
L 816.643038 348.927837 
L 822.652565 348.890649 
L 828.662093 348.846201 
L 834.67162 348.793033 
L 840.681147 348.729387 
L 846.690674 348.653149 
L 852.700201 348.561778 
L 858.709728 348.452223 
L 864.719255 348.320823 
L 870.728782 348.163195 
L 876.738309 347.974092 
L 882.747836 347.747251 
L 888.757363 347.475204 
L 894.76689 347.149075 
L 900.776418 346.758334 
L 906.785945 346.290531 
L 912.795472 345.730997 
L 918.804999 345.062508 
L 924.814526 344.264934 
L 930.824053 343.31486 
L 936.83358 342.185197 
L 942.843107 340.844799 
L 948.852634 339.25811 
L 954.862161 337.38485 
L 960.871688 335.179811 
L 966.881216 332.592767 
L 972.890743 329.568596 
L 978.90027 326.047649 
L 984.909797 321.96646 
L 990.919324 317.258882 
L 996.928851 311.857731 
L 1002.938378 305.697031 
L 1008.947905 298.714945 
L 1014.957432 290.857442 
L 1020.966959 282.08273 
L 1026.976486 272.366431 
L 1032.986014 261.70739 
L 1038.995541 250.133955 
L 1045.005068 237.710412 
L 1051.014595 224.543192 
L 1057.024122 210.786303 
L 1063.033649 196.645356 
L 1069.043176 182.379457 
L 1075.052703 168.300205 
L 1081.06223 154.767078 
L 1087.071757 142.178602 
L 1093.081284 130.958952 
L 1099.090812 121.539984 
L 1105.100339 114.33917 
L 1111.109866 109.734421 
L 1117.119393 108.037394 
L 1123.12892 109.467364 
L 1129.138447 114.128149 
L 1135.147974 121.990725 
L 1141.157501 132.884017 
L 1147.167028 146.495836 
L 1153.176555 162.385068 
L 1159.186082 180.005028 
L 1165.19561 198.736593 
L 1171.205137 217.928358 
L 1177.214664 236.940048 
L 1183.224191 255.184732 
L 1189.233718 272.165396 
L 1195.243245 287.502031 
L 1201.252772 300.946636 
L 1207.262299 312.385148 
L 1213.271826 321.827062 
L 1219.281353 329.38512 
L 1225.29088 335.248515 
L 1231.300407 339.653607 
L 1237.309935 342.855903 
L 1243.319462 345.106326 
L 1249.328989 346.633624 
L 1255.338516 347.633552 
L 1261.348043 348.264362 
L 1267.35757 348.647349 
L 1273.367097 348.870846 
L 1279.376624 348.996038 
L 1285.386151 349.063258 
L 1291.395678 349.097805 
L 1297.405205 349.114773 
L 1303.414733 349.122725 
L 1309.42426 349.126276 
L 1315.433787 349.127784 
L 1321.443314 349.128392 
L 1327.452841 349.128624 
" clip-path="url(#p271768104c)" style="fill: none; stroke: #000000; stroke-width: 1.5; stroke-linecap: square"/>
   </g>
   <g id="patch_70">
    <path d="M 702.7625 349.12875 
L 702.7625 33.21375 
" style="fill: none; stroke: #000000; stroke-width: 0.8; stroke-linejoin: miter; stroke-linecap: square"/>
   </g>
   <g id="patch_71">
    <path d="M 1357.2 349.12875 
L 1357.2 33.21375 
" style="fill: none; stroke: #000000; stroke-width: 0.8; stroke-linejoin: miter; stroke-linecap: square"/>
   </g>
   <g id="patch_72">
    <path d="M 702.7625 349.12875 
L 1357.2 349.12875 
" style="fill: none; stroke: #000000; stroke-width: 0.8; stroke-linejoin: miter; stroke-linecap: square"/>
   </g>
   <g id="patch_73">
    <path d="M 702.7625 33.21375 
L 1357.2 33.21375 
" style="fill: none; stroke: #000000; stroke-width: 0.8; stroke-linejoin: miter; stroke-linecap: square"/>
   </g>
   <g id="legend_2">
    <g id="patch_74">
     <path d="M 1299.1125 55.891875 
L 1350.2 55.891875 
Q 1352.2 55.891875 1352.2 53.891875 
L 1352.2 40.21375 
Q 1352.2 38.21375 1350.2 38.21375 
L 1299.1125 38.21375 
Q 1297.1125 38.21375 1297.1125 40.21375 
L 1297.1125 53.891875 
Q 1297.1125 55.891875 1299.1125 55.891875 
z
" style="fill: #ffffff; opacity: 0.8; stroke: #cccccc; stroke-linejoin: miter"/>
    </g>
    <g id="patch_75">
     <path d="M 1301.1125 49.812188 
L 1321.1125 49.812188 
L 1321.1125 42.812188 
L 1301.1125 42.812188 
z
" style="fill: #da70d6"/>
    </g>
    <g id="text_26">
     <!-- 400 -->
     <g transform="translate(1329.1125 49.812188) scale(0.1 -0.1)">
      <use xlink:href="#DejaVuSans-34"/>
      <use xlink:href="#DejaVuSans-30" x="63.623047"/>
      <use xlink:href="#DejaVuSans-30" x="127.246094"/>
     </g>
    </g>
   </g>
  </g>
  <g id="axes_3">
   <g id="patch_76">
    <path d="M 24.1625 692.521875 
L 678.6 692.521875 
L 678.6 376.606875 
L 24.1625 376.606875 
z
" style="fill: #ffffff"/>
   </g>
   <g id="patch_77">
    <path d="M 209.428483 692.521875 
L 219.891127 692.521875 
L 219.891127 689.321115 
L 209.428483 689.321115 
z
" clip-path="url(#p184b594877)" style="fill: #da70d6"/>
   </g>
   <g id="patch_78">
    <path d="M 221.053643 692.521875 
L 231.516288 692.521875 
L 231.516288 692.521875 
L 221.053643 692.521875 
z
" clip-path="url(#p184b594877)" style="fill: #da70d6"/>
   </g>
   <g id="patch_79">
    <path d="M 232.678804 692.521875 
L 243.141449 692.521875 
L 243.141449 689.321115 
L 232.678804 689.321115 
z
" clip-path="url(#p184b594877)" style="fill: #da70d6"/>
   </g>
   <g id="patch_80">
    <path d="M 244.303965 692.521875 
L 254.766609 692.521875 
L 254.766609 689.321115 
L 244.303965 689.321115 
z
" clip-path="url(#p184b594877)" style="fill: #da70d6"/>
   </g>
   <g id="patch_81">
    <path d="M 255.929125 692.521875 
L 266.39177 692.521875 
L 266.39177 679.718835 
L 255.929125 679.718835 
z
" clip-path="url(#p184b594877)" style="fill: #da70d6"/>
   </g>
   <g id="patch_82">
    <path d="M 267.554286 692.521875 
L 278.016931 692.521875 
L 278.016931 686.120355 
L 267.554286 686.120355 
z
" clip-path="url(#p184b594877)" style="fill: #da70d6"/>
   </g>
   <g id="patch_83">
    <path d="M 279.179447 692.521875 
L 289.642092 692.521875 
L 289.642092 670.116556 
L 279.179447 670.116556 
z
" clip-path="url(#p184b594877)" style="fill: #da70d6"/>
   </g>
   <g id="patch_84">
    <path d="M 290.804608 692.521875 
L 301.267252 692.521875 
L 301.267252 666.915796 
L 290.804608 666.915796 
z
" clip-path="url(#p184b594877)" style="fill: #da70d6"/>
   </g>
   <g id="patch_85">
    <path d="M 302.429768 692.521875 
L 312.892413 692.521875 
L 312.892413 657.313516 
L 302.429768 657.313516 
z
" clip-path="url(#p184b594877)" style="fill: #da70d6"/>
   </g>
   <g id="patch_86">
    <path d="M 314.054929 692.521875 
L 324.517574 692.521875 
L 324.517574 644.510477 
L 314.054929 644.510477 
z
" clip-path="url(#p184b594877)" style="fill: #da70d6"/>
   </g>
   <g id="patch_87">
    <path d="M 325.68009 692.521875 
L 336.142734 692.521875 
L 336.142734 628.506677 
L 325.68009 628.506677 
z
" clip-path="url(#p184b594877)" style="fill: #da70d6"/>
   </g>
   <g id="patch_88">
    <path d="M 337.305251 692.521875 
L 347.767895 692.521875 
L 347.767895 628.506677 
L 337.305251 628.506677 
z
" clip-path="url(#p184b594877)" style="fill: #da70d6"/>
   </g>
   <g id="patch_89">
    <path d="M 348.930411 692.521875 
L 359.393056 692.521875 
L 359.393056 625.305918 
L 348.930411 625.305918 
z
" clip-path="url(#p184b594877)" style="fill: #da70d6"/>
   </g>
   <g id="patch_90">
    <path d="M 360.555572 692.521875 
L 371.018217 692.521875 
L 371.018217 583.696039 
L 360.555572 583.696039 
z
" clip-path="url(#p184b594877)" style="fill: #da70d6"/>
   </g>
   <g id="patch_91">
    <path d="M 372.180733 692.521875 
L 382.643377 692.521875 
L 382.643377 516.480082 
L 372.180733 516.480082 
z
" clip-path="url(#p184b594877)" style="fill: #da70d6"/>
   </g>
   <g id="patch_92">
    <path d="M 383.805893 692.521875 
L 394.268538 692.521875 
L 394.268538 516.480082 
L 383.805893 516.480082 
z
" clip-path="url(#p184b594877)" style="fill: #da70d6"/>
   </g>
   <g id="patch_93">
    <path d="M 395.431054 692.521875 
L 405.893699 692.521875 
L 405.893699 465.267924 
L 395.431054 465.267924 
z
" clip-path="url(#p184b594877)" style="fill: #da70d6"/>
   </g>
   <g id="patch_94">
    <path d="M 407.056215 692.521875 
L 417.51886 692.521875 
L 417.51886 478.070963 
L 407.056215 478.070963 
z
" clip-path="url(#p184b594877)" style="fill: #da70d6"/>
   </g>
   <g id="patch_95">
    <path d="M 418.681376 692.521875 
L 429.14402 692.521875 
L 429.14402 462.067164 
L 418.681376 462.067164 
z
" clip-path="url(#p184b594877)" style="fill: #da70d6"/>
   </g>
   <g id="patch_96">
    <path d="M 430.306536 692.521875 
L 440.769181 692.521875 
L 440.769181 417.256525 
L 430.306536 417.256525 
z
" clip-path="url(#p184b594877)" style="fill: #da70d6"/>
   </g>
   <g id="patch_97">
    <path d="M 441.931697 692.521875 
L 452.394342 692.521875 
L 452.394342 391.650446 
L 441.931697 391.650446 
z
" clip-path="url(#p184b594877)" style="fill: #da70d6"/>
   </g>
   <g id="patch_98">
    <path d="M 453.556858 692.521875 
L 464.019502 692.521875 
L 464.019502 446.063364 
L 453.556858 446.063364 
z
" clip-path="url(#p184b594877)" style="fill: #da70d6"/>
   </g>
   <g id="patch_99">
    <path d="M 465.182018 692.521875 
L 475.644663 692.521875 
L 475.644663 481.271723 
L 465.182018 481.271723 
z
" clip-path="url(#p184b594877)" style="fill: #da70d6"/>
   </g>
   <g id="patch_100">
    <path d="M 476.807179 692.521875 
L 487.269824 692.521875 
L 487.269824 468.468684 
L 476.807179 468.468684 
z
" clip-path="url(#p184b594877)" style="fill: #da70d6"/>
   </g>
   <g id="patch_101">
    <path d="M 488.43234 692.521875 
L 498.894985 692.521875 
L 498.894985 535.684641 
L 488.43234 535.684641 
z
" clip-path="url(#p184b594877)" style="fill: #da70d6"/>
   </g>
   <g id="patch_102">
    <path d="M 500.057501 692.521875 
L 510.520145 692.521875 
L 510.520145 564.49148 
L 500.057501 564.49148 
z
" clip-path="url(#p184b594877)" style="fill: #da70d6"/>
   </g>
   <g id="patch_103">
    <path d="M 511.682661 692.521875 
L 522.145306 692.521875 
L 522.145306 618.904398 
L 511.682661 618.904398 
z
" clip-path="url(#p184b594877)" style="fill: #da70d6"/>
   </g>
   <g id="patch_104">
    <path d="M 523.307822 692.521875 
L 533.770467 692.521875 
L 533.770467 650.911997 
L 523.307822 650.911997 
z
" clip-path="url(#p184b594877)" style="fill: #da70d6"/>
   </g>
   <g id="patch_105">
    <path d="M 534.932983 692.521875 
L 545.395627 692.521875 
L 545.395627 663.715036 
L 534.932983 663.715036 
z
" clip-path="url(#p184b594877)" style="fill: #da70d6"/>
   </g>
   <g id="patch_106">
    <path d="M 546.558144 692.521875 
L 557.020788 692.521875 
L 557.020788 666.915796 
L 546.558144 666.915796 
z
" clip-path="url(#p184b594877)" style="fill: #da70d6"/>
   </g>
   <g id="matplotlib.axis_5">
    <g id="xtick_15">
     <g id="line2d_27">
      <g>
       <use xlink:href="#m6c5dedbb78" x="53.909659" y="692.521875" style="stroke: #000000; stroke-width: 0.8"/>
      </g>
     </g>
     <g id="text_27">
      <!-- 1.0 -->
      <g transform="translate(45.958097 707.120313) scale(0.1 -0.1)">
       <use xlink:href="#DejaVuSans-31"/>
       <use xlink:href="#DejaVuSans-2e" x="63.623047"/>
       <use xlink:href="#DejaVuSans-30" x="95.410156"/>
      </g>
     </g>
    </g>
    <g id="xtick_16">
     <g id="line2d_28">
      <g>
       <use xlink:href="#m6c5dedbb78" x="153.066856" y="692.521875" style="stroke: #000000; stroke-width: 0.8"/>
      </g>
     </g>
     <g id="text_28">
      <!-- 1.1 -->
      <g transform="translate(145.115294 707.120313) scale(0.1 -0.1)">
       <use xlink:href="#DejaVuSans-31"/>
       <use xlink:href="#DejaVuSans-2e" x="63.623047"/>
       <use xlink:href="#DejaVuSans-31" x="95.410156"/>
      </g>
     </g>
    </g>
    <g id="xtick_17">
     <g id="line2d_29">
      <g>
       <use xlink:href="#m6c5dedbb78" x="252.224053" y="692.521875" style="stroke: #000000; stroke-width: 0.8"/>
      </g>
     </g>
     <g id="text_29">
      <!-- 1.2 -->
      <g transform="translate(244.272491 707.120313) scale(0.1 -0.1)">
       <use xlink:href="#DejaVuSans-31"/>
       <use xlink:href="#DejaVuSans-2e" x="63.623047"/>
       <use xlink:href="#DejaVuSans-32" x="95.410156"/>
      </g>
     </g>
    </g>
    <g id="xtick_18">
     <g id="line2d_30">
      <g>
       <use xlink:href="#m6c5dedbb78" x="351.38125" y="692.521875" style="stroke: #000000; stroke-width: 0.8"/>
      </g>
     </g>
     <g id="text_30">
      <!-- 1.3 -->
      <g transform="translate(343.429688 707.120313) scale(0.1 -0.1)">
       <use xlink:href="#DejaVuSans-31"/>
       <use xlink:href="#DejaVuSans-2e" x="63.623047"/>
       <use xlink:href="#DejaVuSans-33" x="95.410156"/>
      </g>
     </g>
    </g>
    <g id="xtick_19">
     <g id="line2d_31">
      <g>
       <use xlink:href="#m6c5dedbb78" x="450.538447" y="692.521875" style="stroke: #000000; stroke-width: 0.8"/>
      </g>
     </g>
     <g id="text_31">
      <!-- 1.4 -->
      <g transform="translate(442.586884 707.120313) scale(0.1 -0.1)">
       <use xlink:href="#DejaVuSans-31"/>
       <use xlink:href="#DejaVuSans-2e" x="63.623047"/>
       <use xlink:href="#DejaVuSans-34" x="95.410156"/>
      </g>
     </g>
    </g>
    <g id="xtick_20">
     <g id="line2d_32">
      <g>
       <use xlink:href="#m6c5dedbb78" x="549.695644" y="692.521875" style="stroke: #000000; stroke-width: 0.8"/>
      </g>
     </g>
     <g id="text_32">
      <!-- 1.5 -->
      <g transform="translate(541.744081 707.120313) scale(0.1 -0.1)">
       <use xlink:href="#DejaVuSans-31"/>
       <use xlink:href="#DejaVuSans-2e" x="63.623047"/>
       <use xlink:href="#DejaVuSans-35" x="95.410156"/>
      </g>
     </g>
    </g>
    <g id="xtick_21">
     <g id="line2d_33">
      <g>
       <use xlink:href="#m6c5dedbb78" x="648.852841" y="692.521875" style="stroke: #000000; stroke-width: 0.8"/>
      </g>
     </g>
     <g id="text_33">
      <!-- 1.6 -->
      <g transform="translate(640.901278 707.120313) scale(0.1 -0.1)">
       <use xlink:href="#DejaVuSans-31"/>
       <use xlink:href="#DejaVuSans-2e" x="63.623047"/>
       <use xlink:href="#DejaVuSans-36" x="95.410156"/>
      </g>
     </g>
    </g>
   </g>
   <g id="matplotlib.axis_6">
    <g id="ytick_11">
     <g id="line2d_34">
      <g>
       <use xlink:href="#m656816e8c4" x="24.1625" y="692.521875" style="stroke: #000000; stroke-width: 0.8"/>
      </g>
     </g>
     <g id="text_34">
      <!-- 0 -->
      <g transform="translate(10.8 696.321094) scale(0.1 -0.1)">
       <use xlink:href="#DejaVuSans-30"/>
      </g>
     </g>
    </g>
    <g id="ytick_12">
     <g id="line2d_35">
      <g>
       <use xlink:href="#m656816e8c4" x="24.1625" y="654.99626" style="stroke: #000000; stroke-width: 0.8"/>
      </g>
     </g>
     <g id="text_35">
      <!-- 1 -->
      <g transform="translate(10.8 658.795479) scale(0.1 -0.1)">
       <use xlink:href="#DejaVuSans-31"/>
      </g>
     </g>
    </g>
    <g id="ytick_13">
     <g id="line2d_36">
      <g>
       <use xlink:href="#m656816e8c4" x="24.1625" y="617.470645" style="stroke: #000000; stroke-width: 0.8"/>
      </g>
     </g>
     <g id="text_36">
      <!-- 2 -->
      <g transform="translate(10.8 621.269864) scale(0.1 -0.1)">
       <use xlink:href="#DejaVuSans-32"/>
      </g>
     </g>
    </g>
    <g id="ytick_14">
     <g id="line2d_37">
      <g>
       <use xlink:href="#m656816e8c4" x="24.1625" y="579.94503" style="stroke: #000000; stroke-width: 0.8"/>
      </g>
     </g>
     <g id="text_37">
      <!-- 3 -->
      <g transform="translate(10.8 583.744249) scale(0.1 -0.1)">
       <use xlink:href="#DejaVuSans-33"/>
      </g>
     </g>
    </g>
    <g id="ytick_15">
     <g id="line2d_38">
      <g>
       <use xlink:href="#m656816e8c4" x="24.1625" y="542.419415" style="stroke: #000000; stroke-width: 0.8"/>
      </g>
     </g>
     <g id="text_38">
      <!-- 4 -->
      <g transform="translate(10.8 546.218634) scale(0.1 -0.1)">
       <use xlink:href="#DejaVuSans-34"/>
      </g>
     </g>
    </g>
    <g id="ytick_16">
     <g id="line2d_39">
      <g>
       <use xlink:href="#m656816e8c4" x="24.1625" y="504.8938" style="stroke: #000000; stroke-width: 0.8"/>
      </g>
     </g>
     <g id="text_39">
      <!-- 5 -->
      <g transform="translate(10.8 508.693019) scale(0.1 -0.1)">
       <use xlink:href="#DejaVuSans-35"/>
      </g>
     </g>
    </g>
    <g id="ytick_17">
     <g id="line2d_40">
      <g>
       <use xlink:href="#m656816e8c4" x="24.1625" y="467.368185" style="stroke: #000000; stroke-width: 0.8"/>
      </g>
     </g>
     <g id="text_40">
      <!-- 6 -->
      <g transform="translate(10.8 471.167403) scale(0.1 -0.1)">
       <use xlink:href="#DejaVuSans-36"/>
      </g>
     </g>
    </g>
    <g id="ytick_18">
     <g id="line2d_41">
      <g>
       <use xlink:href="#m656816e8c4" x="24.1625" y="429.84257" style="stroke: #000000; stroke-width: 0.8"/>
      </g>
     </g>
     <g id="text_41">
      <!-- 7 -->
      <g transform="translate(10.8 433.641788) scale(0.1 -0.1)">
       <defs>
        <path id="DejaVuSans-37" d="M 525 4666 
L 3525 4666 
L 3525 4397 
L 1831 0 
L 1172 0 
L 2766 4134 
L 525 4134 
L 525 4666 
z
" transform="scale(0.015625)"/>
       </defs>
       <use xlink:href="#DejaVuSans-37"/>
      </g>
     </g>
    </g>
    <g id="ytick_19">
     <g id="line2d_42">
      <g>
       <use xlink:href="#m656816e8c4" x="24.1625" y="392.316955" style="stroke: #000000; stroke-width: 0.8"/>
      </g>
     </g>
     <g id="text_42">
      <!-- 8 -->
      <g transform="translate(10.8 396.116173) scale(0.1 -0.1)">
       <use xlink:href="#DejaVuSans-38"/>
      </g>
     </g>
    </g>
   </g>
   <g id="line2d_43">
    <path d="M 53.909659 692.496765 
L 59.919186 692.492806 
L 65.928713 692.488161 
L 71.93824 692.482701 
L 77.947767 692.476274 
L 83.957295 692.468696 
L 89.966822 692.459749 
L 95.976349 692.44917 
L 101.985876 692.436642 
L 107.995403 692.421787 
L 114.00493 692.404149 
L 120.014457 692.38318 
L 126.023984 692.358222 
L 132.033511 692.328481 
L 138.043038 692.293003 
L 144.052565 692.250639 
L 150.062093 692.200007 
L 156.07162 692.13944 
L 162.081147 692.066937 
L 168.090674 691.98009 
L 174.100201 691.876003 
L 180.109728 691.751202 
L 186.119255 691.601517 
L 192.128782 691.421953 
L 198.138309 691.206535 
L 204.147836 690.948126 
L 210.157363 690.638222 
L 216.16689 690.266708 
L 222.176418 689.821591 
L 228.185945 689.288689 
L 234.195472 688.65129 
L 240.204999 687.889774 
L 246.214526 686.98121 
L 252.224053 685.898923 
L 258.23358 684.612056 
L 264.243107 683.085128 
L 270.252634 681.277635 
L 276.262161 679.143693 
L 282.271688 676.6318 
L 288.281216 673.684742 
L 294.290743 670.239727 
L 300.30027 666.228804 
L 306.309797 661.579677 
L 312.319324 656.216992 
L 318.328851 650.064216 
L 324.338378 643.046192 
L 330.347905 635.092478 
L 336.357432 626.141523 
L 342.366959 616.145722 
L 348.376486 605.077301 
L 354.386014 592.934947 
L 360.395541 579.75095 
L 366.405068 565.598545 
L 372.414595 550.598973 
L 378.424122 534.927674 
L 384.433649 518.818871 
L 390.443176 502.567727 
L 396.452703 486.529204 
L 402.46223 471.112805 
L 408.471757 456.772516 
L 414.481284 443.991537 
L 420.490812 433.261825 
L 426.500339 425.058945 
L 432.509866 419.813398 
L 438.519393 417.880212 
L 444.52892 419.509176 
L 450.538447 424.818557 
L 456.547974 433.775291 
L 462.557501 446.184495 
L 468.567028 461.690537 
L 474.576555 479.790916 
L 480.586082 499.862873 
L 486.59561 521.201124 
L 492.605137 543.063618 
L 498.614664 564.720977 
L 504.624191 585.504595 
L 510.633718 604.84829 
L 516.643245 622.319173 
L 522.652772 637.634732 
L 528.662299 650.665028 
L 534.671826 661.420881 
L 540.681353 670.030719 
L 546.69088 676.710065 
L 552.700407 681.728169 
L 558.709935 685.376098 
L 564.719462 687.93969 
L 570.728989 689.679527 
L 576.738516 690.818605 
L 582.748043 691.537198 
L 588.75757 691.973482 
L 594.767097 692.228081 
L 600.776624 692.370695 
L 606.786151 692.447269 
L 612.795678 692.486623 
L 618.805205 692.505953 
L 624.814733 692.515012 
L 630.82426 692.519057 
L 636.833787 692.520775 
L 642.843314 692.521467 
L 648.852841 692.521732 
" clip-path="url(#p184b594877)" style="fill: none; stroke: #000000; stroke-width: 1.5; stroke-linecap: square"/>
   </g>
   <g id="patch_107">
    <path d="M 24.1625 692.521875 
L 24.1625 376.606875 
" style="fill: none; stroke: #000000; stroke-width: 0.8; stroke-linejoin: miter; stroke-linecap: square"/>
   </g>
   <g id="patch_108">
    <path d="M 678.6 692.521875 
L 678.6 376.606875 
" style="fill: none; stroke: #000000; stroke-width: 0.8; stroke-linejoin: miter; stroke-linecap: square"/>
   </g>
   <g id="patch_109">
    <path d="M 24.1625 692.521875 
L 678.6 692.521875 
" style="fill: none; stroke: #000000; stroke-width: 0.8; stroke-linejoin: miter; stroke-linecap: square"/>
   </g>
   <g id="patch_110">
    <path d="M 24.1625 376.606875 
L 678.6 376.606875 
" style="fill: none; stroke: #000000; stroke-width: 0.8; stroke-linejoin: miter; stroke-linecap: square"/>
   </g>
   <g id="legend_3">
    <g id="patch_111">
     <path d="M 614.15 399.285 
L 671.6 399.285 
Q 673.6 399.285 673.6 397.285 
L 673.6 383.606875 
Q 673.6 381.606875 671.6 381.606875 
L 614.15 381.606875 
Q 612.15 381.606875 612.15 383.606875 
L 612.15 397.285 
Q 612.15 399.285 614.15 399.285 
z
" style="fill: #ffffff; opacity: 0.8; stroke: #cccccc; stroke-linejoin: miter"/>
    </g>
    <g id="patch_112">
     <path d="M 616.15 393.205313 
L 636.15 393.205313 
L 636.15 386.205313 
L 616.15 386.205313 
z
" style="fill: #da70d6"/>
    </g>
    <g id="text_43">
     <!-- 1000 -->
     <g transform="translate(644.15 393.205313) scale(0.1 -0.1)">
      <use xlink:href="#DejaVuSans-31"/>
      <use xlink:href="#DejaVuSans-30" x="63.623047"/>
      <use xlink:href="#DejaVuSans-30" x="127.246094"/>
      <use xlink:href="#DejaVuSans-30" x="190.869141"/>
     </g>
    </g>
   </g>
  </g>
  <g id="axes_4">
   <g id="patch_113">
    <path d="M 702.7625 692.521875 
L 1357.2 692.521875 
L 1357.2 376.606875 
L 702.7625 376.606875 
z
" style="fill: #ffffff"/>
   </g>
   <g id="patch_114">
    <path d="M 790.496025 692.521875 
L 805.255122 692.521875 
L 805.255122 691.527594 
L 790.496025 691.527594 
z
" clip-path="url(#pe8d3748b5b)" style="fill: #da70d6"/>
   </g>
   <g id="patch_115">
    <path d="M 806.895021 692.521875 
L 821.654118 692.521875 
L 821.654118 692.273305 
L 806.895021 692.273305 
z
" clip-path="url(#pe8d3748b5b)" style="fill: #da70d6"/>
   </g>
   <g id="patch_116">
    <path d="M 823.294018 692.521875 
L 838.053114 692.521875 
L 838.053114 692.273305 
L 823.294018 692.273305 
z
" clip-path="url(#pe8d3748b5b)" style="fill: #da70d6"/>
   </g>
   <g id="patch_117">
    <path d="M 839.693014 692.521875 
L 854.452111 692.521875 
L 854.452111 692.024734 
L 839.693014 692.024734 
z
" clip-path="url(#pe8d3748b5b)" style="fill: #da70d6"/>
   </g>
   <g id="patch_118">
    <path d="M 856.09201 692.521875 
L 870.851107 692.521875 
L 870.851107 692.521875 
L 856.09201 692.521875 
z
" clip-path="url(#pe8d3748b5b)" style="fill: #da70d6"/>
   </g>
   <g id="patch_119">
    <path d="M 872.491007 692.521875 
L 887.250103 692.521875 
L 887.250103 691.030453 
L 872.491007 691.030453 
z
" clip-path="url(#pe8d3748b5b)" style="fill: #da70d6"/>
   </g>
   <g id="patch_120">
    <path d="M 888.890003 692.521875 
L 903.6491 692.521875 
L 903.6491 690.036172 
L 888.890003 690.036172 
z
" clip-path="url(#pe8d3748b5b)" style="fill: #da70d6"/>
   </g>
   <g id="patch_121">
    <path d="M 905.288999 692.521875 
L 920.048096 692.521875 
L 920.048096 688.296179 
L 905.288999 688.296179 
z
" clip-path="url(#pe8d3748b5b)" style="fill: #da70d6"/>
   </g>
   <g id="patch_122">
    <path d="M 921.687996 692.521875 
L 936.447092 692.521875 
L 936.447092 685.064765 
L 921.687996 685.064765 
z
" clip-path="url(#pe8d3748b5b)" style="fill: #da70d6"/>
   </g>
   <g id="patch_123">
    <path d="M 938.086992 692.521875 
L 952.846089 692.521875 
L 952.846089 682.330491 
L 938.086992 682.330491 
z
" clip-path="url(#pe8d3748b5b)" style="fill: #da70d6"/>
   </g>
   <g id="patch_124">
    <path d="M 954.485988 692.521875 
L 969.245085 692.521875 
L 969.245085 678.601936 
L 954.485988 678.601936 
z
" clip-path="url(#pe8d3748b5b)" style="fill: #da70d6"/>
   </g>
   <g id="patch_125">
    <path d="M 970.884985 692.521875 
L 985.644082 692.521875 
L 985.644082 664.930566 
L 970.884985 664.930566 
z
" clip-path="url(#pe8d3748b5b)" style="fill: #da70d6"/>
   </g>
   <g id="patch_126">
    <path d="M 987.283981 692.521875 
L 1002.043078 692.521875 
L 1002.043078 649.022064 
L 987.283981 649.022064 
z
" clip-path="url(#pe8d3748b5b)" style="fill: #da70d6"/>
   </g>
   <g id="patch_127">
    <path d="M 1003.682978 692.521875 
L 1018.442074 692.521875 
L 1018.442074 626.899303 
L 1003.682978 626.899303 
z
" clip-path="url(#pe8d3748b5b)" style="fill: #da70d6"/>
   </g>
   <g id="patch_128">
    <path d="M 1020.081974 692.521875 
L 1034.841071 692.521875 
L 1034.841071 594.336588 
L 1020.081974 594.336588 
z
" clip-path="url(#pe8d3748b5b)" style="fill: #da70d6"/>
   </g>
   <g id="patch_129">
    <path d="M 1036.48097 692.521875 
L 1051.240067 692.521875 
L 1051.240067 552.82534 
L 1036.48097 552.82534 
z
" clip-path="url(#pe8d3748b5b)" style="fill: #da70d6"/>
   </g>
   <g id="patch_130">
    <path d="M 1052.879967 692.521875 
L 1067.639063 692.521875 
L 1067.639063 509.82267 
L 1052.879967 509.82267 
z
" clip-path="url(#pe8d3748b5b)" style="fill: #da70d6"/>
   </g>
   <g id="patch_131">
    <path d="M 1069.278963 692.521875 
L 1084.03806 692.521875 
L 1084.03806 461.351452 
L 1069.278963 461.351452 
z
" clip-path="url(#pe8d3748b5b)" style="fill: #da70d6"/>
   </g>
   <g id="patch_132">
    <path d="M 1085.677959 692.521875 
L 1100.437056 692.521875 
L 1100.437056 408.903109 
L 1085.677959 408.903109 
z
" clip-path="url(#pe8d3748b5b)" style="fill: #da70d6"/>
   </g>
   <g id="patch_133">
    <path d="M 1102.076956 692.521875 
L 1116.836053 692.521875 
L 1116.836053 400.451717 
L 1102.076956 400.451717 
z
" clip-path="url(#pe8d3748b5b)" style="fill: #da70d6"/>
   </g>
   <g id="patch_134">
    <path d="M 1118.475952 692.521875 
L 1133.235049 692.521875 
L 1133.235049 413.625946 
L 1118.475952 413.625946 
z
" clip-path="url(#pe8d3748b5b)" style="fill: #da70d6"/>
   </g>
   <g id="patch_135">
    <path d="M 1134.874949 692.521875 
L 1149.634045 692.521875 
L 1149.634045 423.568759 
L 1134.874949 423.568759 
z
" clip-path="url(#pe8d3748b5b)" style="fill: #da70d6"/>
   </g>
   <g id="patch_136">
    <path d="M 1151.273945 692.521875 
L 1166.033042 692.521875 
L 1166.033042 481.48565 
L 1151.273945 481.48565 
z
" clip-path="url(#pe8d3748b5b)" style="fill: #da70d6"/>
   </g>
   <g id="patch_137">
    <path d="M 1167.672941 692.521875 
L 1182.432038 692.521875 
L 1182.432038 540.148252 
L 1167.672941 540.148252 
z
" clip-path="url(#pe8d3748b5b)" style="fill: #da70d6"/>
   </g>
   <g id="patch_138">
    <path d="M 1184.071938 692.521875 
L 1198.831034 692.521875 
L 1198.831034 601.047987 
L 1184.071938 601.047987 
z
" clip-path="url(#pe8d3748b5b)" style="fill: #da70d6"/>
   </g>
   <g id="patch_139">
    <path d="M 1200.470934 692.521875 
L 1215.230031 692.521875 
L 1215.230031 646.28779 
L 1200.470934 646.28779 
z
" clip-path="url(#pe8d3748b5b)" style="fill: #da70d6"/>
   </g>
   <g id="patch_140">
    <path d="M 1216.86993 692.521875 
L 1231.629027 692.521875 
L 1231.629027 670.399114 
L 1216.86993 670.399114 
z
" clip-path="url(#pe8d3748b5b)" style="fill: #da70d6"/>
   </g>
   <g id="patch_141">
    <path d="M 1233.268927 692.521875 
L 1248.028024 692.521875 
L 1248.028024 686.307616 
L 1233.268927 686.307616 
z
" clip-path="url(#pe8d3748b5b)" style="fill: #da70d6"/>
   </g>
   <g id="patch_142">
    <path d="M 1249.667923 692.521875 
L 1264.42702 692.521875 
L 1264.42702 690.781883 
L 1249.667923 690.781883 
z
" clip-path="url(#pe8d3748b5b)" style="fill: #da70d6"/>
   </g>
   <g id="patch_143">
    <path d="M 1266.06692 692.521875 
L 1280.826016 692.521875 
L 1280.826016 691.776164 
L 1266.06692 691.776164 
z
" clip-path="url(#pe8d3748b5b)" style="fill: #da70d6"/>
   </g>
   <g id="matplotlib.axis_7">
    <g id="xtick_22">
     <g id="line2d_44">
      <g>
       <use xlink:href="#m6c5dedbb78" x="732.509659" y="692.521875" style="stroke: #000000; stroke-width: 0.8"/>
      </g>
     </g>
     <g id="text_44">
      <!-- 1.0 -->
      <g transform="translate(724.558097 707.120313) scale(0.1 -0.1)">
       <use xlink:href="#DejaVuSans-31"/>
       <use xlink:href="#DejaVuSans-2e" x="63.623047"/>
       <use xlink:href="#DejaVuSans-30" x="95.410156"/>
      </g>
     </g>
    </g>
    <g id="xtick_23">
     <g id="line2d_45">
      <g>
       <use xlink:href="#m6c5dedbb78" x="831.666856" y="692.521875" style="stroke: #000000; stroke-width: 0.8"/>
      </g>
     </g>
     <g id="text_45">
      <!-- 1.1 -->
      <g transform="translate(823.715294 707.120313) scale(0.1 -0.1)">
       <use xlink:href="#DejaVuSans-31"/>
       <use xlink:href="#DejaVuSans-2e" x="63.623047"/>
       <use xlink:href="#DejaVuSans-31" x="95.410156"/>
      </g>
     </g>
    </g>
    <g id="xtick_24">
     <g id="line2d_46">
      <g>
       <use xlink:href="#m6c5dedbb78" x="930.824053" y="692.521875" style="stroke: #000000; stroke-width: 0.8"/>
      </g>
     </g>
     <g id="text_46">
      <!-- 1.2 -->
      <g transform="translate(922.872491 707.120313) scale(0.1 -0.1)">
       <use xlink:href="#DejaVuSans-31"/>
       <use xlink:href="#DejaVuSans-2e" x="63.623047"/>
       <use xlink:href="#DejaVuSans-32" x="95.410156"/>
      </g>
     </g>
    </g>
    <g id="xtick_25">
     <g id="line2d_47">
      <g>
       <use xlink:href="#m6c5dedbb78" x="1029.98125" y="692.521875" style="stroke: #000000; stroke-width: 0.8"/>
      </g>
     </g>
     <g id="text_47">
      <!-- 1.3 -->
      <g transform="translate(1022.029688 707.120313) scale(0.1 -0.1)">
       <use xlink:href="#DejaVuSans-31"/>
       <use xlink:href="#DejaVuSans-2e" x="63.623047"/>
       <use xlink:href="#DejaVuSans-33" x="95.410156"/>
      </g>
     </g>
    </g>
    <g id="xtick_26">
     <g id="line2d_48">
      <g>
       <use xlink:href="#m6c5dedbb78" x="1129.138447" y="692.521875" style="stroke: #000000; stroke-width: 0.8"/>
      </g>
     </g>
     <g id="text_48">
      <!-- 1.4 -->
      <g transform="translate(1121.186884 707.120313) scale(0.1 -0.1)">
       <use xlink:href="#DejaVuSans-31"/>
       <use xlink:href="#DejaVuSans-2e" x="63.623047"/>
       <use xlink:href="#DejaVuSans-34" x="95.410156"/>
      </g>
     </g>
    </g>
    <g id="xtick_27">
     <g id="line2d_49">
      <g>
       <use xlink:href="#m6c5dedbb78" x="1228.295644" y="692.521875" style="stroke: #000000; stroke-width: 0.8"/>
      </g>
     </g>
     <g id="text_49">
      <!-- 1.5 -->
      <g transform="translate(1220.344081 707.120313) scale(0.1 -0.1)">
       <use xlink:href="#DejaVuSans-31"/>
       <use xlink:href="#DejaVuSans-2e" x="63.623047"/>
       <use xlink:href="#DejaVuSans-35" x="95.410156"/>
      </g>
     </g>
    </g>
    <g id="xtick_28">
     <g id="line2d_50">
      <g>
       <use xlink:href="#m6c5dedbb78" x="1327.452841" y="692.521875" style="stroke: #000000; stroke-width: 0.8"/>
      </g>
     </g>
     <g id="text_50">
      <!-- 1.6 -->
      <g transform="translate(1319.501278 707.120313) scale(0.1 -0.1)">
       <use xlink:href="#DejaVuSans-31"/>
       <use xlink:href="#DejaVuSans-2e" x="63.623047"/>
       <use xlink:href="#DejaVuSans-36" x="95.410156"/>
      </g>
     </g>
    </g>
   </g>
   <g id="matplotlib.axis_8">
    <g id="ytick_20">
     <g id="line2d_51">
      <g>
       <use xlink:href="#m656816e8c4" x="702.7625" y="692.521875" style="stroke: #000000; stroke-width: 0.8"/>
      </g>
     </g>
     <g id="text_51">
      <!-- 0 -->
      <g transform="translate(689.4 696.321094) scale(0.1 -0.1)">
       <use xlink:href="#DejaVuSans-30"/>
      </g>
     </g>
    </g>
    <g id="ytick_21">
     <g id="line2d_52">
      <g>
       <use xlink:href="#m656816e8c4" x="702.7625" y="651.412361" style="stroke: #000000; stroke-width: 0.8"/>
      </g>
     </g>
     <g id="text_52">
      <!-- 1 -->
      <g transform="translate(689.4 655.211579) scale(0.1 -0.1)">
       <use xlink:href="#DejaVuSans-31"/>
      </g>
     </g>
    </g>
    <g id="ytick_22">
     <g id="line2d_53">
      <g>
       <use xlink:href="#m656816e8c4" x="702.7625" y="610.302846" style="stroke: #000000; stroke-width: 0.8"/>
      </g>
     </g>
     <g id="text_53">
      <!-- 2 -->
      <g transform="translate(689.4 614.102065) scale(0.1 -0.1)">
       <use xlink:href="#DejaVuSans-32"/>
      </g>
     </g>
    </g>
    <g id="ytick_23">
     <g id="line2d_54">
      <g>
       <use xlink:href="#m656816e8c4" x="702.7625" y="569.193332" style="stroke: #000000; stroke-width: 0.8"/>
      </g>
     </g>
     <g id="text_54">
      <!-- 3 -->
      <g transform="translate(689.4 572.99255) scale(0.1 -0.1)">
       <use xlink:href="#DejaVuSans-33"/>
      </g>
     </g>
    </g>
    <g id="ytick_24">
     <g id="line2d_55">
      <g>
       <use xlink:href="#m656816e8c4" x="702.7625" y="528.083817" style="stroke: #000000; stroke-width: 0.8"/>
      </g>
     </g>
     <g id="text_55">
      <!-- 4 -->
      <g transform="translate(689.4 531.883036) scale(0.1 -0.1)">
       <use xlink:href="#DejaVuSans-34"/>
      </g>
     </g>
    </g>
    <g id="ytick_25">
     <g id="line2d_56">
      <g>
       <use xlink:href="#m656816e8c4" x="702.7625" y="486.974303" style="stroke: #000000; stroke-width: 0.8"/>
      </g>
     </g>
     <g id="text_56">
      <!-- 5 -->
      <g transform="translate(689.4 490.773522) scale(0.1 -0.1)">
       <use xlink:href="#DejaVuSans-35"/>
      </g>
     </g>
    </g>
    <g id="ytick_26">
     <g id="line2d_57">
      <g>
       <use xlink:href="#m656816e8c4" x="702.7625" y="445.864788" style="stroke: #000000; stroke-width: 0.8"/>
      </g>
     </g>
     <g id="text_57">
      <!-- 6 -->
      <g transform="translate(689.4 449.664007) scale(0.1 -0.1)">
       <use xlink:href="#DejaVuSans-36"/>
      </g>
     </g>
    </g>
    <g id="ytick_27">
     <g id="line2d_58">
      <g>
       <use xlink:href="#m656816e8c4" x="702.7625" y="404.755274" style="stroke: #000000; stroke-width: 0.8"/>
      </g>
     </g>
     <g id="text_58">
      <!-- 7 -->
      <g transform="translate(689.4 408.554493) scale(0.1 -0.1)">
       <use xlink:href="#DejaVuSans-37"/>
      </g>
     </g>
    </g>
   </g>
   <g id="line2d_59">
    <path d="M 732.509659 692.494367 
L 738.519186 692.49003 
L 744.528713 692.484941 
L 750.53824 692.47896 
L 756.547767 692.471919 
L 762.557295 692.463618 
L 768.566822 692.453816 
L 774.576349 692.442226 
L 780.585876 692.428502 
L 786.595403 692.412228 
L 792.60493 692.392905 
L 798.614457 692.369934 
L 804.623984 692.342592 
L 810.633511 692.310011 
L 816.643038 692.271145 
L 822.652565 692.224735 
L 828.662093 692.169266 
L 834.67162 692.102915 
L 840.681147 692.023488 
L 846.690674 691.928346 
L 852.700201 691.814319 
L 858.709728 691.677598 
L 864.719255 691.513618 
L 870.728782 691.316905 
L 876.738309 691.080913 
L 882.747836 690.797825 
L 888.757363 690.458323 
L 894.76689 690.051328 
L 900.776418 689.5637 
L 906.785945 688.979903 
L 912.795472 688.281628 
L 918.804999 687.447383 
L 924.814526 686.452046 
L 930.824053 685.266395 
L 936.83358 683.856625 
L 942.843107 682.183868 
L 948.852634 680.203749 
L 954.862161 677.866004 
L 960.871688 675.114211 
L 966.881216 671.885694 
L 972.890743 668.111662 
L 978.90027 663.717674 
L 984.909797 658.624529 
L 990.919324 652.749679 
L 996.928851 646.00928 
L 1002.938378 638.320996 
L 1008.947905 629.607659 
L 1014.957432 619.80184 
L 1020.966959 608.851386 
L 1026.976486 596.725871 
L 1032.986014 583.423856 
L 1038.995541 568.980716 
L 1045.005068 553.47668 
L 1051.014595 537.044568 
L 1057.024122 519.876575 
L 1063.033649 502.229294 
L 1069.043176 484.426077 
L 1075.052703 466.855789 
L 1081.06223 449.967041 
L 1087.071757 434.257176 
L 1093.081284 420.255544 
L 1099.090812 408.501087 
L 1105.100339 399.514787 
L 1111.109866 393.768262 
L 1117.119393 391.650446 
L 1123.12892 393.434986 
L 1129.138447 399.251441 
L 1135.147974 409.063591 
L 1141.157501 422.657941 
L 1147.167028 439.644894 
L 1153.176555 459.473957 
L 1159.186082 481.462895 
L 1165.19561 504.839065 
L 1171.205137 528.789545 
L 1177.214664 552.5153 
L 1183.224191 575.283865 
L 1189.233718 596.474988 
L 1195.243245 615.614435 
L 1201.252772 632.392712 
L 1207.262299 646.667472 
L 1213.271826 658.450567 
L 1219.281353 667.882692 
L 1225.29088 675.199951 
L 1231.300407 680.697312 
L 1237.309935 684.693637 
L 1243.319462 687.502067 
L 1249.328989 689.408067 
L 1255.338516 690.655933 
L 1261.348043 691.443156 
L 1267.35757 691.921108 
L 1273.367097 692.200022 
L 1279.376624 692.356257 
L 1285.386151 692.440144 
L 1291.395678 692.483256 
L 1297.405205 692.504432 
L 1303.414733 692.514356 
L 1309.42426 692.518788 
L 1315.433787 692.520669 
L 1321.443314 692.521428 
L 1327.452841 692.521718 
" clip-path="url(#pe8d3748b5b)" style="fill: none; stroke: #000000; stroke-width: 1.5; stroke-linecap: square"/>
   </g>
   <g id="patch_144">
    <path d="M 702.7625 692.521875 
L 702.7625 376.606875 
" style="fill: none; stroke: #000000; stroke-width: 0.8; stroke-linejoin: miter; stroke-linecap: square"/>
   </g>
   <g id="patch_145">
    <path d="M 1357.2 692.521875 
L 1357.2 376.606875 
" style="fill: none; stroke: #000000; stroke-width: 0.8; stroke-linejoin: miter; stroke-linecap: square"/>
   </g>
   <g id="patch_146">
    <path d="M 702.7625 692.521875 
L 1357.2 692.521875 
" style="fill: none; stroke: #000000; stroke-width: 0.8; stroke-linejoin: miter; stroke-linecap: square"/>
   </g>
   <g id="patch_147">
    <path d="M 702.7625 376.606875 
L 1357.2 376.606875 
" style="fill: none; stroke: #000000; stroke-width: 0.8; stroke-linejoin: miter; stroke-linecap: square"/>
   </g>
   <g id="legend_4">
    <g id="patch_148">
     <path d="M 1286.3875 399.285 
L 1350.2 399.285 
Q 1352.2 399.285 1352.2 397.285 
L 1352.2 383.606875 
Q 1352.2 381.606875 1350.2 381.606875 
L 1286.3875 381.606875 
Q 1284.3875 381.606875 1284.3875 383.606875 
L 1284.3875 397.285 
Q 1284.3875 399.285 1286.3875 399.285 
z
" style="fill: #ffffff; opacity: 0.8; stroke: #cccccc; stroke-linejoin: miter"/>
    </g>
    <g id="patch_149">
     <path d="M 1288.3875 393.205313 
L 1308.3875 393.205313 
L 1308.3875 386.205313 
L 1288.3875 386.205313 
z
" style="fill: #da70d6"/>
    </g>
    <g id="text_59">
     <!-- 10000 -->
     <g transform="translate(1316.3875 393.205313) scale(0.1 -0.1)">
      <use xlink:href="#DejaVuSans-31"/>
      <use xlink:href="#DejaVuSans-30" x="63.623047"/>
      <use xlink:href="#DejaVuSans-30" x="127.246094"/>
      <use xlink:href="#DejaVuSans-30" x="190.869141"/>
      <use xlink:href="#DejaVuSans-30" x="254.492188"/>
     </g>
    </g>
   </g>
  </g>
  <g id="text_60">
   <!-- inverse function -->
   <g transform="translate(635.5875 23.518125) scale(0.12 -0.12)">
    <defs>
     <path id="DejaVuSans-69" d="M 603 3500 
L 1178 3500 
L 1178 0 
L 603 0 
L 603 3500 
z
M 603 4863 
L 1178 4863 
L 1178 4134 
L 603 4134 
L 603 4863 
z
" transform="scale(0.015625)"/>
     <path id="DejaVuSans-6e" d="M 3513 2113 
L 3513 0 
L 2938 0 
L 2938 2094 
Q 2938 2591 2744 2837 
Q 2550 3084 2163 3084 
Q 1697 3084 1428 2787 
Q 1159 2491 1159 1978 
L 1159 0 
L 581 0 
L 581 3500 
L 1159 3500 
L 1159 2956 
Q 1366 3272 1645 3428 
Q 1925 3584 2291 3584 
Q 2894 3584 3203 3211 
Q 3513 2838 3513 2113 
z
" transform="scale(0.015625)"/>
     <path id="DejaVuSans-76" d="M 191 3500 
L 800 3500 
L 1894 563 
L 2988 3500 
L 3597 3500 
L 2284 0 
L 1503 0 
L 191 3500 
z
" transform="scale(0.015625)"/>
     <path id="DejaVuSans-65" d="M 3597 1894 
L 3597 1613 
L 953 1613 
Q 991 1019 1311 708 
Q 1631 397 2203 397 
Q 2534 397 2845 478 
Q 3156 559 3463 722 
L 3463 178 
Q 3153 47 2828 -22 
Q 2503 -91 2169 -91 
Q 1331 -91 842 396 
Q 353 884 353 1716 
Q 353 2575 817 3079 
Q 1281 3584 2069 3584 
Q 2775 3584 3186 3129 
Q 3597 2675 3597 1894 
z
M 3022 2063 
Q 3016 2534 2758 2815 
Q 2500 3097 2075 3097 
Q 1594 3097 1305 2825 
Q 1016 2553 972 2059 
L 3022 2063 
z
" transform="scale(0.015625)"/>
     <path id="DejaVuSans-72" d="M 2631 2963 
Q 2534 3019 2420 3045 
Q 2306 3072 2169 3072 
Q 1681 3072 1420 2755 
Q 1159 2438 1159 1844 
L 1159 0 
L 581 0 
L 581 3500 
L 1159 3500 
L 1159 2956 
Q 1341 3275 1631 3429 
Q 1922 3584 2338 3584 
Q 2397 3584 2469 3576 
Q 2541 3569 2628 3553 
L 2631 2963 
z
" transform="scale(0.015625)"/>
     <path id="DejaVuSans-73" d="M 2834 3397 
L 2834 2853 
Q 2591 2978 2328 3040 
Q 2066 3103 1784 3103 
Q 1356 3103 1142 2972 
Q 928 2841 928 2578 
Q 928 2378 1081 2264 
Q 1234 2150 1697 2047 
L 1894 2003 
Q 2506 1872 2764 1633 
Q 3022 1394 3022 966 
Q 3022 478 2636 193 
Q 2250 -91 1575 -91 
Q 1294 -91 989 -36 
Q 684 19 347 128 
L 347 722 
Q 666 556 975 473 
Q 1284 391 1588 391 
Q 1994 391 2212 530 
Q 2431 669 2431 922 
Q 2431 1156 2273 1281 
Q 2116 1406 1581 1522 
L 1381 1569 
Q 847 1681 609 1914 
Q 372 2147 372 2553 
Q 372 3047 722 3315 
Q 1072 3584 1716 3584 
Q 2034 3584 2315 3537 
Q 2597 3491 2834 3397 
z
" transform="scale(0.015625)"/>
     <path id="DejaVuSans-20" transform="scale(0.015625)"/>
     <path id="DejaVuSans-66" d="M 2375 4863 
L 2375 4384 
L 1825 4384 
Q 1516 4384 1395 4259 
Q 1275 4134 1275 3809 
L 1275 3500 
L 2222 3500 
L 2222 3053 
L 1275 3053 
L 1275 0 
L 697 0 
L 697 3053 
L 147 3053 
L 147 3500 
L 697 3500 
L 697 3744 
Q 697 4328 969 4595 
Q 1241 4863 1831 4863 
L 2375 4863 
z
" transform="scale(0.015625)"/>
     <path id="DejaVuSans-75" d="M 544 1381 
L 544 3500 
L 1119 3500 
L 1119 1403 
Q 1119 906 1312 657 
Q 1506 409 1894 409 
Q 2359 409 2629 706 
Q 2900 1003 2900 1516 
L 2900 3500 
L 3475 3500 
L 3475 0 
L 2900 0 
L 2900 538 
Q 2691 219 2414 64 
Q 2138 -91 1772 -91 
Q 1169 -91 856 284 
Q 544 659 544 1381 
z
M 1991 3584 
L 1991 3584 
z
" transform="scale(0.015625)"/>
     <path id="DejaVuSans-63" d="M 3122 3366 
L 3122 2828 
Q 2878 2963 2633 3030 
Q 2388 3097 2138 3097 
Q 1578 3097 1268 2742 
Q 959 2388 959 1747 
Q 959 1106 1268 751 
Q 1578 397 2138 397 
Q 2388 397 2633 464 
Q 2878 531 3122 666 
L 3122 134 
Q 2881 22 2623 -34 
Q 2366 -91 2075 -91 
Q 1284 -91 818 406 
Q 353 903 353 1747 
Q 353 2603 823 3093 
Q 1294 3584 2113 3584 
Q 2378 3584 2631 3529 
Q 2884 3475 3122 3366 
z
" transform="scale(0.015625)"/>
     <path id="DejaVuSans-74" d="M 1172 4494 
L 1172 3500 
L 2356 3500 
L 2356 3053 
L 1172 3053 
L 1172 1153 
Q 1172 725 1289 603 
Q 1406 481 1766 481 
L 2356 481 
L 2356 0 
L 1766 0 
Q 1100 0 847 248 
Q 594 497 594 1153 
L 594 3053 
L 172 3053 
L 172 3500 
L 594 3500 
L 594 4494 
L 1172 4494 
z
" transform="scale(0.015625)"/>
     <path id="DejaVuSans-6f" d="M 1959 3097 
Q 1497 3097 1228 2736 
Q 959 2375 959 1747 
Q 959 1119 1226 758 
Q 1494 397 1959 397 
Q 2419 397 2687 759 
Q 2956 1122 2956 1747 
Q 2956 2369 2687 2733 
Q 2419 3097 1959 3097 
z
M 1959 3584 
Q 2709 3584 3137 3096 
Q 3566 2609 3566 1747 
Q 3566 888 3137 398 
Q 2709 -91 1959 -91 
Q 1206 -91 779 398 
Q 353 888 353 1747 
Q 353 2609 779 3096 
Q 1206 3584 1959 3584 
z
" transform="scale(0.015625)"/>
    </defs>
    <use xlink:href="#DejaVuSans-69"/>
    <use xlink:href="#DejaVuSans-6e" x="27.783203"/>
    <use xlink:href="#DejaVuSans-76" x="91.162109"/>
    <use xlink:href="#DejaVuSans-65" x="150.341797"/>
    <use xlink:href="#DejaVuSans-72" x="211.865234"/>
    <use xlink:href="#DejaVuSans-73" x="252.978516"/>
    <use xlink:href="#DejaVuSans-65" x="305.078125"/>
    <use xlink:href="#DejaVuSans-20" x="366.601562"/>
    <use xlink:href="#DejaVuSans-66" x="398.388672"/>
    <use xlink:href="#DejaVuSans-75" x="433.59375"/>
    <use xlink:href="#DejaVuSans-6e" x="496.972656"/>
    <use xlink:href="#DejaVuSans-63" x="560.351562"/>
    <use xlink:href="#DejaVuSans-74" x="615.332031"/>
    <use xlink:href="#DejaVuSans-69" x="654.541016"/>
    <use xlink:href="#DejaVuSans-6f" x="682.324219"/>
    <use xlink:href="#DejaVuSans-6e" x="743.505859"/>
   </g>
  </g>
 </g>
 <defs>
  <clipPath id="p787755dc13">
   <rect x="24.1625" y="33.21375" width="654.4375" height="315.915"/>
  </clipPath>
  <clipPath id="p271768104c">
   <rect x="702.7625" y="33.21375" width="654.4375" height="315.915"/>
  </clipPath>
  <clipPath id="p184b594877">
   <rect x="24.1625" y="376.606875" width="654.4375" height="315.915"/>
  </clipPath>
  <clipPath id="pe8d3748b5b">
   <rect x="702.7625" y="376.606875" width="654.4375" height="315.915"/>
  </clipPath>
 </defs>
</svg>
