<?xml version="1.0" encoding="utf-8" standalone="no"?>
<!DOCTYPE svg PUBLIC "-//W3C//DTD SVG 1.1//EN"
  "http://www.w3.org/Graphics/SVG/1.1/DTD/svg11.dtd">
<svg xmlns:xlink="http://www.w3.org/1999/xlink" width="1368pt" height="720pt" viewBox="0 0 1368 720" xmlns="http://www.w3.org/2000/svg" version="1.1">
 <metadata>
  <rdf:RDF xmlns:dc="http://purl.org/dc/elements/1.1/" xmlns:cc="http://creativecommons.org/ns#" xmlns:rdf="http://www.w3.org/1999/02/22-rdf-syntax-ns#">
   <cc:Work>
    <dc:type rdf:resource="http://purl.org/dc/dcmitype/StillImage"/>
    <dc:date>2023-05-29T15:05:44.682330</dc:date>
    <dc:format>image/svg+xml</dc:format>
    <dc:creator>
     <cc:Agent>
      <dc:title>Matplotlib v3.7.0, https://matplotlib.org/</dc:title>
     </cc:Agent>
    </dc:creator>
   </cc:Work>
  </rdf:RDF>
 </metadata>
 <defs>
  <style type="text/css">*{stroke-linejoin: round; stroke-linecap: butt}</style>
 </defs>
 <g id="figure_1">
  <g id="patch_1">
   <path d="M 0 720 
L 1368 720 
L 1368 0 
L 0 0 
z
" style="fill: #ffffff"/>
  </g>
  <g id="axes_1">
   <g id="patch_2">
    <path d="M 30.525 349.12875 
L 681.78125 349.12875 
L 681.78125 33.21375 
L 30.525 33.21375 
z
" style="fill: #ffffff"/>
   </g>
   <g id="patch_3">
    <path d="M 200.620237 349.12875 
L 211.274228 349.12875 
L 211.274228 324.056131 
L 200.620237 324.056131 
z
" clip-path="url(#pa0d0c23290)" style="fill: #ff7f50"/>
   </g>
   <g id="patch_4">
    <path d="M 212.458005 349.12875 
L 223.111996 349.12875 
L 223.111996 349.12875 
L 212.458005 349.12875 
z
" clip-path="url(#pa0d0c23290)" style="fill: #ff7f50"/>
   </g>
   <g id="patch_5">
    <path d="M 224.295773 349.12875 
L 234.949764 349.12875 
L 234.949764 349.12875 
L 224.295773 349.12875 
z
" clip-path="url(#pa0d0c23290)" style="fill: #ff7f50"/>
   </g>
   <g id="patch_6">
    <path d="M 236.133541 349.12875 
L 246.787532 349.12875 
L 246.787532 349.12875 
L 236.133541 349.12875 
z
" clip-path="url(#pa0d0c23290)" style="fill: #ff7f50"/>
   </g>
   <g id="patch_7">
    <path d="M 247.971309 349.12875 
L 258.6253 349.12875 
L 258.6253 349.12875 
L 247.971309 349.12875 
z
" clip-path="url(#pa0d0c23290)" style="fill: #ff7f50"/>
   </g>
   <g id="patch_8">
    <path d="M 259.809076 349.12875 
L 270.463067 349.12875 
L 270.463067 349.12875 
L 259.809076 349.12875 
z
" clip-path="url(#pa0d0c23290)" style="fill: #ff7f50"/>
   </g>
   <g id="patch_9">
    <path d="M 271.646844 349.12875 
L 282.300835 349.12875 
L 282.300835 298.983512 
L 271.646844 298.983512 
z
" clip-path="url(#pa0d0c23290)" style="fill: #ff7f50"/>
   </g>
   <g id="patch_10">
    <path d="M 283.484612 349.12875 
L 294.138603 349.12875 
L 294.138603 324.056131 
L 283.484612 324.056131 
z
" clip-path="url(#pa0d0c23290)" style="fill: #ff7f50"/>
   </g>
   <g id="patch_11">
    <path d="M 295.32238 349.12875 
L 305.976371 349.12875 
L 305.976371 298.983512 
L 295.32238 298.983512 
z
" clip-path="url(#pa0d0c23290)" style="fill: #ff7f50"/>
   </g>
   <g id="patch_12">
    <path d="M 307.160148 349.12875 
L 317.814139 349.12875 
L 317.814139 324.056131 
L 307.160148 324.056131 
z
" clip-path="url(#pa0d0c23290)" style="fill: #ff7f50"/>
   </g>
   <g id="patch_13">
    <path d="M 318.997915 349.12875 
L 329.651906 349.12875 
L 329.651906 273.910893 
L 318.997915 273.910893 
z
" clip-path="url(#pa0d0c23290)" style="fill: #ff7f50"/>
   </g>
   <g id="patch_14">
    <path d="M 330.835683 349.12875 
L 341.489674 349.12875 
L 341.489674 324.056131 
L 330.835683 324.056131 
z
" clip-path="url(#pa0d0c23290)" style="fill: #ff7f50"/>
   </g>
   <g id="patch_15">
    <path d="M 342.673451 349.12875 
L 353.327442 349.12875 
L 353.327442 248.838274 
L 342.673451 248.838274 
z
" clip-path="url(#pa0d0c23290)" style="fill: #ff7f50"/>
   </g>
   <g id="patch_16">
    <path d="M 354.511219 349.12875 
L 365.16521 349.12875 
L 365.16521 298.983512 
L 354.511219 298.983512 
z
" clip-path="url(#pa0d0c23290)" style="fill: #ff7f50"/>
   </g>
   <g id="patch_17">
    <path d="M 366.348986 349.12875 
L 377.002977 349.12875 
L 377.002977 198.693036 
L 366.348986 198.693036 
z
" clip-path="url(#pa0d0c23290)" style="fill: #ff7f50"/>
   </g>
   <g id="patch_18">
    <path d="M 378.186754 349.12875 
L 388.840745 349.12875 
L 388.840745 198.693036 
L 378.186754 198.693036 
z
" clip-path="url(#pa0d0c23290)" style="fill: #ff7f50"/>
   </g>
   <g id="patch_19">
    <path d="M 390.024522 349.12875 
L 400.678513 349.12875 
L 400.678513 223.765655 
L 390.024522 223.765655 
z
" clip-path="url(#pa0d0c23290)" style="fill: #ff7f50"/>
   </g>
   <g id="patch_20">
    <path d="M 401.86229 349.12875 
L 412.516281 349.12875 
L 412.516281 148.547798 
L 401.86229 148.547798 
z
" clip-path="url(#pa0d0c23290)" style="fill: #ff7f50"/>
   </g>
   <g id="patch_21">
    <path d="M 413.700058 349.12875 
L 424.354049 349.12875 
L 424.354049 173.620417 
L 413.700058 173.620417 
z
" clip-path="url(#pa0d0c23290)" style="fill: #ff7f50"/>
   </g>
   <g id="patch_22">
    <path d="M 425.537825 349.12875 
L 436.191816 349.12875 
L 436.191816 173.620417 
L 425.537825 173.620417 
z
" clip-path="url(#pa0d0c23290)" style="fill: #ff7f50"/>
   </g>
   <g id="patch_23">
    <path d="M 437.375593 349.12875 
L 448.029584 349.12875 
L 448.029584 48.257321 
L 437.375593 48.257321 
z
" clip-path="url(#pa0d0c23290)" style="fill: #ff7f50"/>
   </g>
   <g id="patch_24">
    <path d="M 449.213361 349.12875 
L 459.867352 349.12875 
L 459.867352 248.838274 
L 449.213361 248.838274 
z
" clip-path="url(#pa0d0c23290)" style="fill: #ff7f50"/>
   </g>
   <g id="patch_25">
    <path d="M 461.051129 349.12875 
L 471.70512 349.12875 
L 471.70512 198.693036 
L 461.051129 198.693036 
z
" clip-path="url(#pa0d0c23290)" style="fill: #ff7f50"/>
   </g>
   <g id="patch_26">
    <path d="M 472.888897 349.12875 
L 483.542888 349.12875 
L 483.542888 173.620417 
L 472.888897 173.620417 
z
" clip-path="url(#pa0d0c23290)" style="fill: #ff7f50"/>
   </g>
   <g id="patch_27">
    <path d="M 484.726664 349.12875 
L 495.380655 349.12875 
L 495.380655 223.765655 
L 484.726664 223.765655 
z
" clip-path="url(#pa0d0c23290)" style="fill: #ff7f50"/>
   </g>
   <g id="patch_28">
    <path d="M 496.564432 349.12875 
L 507.218423 349.12875 
L 507.218423 298.983512 
L 496.564432 298.983512 
z
" clip-path="url(#pa0d0c23290)" style="fill: #ff7f50"/>
   </g>
   <g id="patch_29">
    <path d="M 508.4022 349.12875 
L 519.056191 349.12875 
L 519.056191 273.910893 
L 508.4022 273.910893 
z
" clip-path="url(#pa0d0c23290)" style="fill: #ff7f50"/>
   </g>
   <g id="patch_30">
    <path d="M 520.239968 349.12875 
L 530.893959 349.12875 
L 530.893959 298.983512 
L 520.239968 298.983512 
z
" clip-path="url(#pa0d0c23290)" style="fill: #ff7f50"/>
   </g>
   <g id="patch_31">
    <path d="M 532.077735 349.12875 
L 542.731726 349.12875 
L 542.731726 324.056131 
L 532.077735 324.056131 
z
" clip-path="url(#pa0d0c23290)" style="fill: #ff7f50"/>
   </g>
   <g id="patch_32">
    <path d="M 543.915503 349.12875 
L 554.569494 349.12875 
L 554.569494 298.983512 
L 543.915503 298.983512 
z
" clip-path="url(#pa0d0c23290)" style="fill: #ff7f50"/>
   </g>
   <g id="matplotlib.axis_1">
    <g id="xtick_1">
     <g id="line2d_1">
      <defs>
       <path id="m9f162b00ce" d="M 0 0 
L 0 3.5 
" style="stroke: #000000; stroke-width: 0.8"/>
      </defs>
      <g>
       <use xlink:href="#m9f162b00ce" x="60.127557" y="349.12875" style="stroke: #000000; stroke-width: 0.8"/>
      </g>
     </g>
     <g id="text_1">
      <!-- 1.0 -->
      <g transform="translate(52.175994 363.727188) scale(0.1 -0.1)">
       <defs>
        <path id="DejaVuSans-31" d="M 794 531 
L 1825 531 
L 1825 4091 
L 703 3866 
L 703 4441 
L 1819 4666 
L 2450 4666 
L 2450 531 
L 3481 531 
L 3481 0 
L 794 0 
L 794 531 
z
" transform="scale(0.015625)"/>
        <path id="DejaVuSans-2e" d="M 684 794 
L 1344 794 
L 1344 0 
L 684 0 
L 684 794 
z
" transform="scale(0.015625)"/>
        <path id="DejaVuSans-30" d="M 2034 4250 
Q 1547 4250 1301 3770 
Q 1056 3291 1056 2328 
Q 1056 1369 1301 889 
Q 1547 409 2034 409 
Q 2525 409 2770 889 
Q 3016 1369 3016 2328 
Q 3016 3291 2770 3770 
Q 2525 4250 2034 4250 
z
M 2034 4750 
Q 2819 4750 3233 4129 
Q 3647 3509 3647 2328 
Q 3647 1150 3233 529 
Q 2819 -91 2034 -91 
Q 1250 -91 836 529 
Q 422 1150 422 2328 
Q 422 3509 836 4129 
Q 1250 4750 2034 4750 
z
" transform="scale(0.015625)"/>
       </defs>
       <use xlink:href="#DejaVuSans-31"/>
       <use xlink:href="#DejaVuSans-2e" x="63.623047"/>
       <use xlink:href="#DejaVuSans-30" x="95.410156"/>
      </g>
     </g>
    </g>
    <g id="xtick_2">
     <g id="line2d_2">
      <g>
       <use xlink:href="#m9f162b00ce" x="158.802746" y="349.12875" style="stroke: #000000; stroke-width: 0.8"/>
      </g>
     </g>
     <g id="text_2">
      <!-- 1.1 -->
      <g transform="translate(150.851184 363.727188) scale(0.1 -0.1)">
       <use xlink:href="#DejaVuSans-31"/>
       <use xlink:href="#DejaVuSans-2e" x="63.623047"/>
       <use xlink:href="#DejaVuSans-31" x="95.410156"/>
      </g>
     </g>
    </g>
    <g id="xtick_3">
     <g id="line2d_3">
      <g>
       <use xlink:href="#m9f162b00ce" x="257.477936" y="349.12875" style="stroke: #000000; stroke-width: 0.8"/>
      </g>
     </g>
     <g id="text_3">
      <!-- 1.2 -->
      <g transform="translate(249.526373 363.727188) scale(0.1 -0.1)">
       <defs>
        <path id="DejaVuSans-32" d="M 1228 531 
L 3431 531 
L 3431 0 
L 469 0 
L 469 531 
Q 828 903 1448 1529 
Q 2069 2156 2228 2338 
Q 2531 2678 2651 2914 
Q 2772 3150 2772 3378 
Q 2772 3750 2511 3984 
Q 2250 4219 1831 4219 
Q 1534 4219 1204 4116 
Q 875 4013 500 3803 
L 500 4441 
Q 881 4594 1212 4672 
Q 1544 4750 1819 4750 
Q 2544 4750 2975 4387 
Q 3406 4025 3406 3419 
Q 3406 3131 3298 2873 
Q 3191 2616 2906 2266 
Q 2828 2175 2409 1742 
Q 1991 1309 1228 531 
z
" transform="scale(0.015625)"/>
       </defs>
       <use xlink:href="#DejaVuSans-31"/>
       <use xlink:href="#DejaVuSans-2e" x="63.623047"/>
       <use xlink:href="#DejaVuSans-32" x="95.410156"/>
      </g>
     </g>
    </g>
    <g id="xtick_4">
     <g id="line2d_4">
      <g>
       <use xlink:href="#m9f162b00ce" x="356.153125" y="349.12875" style="stroke: #000000; stroke-width: 0.8"/>
      </g>
     </g>
     <g id="text_4">
      <!-- 1.3 -->
      <g transform="translate(348.201562 363.727188) scale(0.1 -0.1)">
       <defs>
        <path id="DejaVuSans-33" d="M 2597 2516 
Q 3050 2419 3304 2112 
Q 3559 1806 3559 1356 
Q 3559 666 3084 287 
Q 2609 -91 1734 -91 
Q 1441 -91 1130 -33 
Q 819 25 488 141 
L 488 750 
Q 750 597 1062 519 
Q 1375 441 1716 441 
Q 2309 441 2620 675 
Q 2931 909 2931 1356 
Q 2931 1769 2642 2001 
Q 2353 2234 1838 2234 
L 1294 2234 
L 1294 2753 
L 1863 2753 
Q 2328 2753 2575 2939 
Q 2822 3125 2822 3475 
Q 2822 3834 2567 4026 
Q 2313 4219 1838 4219 
Q 1578 4219 1281 4162 
Q 984 4106 628 3988 
L 628 4550 
Q 988 4650 1302 4700 
Q 1616 4750 1894 4750 
Q 2613 4750 3031 4423 
Q 3450 4097 3450 3541 
Q 3450 3153 3228 2886 
Q 3006 2619 2597 2516 
z
" transform="scale(0.015625)"/>
       </defs>
       <use xlink:href="#DejaVuSans-31"/>
       <use xlink:href="#DejaVuSans-2e" x="63.623047"/>
       <use xlink:href="#DejaVuSans-33" x="95.410156"/>
      </g>
     </g>
    </g>
    <g id="xtick_5">
     <g id="line2d_5">
      <g>
       <use xlink:href="#m9f162b00ce" x="454.828314" y="349.12875" style="stroke: #000000; stroke-width: 0.8"/>
      </g>
     </g>
     <g id="text_5">
      <!-- 1.4 -->
      <g transform="translate(446.876752 363.727188) scale(0.1 -0.1)">
       <defs>
        <path id="DejaVuSans-34" d="M 2419 4116 
L 825 1625 
L 2419 1625 
L 2419 4116 
z
M 2253 4666 
L 3047 4666 
L 3047 1625 
L 3713 1625 
L 3713 1100 
L 3047 1100 
L 3047 0 
L 2419 0 
L 2419 1100 
L 313 1100 
L 313 1709 
L 2253 4666 
z
" transform="scale(0.015625)"/>
       </defs>
       <use xlink:href="#DejaVuSans-31"/>
       <use xlink:href="#DejaVuSans-2e" x="63.623047"/>
       <use xlink:href="#DejaVuSans-34" x="95.410156"/>
      </g>
     </g>
    </g>
    <g id="xtick_6">
     <g id="line2d_6">
      <g>
       <use xlink:href="#m9f162b00ce" x="553.503504" y="349.12875" style="stroke: #000000; stroke-width: 0.8"/>
      </g>
     </g>
     <g id="text_6">
      <!-- 1.5 -->
      <g transform="translate(545.551941 363.727188) scale(0.1 -0.1)">
       <defs>
        <path id="DejaVuSans-35" d="M 691 4666 
L 3169 4666 
L 3169 4134 
L 1269 4134 
L 1269 2991 
Q 1406 3038 1543 3061 
Q 1681 3084 1819 3084 
Q 2600 3084 3056 2656 
Q 3513 2228 3513 1497 
Q 3513 744 3044 326 
Q 2575 -91 1722 -91 
Q 1428 -91 1123 -41 
Q 819 9 494 109 
L 494 744 
Q 775 591 1075 516 
Q 1375 441 1709 441 
Q 2250 441 2565 725 
Q 2881 1009 2881 1497 
Q 2881 1984 2565 2268 
Q 2250 2553 1709 2553 
Q 1456 2553 1204 2497 
Q 953 2441 691 2322 
L 691 4666 
z
" transform="scale(0.015625)"/>
       </defs>
       <use xlink:href="#DejaVuSans-31"/>
       <use xlink:href="#DejaVuSans-2e" x="63.623047"/>
       <use xlink:href="#DejaVuSans-35" x="95.410156"/>
      </g>
     </g>
    </g>
    <g id="xtick_7">
     <g id="line2d_7">
      <g>
       <use xlink:href="#m9f162b00ce" x="652.178693" y="349.12875" style="stroke: #000000; stroke-width: 0.8"/>
      </g>
     </g>
     <g id="text_7">
      <!-- 1.6 -->
      <g transform="translate(644.227131 363.727188) scale(0.1 -0.1)">
       <defs>
        <path id="DejaVuSans-36" d="M 2113 2584 
Q 1688 2584 1439 2293 
Q 1191 2003 1191 1497 
Q 1191 994 1439 701 
Q 1688 409 2113 409 
Q 2538 409 2786 701 
Q 3034 994 3034 1497 
Q 3034 2003 2786 2293 
Q 2538 2584 2113 2584 
z
M 3366 4563 
L 3366 3988 
Q 3128 4100 2886 4159 
Q 2644 4219 2406 4219 
Q 1781 4219 1451 3797 
Q 1122 3375 1075 2522 
Q 1259 2794 1537 2939 
Q 1816 3084 2150 3084 
Q 2853 3084 3261 2657 
Q 3669 2231 3669 1497 
Q 3669 778 3244 343 
Q 2819 -91 2113 -91 
Q 1303 -91 875 529 
Q 447 1150 447 2328 
Q 447 3434 972 4092 
Q 1497 4750 2381 4750 
Q 2619 4750 2861 4703 
Q 3103 4656 3366 4563 
z
" transform="scale(0.015625)"/>
       </defs>
       <use xlink:href="#DejaVuSans-31"/>
       <use xlink:href="#DejaVuSans-2e" x="63.623047"/>
       <use xlink:href="#DejaVuSans-36" x="95.410156"/>
      </g>
     </g>
    </g>
   </g>
   <g id="matplotlib.axis_2">
    <g id="ytick_1">
     <g id="line2d_8">
      <defs>
       <path id="m1344532f78" d="M 0 0 
L -3.5 0 
" style="stroke: #000000; stroke-width: 0.8"/>
      </defs>
      <g>
       <use xlink:href="#m1344532f78" x="30.525" y="349.12875" style="stroke: #000000; stroke-width: 0.8"/>
      </g>
     </g>
     <g id="text_8">
      <!-- 0 -->
      <g transform="translate(17.1625 352.927969) scale(0.1 -0.1)">
       <use xlink:href="#DejaVuSans-30"/>
      </g>
     </g>
    </g>
    <g id="ytick_2">
     <g id="line2d_9">
      <g>
       <use xlink:href="#m1344532f78" x="30.525" y="288.971005" style="stroke: #000000; stroke-width: 0.8"/>
      </g>
     </g>
     <g id="text_9">
      <!-- 2 -->
      <g transform="translate(17.1625 292.770224) scale(0.1 -0.1)">
       <use xlink:href="#DejaVuSans-32"/>
      </g>
     </g>
    </g>
    <g id="ytick_3">
     <g id="line2d_10">
      <g>
       <use xlink:href="#m1344532f78" x="30.525" y="228.813261" style="stroke: #000000; stroke-width: 0.8"/>
      </g>
     </g>
     <g id="text_10">
      <!-- 4 -->
      <g transform="translate(17.1625 232.61248) scale(0.1 -0.1)">
       <use xlink:href="#DejaVuSans-34"/>
      </g>
     </g>
    </g>
    <g id="ytick_4">
     <g id="line2d_11">
      <g>
       <use xlink:href="#m1344532f78" x="30.525" y="168.655516" style="stroke: #000000; stroke-width: 0.8"/>
      </g>
     </g>
     <g id="text_11">
      <!-- 6 -->
      <g transform="translate(17.1625 172.454735) scale(0.1 -0.1)">
       <use xlink:href="#DejaVuSans-36"/>
      </g>
     </g>
    </g>
    <g id="ytick_5">
     <g id="line2d_12">
      <g>
       <use xlink:href="#m1344532f78" x="30.525" y="108.497772" style="stroke: #000000; stroke-width: 0.8"/>
      </g>
     </g>
     <g id="text_12">
      <!-- 8 -->
      <g transform="translate(17.1625 112.29699) scale(0.1 -0.1)">
       <defs>
        <path id="DejaVuSans-38" d="M 2034 2216 
Q 1584 2216 1326 1975 
Q 1069 1734 1069 1313 
Q 1069 891 1326 650 
Q 1584 409 2034 409 
Q 2484 409 2743 651 
Q 3003 894 3003 1313 
Q 3003 1734 2745 1975 
Q 2488 2216 2034 2216 
z
M 1403 2484 
Q 997 2584 770 2862 
Q 544 3141 544 3541 
Q 544 4100 942 4425 
Q 1341 4750 2034 4750 
Q 2731 4750 3128 4425 
Q 3525 4100 3525 3541 
Q 3525 3141 3298 2862 
Q 3072 2584 2669 2484 
Q 3125 2378 3379 2068 
Q 3634 1759 3634 1313 
Q 3634 634 3220 271 
Q 2806 -91 2034 -91 
Q 1263 -91 848 271 
Q 434 634 434 1313 
Q 434 1759 690 2068 
Q 947 2378 1403 2484 
z
M 1172 3481 
Q 1172 3119 1398 2916 
Q 1625 2713 2034 2713 
Q 2441 2713 2670 2916 
Q 2900 3119 2900 3481 
Q 2900 3844 2670 4047 
Q 2441 4250 2034 4250 
Q 1625 4250 1398 4047 
Q 1172 3844 1172 3481 
z
" transform="scale(0.015625)"/>
       </defs>
       <use xlink:href="#DejaVuSans-38"/>
      </g>
     </g>
    </g>
    <g id="ytick_6">
     <g id="line2d_13">
      <g>
       <use xlink:href="#m1344532f78" x="30.525" y="48.340027" style="stroke: #000000; stroke-width: 0.8"/>
      </g>
     </g>
     <g id="text_13">
      <!-- 10 -->
      <g transform="translate(10.8 52.139246) scale(0.1 -0.1)">
       <use xlink:href="#DejaVuSans-31"/>
       <use xlink:href="#DejaVuSans-30" x="63.623047"/>
      </g>
     </g>
    </g>
   </g>
   <g id="line2d_14">
    <path d="M 60.127557 349.108623 
L 66.107871 349.10545 
L 72.088186 349.101726 
L 78.0685 349.09735 
L 84.048815 349.092198 
L 90.029129 349.086124 
L 96.009444 349.078953 
L 101.989758 349.070473 
L 107.970073 349.060431 
L 113.950387 349.048524 
L 119.930702 349.034386 
L 125.911016 349.017578 
L 131.891331 348.997573 
L 137.871645 348.973734 
L 143.85196 348.945297 
L 149.832274 348.91134 
L 155.812589 348.870754 
L 161.792903 348.822207 
L 167.773218 348.764092 
L 173.753532 348.694479 
L 179.733847 348.611048 
L 185.714162 348.511013 
L 191.694476 348.391032 
L 197.674791 348.247101 
L 203.655105 348.074432 
L 209.63542 347.867303 
L 215.615734 347.618897 
L 221.596049 347.321108 
L 227.576363 346.964322 
L 233.556678 346.537171 
L 239.536992 346.02626 
L 245.517307 345.415863 
L 251.497621 344.687598 
L 257.477936 343.820085 
L 263.45825 342.788589 
L 269.438565 341.564672 
L 275.418879 340.115865 
L 281.399194 338.405391 
L 287.379508 336.391969 
L 293.359823 334.029738 
L 299.340137 331.268366 
L 305.320452 328.053388 
L 311.300766 324.326853 
L 317.281081 320.028363 
L 323.261395 315.096569 
L 329.24171 309.471232 
L 335.222024 303.095887 
L 341.202339 295.921198 
L 347.182653 287.909006 
L 353.162968 279.037049 
L 359.143282 269.304275 
L 365.123597 258.736567 
L 371.103911 247.392626 
L 377.084226 235.369633 
L 383.06454 222.808213 
L 389.044855 209.896109 
L 395.025169 196.869911 
L 401.005484 184.014141 
L 406.985798 171.657039 
L 412.966113 160.162497 
L 418.946427 149.91783 
L 424.926742 141.317368 
L 430.907056 134.742302 
L 436.887371 130.537704 
L 442.867685 128.988147 
L 448.848 130.293853 
L 454.828314 134.549618 
L 460.808629 141.728939 
L 466.788943 151.675608 
L 472.769258 164.104565 
L 478.749572 178.613028 
L 484.729887 194.70182 
L 490.710201 211.805618 
L 496.690516 229.329625 
L 502.67083 246.689206 
L 508.651145 263.348434 
L 514.631459 278.853484 
L 520.611774 292.857371 
L 526.592088 305.133645 
L 532.572403 315.578154 
L 538.552718 324.199569 
L 544.533032 331.100835 
L 550.513347 336.454703 
L 556.493661 340.476993 
L 562.473976 343.401011 
L 568.45429 345.455873 
L 574.434605 346.850449 
L 580.414919 347.763484 
L 586.395234 348.339477 
L 592.375548 348.689183 
L 598.355863 348.893258 
L 604.336177 349.007571 
L 610.316492 349.06895 
L 616.296806 349.100494 
L 622.277121 349.115987 
L 628.257435 349.123249 
L 634.23775 349.126491 
L 640.218064 349.127868 
L 646.198379 349.128423 
L 652.178693 349.128635 
" clip-path="url(#pa0d0c23290)" style="fill: none; stroke: #000000; stroke-width: 1.5; stroke-linecap: square"/>
   </g>
   <g id="patch_33">
    <path d="M 30.525 349.12875 
L 30.525 33.21375 
" style="fill: none; stroke: #000000; stroke-width: 0.8; stroke-linejoin: miter; stroke-linecap: square"/>
   </g>
   <g id="patch_34">
    <path d="M 681.78125 349.12875 
L 681.78125 33.21375 
" style="fill: none; stroke: #000000; stroke-width: 0.8; stroke-linejoin: miter; stroke-linecap: square"/>
   </g>
   <g id="patch_35">
    <path d="M 30.525 349.12875 
L 681.78125 349.12875 
" style="fill: none; stroke: #000000; stroke-width: 0.8; stroke-linejoin: miter; stroke-linecap: square"/>
   </g>
   <g id="patch_36">
    <path d="M 30.525 33.21375 
L 681.78125 33.21375 
" style="fill: none; stroke: #000000; stroke-width: 0.8; stroke-linejoin: miter; stroke-linecap: square"/>
   </g>
   <g id="legend_1">
    <g id="patch_37">
     <path d="M 623.69375 55.891875 
L 674.78125 55.891875 
Q 676.78125 55.891875 676.78125 53.891875 
L 676.78125 40.21375 
Q 676.78125 38.21375 674.78125 38.21375 
L 623.69375 38.21375 
Q 621.69375 38.21375 621.69375 40.21375 
L 621.69375 53.891875 
Q 621.69375 55.891875 623.69375 55.891875 
z
" style="fill: #ffffff; opacity: 0.8; stroke: #cccccc; stroke-linejoin: miter"/>
    </g>
    <g id="patch_38">
     <path d="M 625.69375 49.812188 
L 645.69375 49.812188 
L 645.69375 42.812188 
L 625.69375 42.812188 
z
" style="fill: #ff7f50"/>
    </g>
    <g id="text_14">
     <!-- 100 -->
     <g transform="translate(653.69375 49.812188) scale(0.1 -0.1)">
      <use xlink:href="#DejaVuSans-31"/>
      <use xlink:href="#DejaVuSans-30" x="63.623047"/>
      <use xlink:href="#DejaVuSans-30" x="127.246094"/>
     </g>
    </g>
   </g>
  </g>
  <g id="axes_2">
   <g id="patch_39">
    <path d="M 705.94375 349.12875 
L 1357.2 349.12875 
L 1357.2 33.21375 
L 705.94375 33.21375 
z
" style="fill: #ffffff"/>
   </g>
   <g id="patch_40">
    <path d="M 876.707947 349.12875 
L 887.927493 349.12875 
L 887.927493 341.606964 
L 876.707947 341.606964 
z
" clip-path="url(#p4416ee21a2)" style="fill: #ff7f50"/>
   </g>
   <g id="patch_41">
    <path d="M 889.174109 349.12875 
L 900.393655 349.12875 
L 900.393655 349.12875 
L 889.174109 349.12875 
z
" clip-path="url(#p4416ee21a2)" style="fill: #ff7f50"/>
   </g>
   <g id="patch_42">
    <path d="M 901.640271 349.12875 
L 912.859817 349.12875 
L 912.859817 349.12875 
L 901.640271 349.12875 
z
" clip-path="url(#p4416ee21a2)" style="fill: #ff7f50"/>
   </g>
   <g id="patch_43">
    <path d="M 914.106433 349.12875 
L 925.325979 349.12875 
L 925.325979 341.606964 
L 914.106433 341.606964 
z
" clip-path="url(#p4416ee21a2)" style="fill: #ff7f50"/>
   </g>
   <g id="patch_44">
    <path d="M 926.572595 349.12875 
L 937.792141 349.12875 
L 937.792141 349.12875 
L 926.572595 349.12875 
z
" clip-path="url(#p4416ee21a2)" style="fill: #ff7f50"/>
   </g>
   <g id="patch_45">
    <path d="M 939.038757 349.12875 
L 950.258302 349.12875 
L 950.258302 326.563393 
L 939.038757 326.563393 
z
" clip-path="url(#p4416ee21a2)" style="fill: #ff7f50"/>
   </g>
   <g id="patch_46">
    <path d="M 951.504919 349.12875 
L 962.724464 349.12875 
L 962.724464 341.606964 
L 951.504919 341.606964 
z
" clip-path="url(#p4416ee21a2)" style="fill: #ff7f50"/>
   </g>
   <g id="patch_47">
    <path d="M 963.971081 349.12875 
L 975.190626 349.12875 
L 975.190626 326.563393 
L 963.971081 326.563393 
z
" clip-path="url(#p4416ee21a2)" style="fill: #ff7f50"/>
   </g>
   <g id="patch_48">
    <path d="M 976.437243 349.12875 
L 987.656788 349.12875 
L 987.656788 326.563393 
L 976.437243 326.563393 
z
" clip-path="url(#p4416ee21a2)" style="fill: #ff7f50"/>
   </g>
   <g id="patch_49">
    <path d="M 988.903405 349.12875 
L 1000.12295 349.12875 
L 1000.12295 311.519821 
L 988.903405 311.519821 
z
" clip-path="url(#p4416ee21a2)" style="fill: #ff7f50"/>
   </g>
   <g id="patch_50">
    <path d="M 1001.369566 349.12875 
L 1012.589112 349.12875 
L 1012.589112 288.954464 
L 1001.369566 288.954464 
z
" clip-path="url(#p4416ee21a2)" style="fill: #ff7f50"/>
   </g>
   <g id="patch_51">
    <path d="M 1013.835728 349.12875 
L 1025.055274 349.12875 
L 1025.055274 288.954464 
L 1013.835728 288.954464 
z
" clip-path="url(#p4416ee21a2)" style="fill: #ff7f50"/>
   </g>
   <g id="patch_52">
    <path d="M 1026.30189 349.12875 
L 1037.521436 349.12875 
L 1037.521436 258.867321 
L 1026.30189 258.867321 
z
" clip-path="url(#p4416ee21a2)" style="fill: #ff7f50"/>
   </g>
   <g id="patch_53">
    <path d="M 1038.768052 349.12875 
L 1049.987598 349.12875 
L 1049.987598 243.82375 
L 1038.768052 243.82375 
z
" clip-path="url(#p4416ee21a2)" style="fill: #ff7f50"/>
   </g>
   <g id="patch_54">
    <path d="M 1051.234214 349.12875 
L 1062.45376 349.12875 
L 1062.45376 161.084107 
L 1051.234214 161.084107 
z
" clip-path="url(#p4416ee21a2)" style="fill: #ff7f50"/>
   </g>
   <g id="patch_55">
    <path d="M 1063.700376 349.12875 
L 1074.919922 349.12875 
L 1074.919922 168.605893 
L 1063.700376 168.605893 
z
" clip-path="url(#p4416ee21a2)" style="fill: #ff7f50"/>
   </g>
   <g id="patch_56">
    <path d="M 1076.166538 349.12875 
L 1087.386084 349.12875 
L 1087.386084 93.388036 
L 1076.166538 93.388036 
z
" clip-path="url(#p4416ee21a2)" style="fill: #ff7f50"/>
   </g>
   <g id="patch_57">
    <path d="M 1088.6327 349.12875 
L 1099.852246 349.12875 
L 1099.852246 100.909821 
L 1088.6327 100.909821 
z
" clip-path="url(#p4416ee21a2)" style="fill: #ff7f50"/>
   </g>
   <g id="patch_58">
    <path d="M 1101.098862 349.12875 
L 1112.318408 349.12875 
L 1112.318408 191.17125 
L 1101.098862 191.17125 
z
" clip-path="url(#p4416ee21a2)" style="fill: #ff7f50"/>
   </g>
   <g id="patch_59">
    <path d="M 1113.565024 349.12875 
L 1124.78457 349.12875 
L 1124.78457 63.300893 
L 1113.565024 63.300893 
z
" clip-path="url(#p4416ee21a2)" style="fill: #ff7f50"/>
   </g>
   <g id="patch_60">
    <path d="M 1126.031186 349.12875 
L 1137.250732 349.12875 
L 1137.250732 48.257321 
L 1126.031186 48.257321 
z
" clip-path="url(#p4416ee21a2)" style="fill: #ff7f50"/>
   </g>
   <g id="patch_61">
    <path d="M 1138.497348 349.12875 
L 1149.716894 349.12875 
L 1149.716894 70.822679 
L 1138.497348 70.822679 
z
" clip-path="url(#p4416ee21a2)" style="fill: #ff7f50"/>
   </g>
   <g id="patch_62">
    <path d="M 1150.96351 349.12875 
L 1162.183056 349.12875 
L 1162.183056 176.127679 
L 1150.96351 176.127679 
z
" clip-path="url(#p4416ee21a2)" style="fill: #ff7f50"/>
   </g>
   <g id="patch_63">
    <path d="M 1163.429672 349.12875 
L 1174.649218 349.12875 
L 1174.649218 251.345536 
L 1163.429672 251.345536 
z
" clip-path="url(#p4416ee21a2)" style="fill: #ff7f50"/>
   </g>
   <g id="patch_64">
    <path d="M 1175.895834 349.12875 
L 1187.11538 349.12875 
L 1187.11538 206.214821 
L 1175.895834 206.214821 
z
" clip-path="url(#p4416ee21a2)" style="fill: #ff7f50"/>
   </g>
   <g id="patch_65">
    <path d="M 1188.361996 349.12875 
L 1199.581542 349.12875 
L 1199.581542 236.301964 
L 1188.361996 236.301964 
z
" clip-path="url(#p4416ee21a2)" style="fill: #ff7f50"/>
   </g>
   <g id="patch_66">
    <path d="M 1200.828158 349.12875 
L 1212.047704 349.12875 
L 1212.047704 273.910893 
L 1200.828158 273.910893 
z
" clip-path="url(#p4416ee21a2)" style="fill: #ff7f50"/>
   </g>
   <g id="patch_67">
    <path d="M 1213.29432 349.12875 
L 1224.513865 349.12875 
L 1224.513865 311.519821 
L 1213.29432 311.519821 
z
" clip-path="url(#p4416ee21a2)" style="fill: #ff7f50"/>
   </g>
   <g id="patch_68">
    <path d="M 1225.760482 349.12875 
L 1236.980027 349.12875 
L 1236.980027 334.085179 
L 1225.760482 334.085179 
z
" clip-path="url(#p4416ee21a2)" style="fill: #ff7f50"/>
   </g>
   <g id="patch_69">
    <path d="M 1238.226644 349.12875 
L 1249.446189 349.12875 
L 1249.446189 334.085179 
L 1238.226644 334.085179 
z
" clip-path="url(#p4416ee21a2)" style="fill: #ff7f50"/>
   </g>
   <g id="matplotlib.axis_3">
    <g id="xtick_8">
     <g id="line2d_15">
      <g>
       <use xlink:href="#m9f162b00ce" x="735.546307" y="349.12875" style="stroke: #000000; stroke-width: 0.8"/>
      </g>
     </g>
     <g id="text_15">
      <!-- 1.0 -->
      <g transform="translate(727.594744 363.727188) scale(0.1 -0.1)">
       <use xlink:href="#DejaVuSans-31"/>
       <use xlink:href="#DejaVuSans-2e" x="63.623047"/>
       <use xlink:href="#DejaVuSans-30" x="95.410156"/>
      </g>
     </g>
    </g>
    <g id="xtick_9">
     <g id="line2d_16">
      <g>
       <use xlink:href="#m9f162b00ce" x="834.221496" y="349.12875" style="stroke: #000000; stroke-width: 0.8"/>
      </g>
     </g>
     <g id="text_16">
      <!-- 1.1 -->
      <g transform="translate(826.269934 363.727188) scale(0.1 -0.1)">
       <use xlink:href="#DejaVuSans-31"/>
       <use xlink:href="#DejaVuSans-2e" x="63.623047"/>
       <use xlink:href="#DejaVuSans-31" x="95.410156"/>
      </g>
     </g>
    </g>
    <g id="xtick_10">
     <g id="line2d_17">
      <g>
       <use xlink:href="#m9f162b00ce" x="932.896686" y="349.12875" style="stroke: #000000; stroke-width: 0.8"/>
      </g>
     </g>
     <g id="text_17">
      <!-- 1.2 -->
      <g transform="translate(924.945123 363.727188) scale(0.1 -0.1)">
       <use xlink:href="#DejaVuSans-31"/>
       <use xlink:href="#DejaVuSans-2e" x="63.623047"/>
       <use xlink:href="#DejaVuSans-32" x="95.410156"/>
      </g>
     </g>
    </g>
    <g id="xtick_11">
     <g id="line2d_18">
      <g>
       <use xlink:href="#m9f162b00ce" x="1031.571875" y="349.12875" style="stroke: #000000; stroke-width: 0.8"/>
      </g>
     </g>
     <g id="text_18">
      <!-- 1.3 -->
      <g transform="translate(1023.620313 363.727188) scale(0.1 -0.1)">
       <use xlink:href="#DejaVuSans-31"/>
       <use xlink:href="#DejaVuSans-2e" x="63.623047"/>
       <use xlink:href="#DejaVuSans-33" x="95.410156"/>
      </g>
     </g>
    </g>
    <g id="xtick_12">
     <g id="line2d_19">
      <g>
       <use xlink:href="#m9f162b00ce" x="1130.247064" y="349.12875" style="stroke: #000000; stroke-width: 0.8"/>
      </g>
     </g>
     <g id="text_19">
      <!-- 1.4 -->
      <g transform="translate(1122.295502 363.727188) scale(0.1 -0.1)">
       <use xlink:href="#DejaVuSans-31"/>
       <use xlink:href="#DejaVuSans-2e" x="63.623047"/>
       <use xlink:href="#DejaVuSans-34" x="95.410156"/>
      </g>
     </g>
    </g>
    <g id="xtick_13">
     <g id="line2d_20">
      <g>
       <use xlink:href="#m9f162b00ce" x="1228.922254" y="349.12875" style="stroke: #000000; stroke-width: 0.8"/>
      </g>
     </g>
     <g id="text_20">
      <!-- 1.5 -->
      <g transform="translate(1220.970691 363.727188) scale(0.1 -0.1)">
       <use xlink:href="#DejaVuSans-31"/>
       <use xlink:href="#DejaVuSans-2e" x="63.623047"/>
       <use xlink:href="#DejaVuSans-35" x="95.410156"/>
      </g>
     </g>
    </g>
    <g id="xtick_14">
     <g id="line2d_21">
      <g>
       <use xlink:href="#m9f162b00ce" x="1327.597443" y="349.12875" style="stroke: #000000; stroke-width: 0.8"/>
      </g>
     </g>
     <g id="text_21">
      <!-- 1.6 -->
      <g transform="translate(1319.645881 363.727188) scale(0.1 -0.1)">
       <use xlink:href="#DejaVuSans-31"/>
       <use xlink:href="#DejaVuSans-2e" x="63.623047"/>
       <use xlink:href="#DejaVuSans-36" x="95.410156"/>
      </g>
     </g>
    </g>
   </g>
   <g id="matplotlib.axis_4">
    <g id="ytick_7">
     <g id="line2d_22">
      <g>
       <use xlink:href="#m1344532f78" x="705.94375" y="349.12875" style="stroke: #000000; stroke-width: 0.8"/>
      </g>
     </g>
     <g id="text_22">
      <!-- 0 -->
      <g transform="translate(692.58125 352.927969) scale(0.1 -0.1)">
       <use xlink:href="#DejaVuSans-30"/>
      </g>
     </g>
    </g>
    <g id="ytick_8">
     <g id="line2d_23">
      <g>
       <use xlink:href="#m1344532f78" x="705.94375" y="311.118061" style="stroke: #000000; stroke-width: 0.8"/>
      </g>
     </g>
     <g id="text_23">
      <!-- 1 -->
      <g transform="translate(692.58125 314.91728) scale(0.1 -0.1)">
       <use xlink:href="#DejaVuSans-31"/>
      </g>
     </g>
    </g>
    <g id="ytick_9">
     <g id="line2d_24">
      <g>
       <use xlink:href="#m1344532f78" x="705.94375" y="273.107372" style="stroke: #000000; stroke-width: 0.8"/>
      </g>
     </g>
     <g id="text_24">
      <!-- 2 -->
      <g transform="translate(692.58125 276.90659) scale(0.1 -0.1)">
       <use xlink:href="#DejaVuSans-32"/>
      </g>
     </g>
    </g>
    <g id="ytick_10">
     <g id="line2d_25">
      <g>
       <use xlink:href="#m1344532f78" x="705.94375" y="235.096682" style="stroke: #000000; stroke-width: 0.8"/>
      </g>
     </g>
     <g id="text_25">
      <!-- 3 -->
      <g transform="translate(692.58125 238.895901) scale(0.1 -0.1)">
       <use xlink:href="#DejaVuSans-33"/>
      </g>
     </g>
    </g>
    <g id="ytick_11">
     <g id="line2d_26">
      <g>
       <use xlink:href="#m1344532f78" x="705.94375" y="197.085993" style="stroke: #000000; stroke-width: 0.8"/>
      </g>
     </g>
     <g id="text_26">
      <!-- 4 -->
      <g transform="translate(692.58125 200.885212) scale(0.1 -0.1)">
       <use xlink:href="#DejaVuSans-34"/>
      </g>
     </g>
    </g>
    <g id="ytick_12">
     <g id="line2d_27">
      <g>
       <use xlink:href="#m1344532f78" x="705.94375" y="159.075304" style="stroke: #000000; stroke-width: 0.8"/>
      </g>
     </g>
     <g id="text_27">
      <!-- 5 -->
      <g transform="translate(692.58125 162.874523) scale(0.1 -0.1)">
       <use xlink:href="#DejaVuSans-35"/>
      </g>
     </g>
    </g>
    <g id="ytick_13">
     <g id="line2d_28">
      <g>
       <use xlink:href="#m1344532f78" x="705.94375" y="121.064615" style="stroke: #000000; stroke-width: 0.8"/>
      </g>
     </g>
     <g id="text_28">
      <!-- 6 -->
      <g transform="translate(692.58125 124.863834) scale(0.1 -0.1)">
       <use xlink:href="#DejaVuSans-36"/>
      </g>
     </g>
    </g>
    <g id="ytick_14">
     <g id="line2d_29">
      <g>
       <use xlink:href="#m1344532f78" x="705.94375" y="83.053926" style="stroke: #000000; stroke-width: 0.8"/>
      </g>
     </g>
     <g id="text_29">
      <!-- 7 -->
      <g transform="translate(692.58125 86.853144) scale(0.1 -0.1)">
       <defs>
        <path id="DejaVuSans-37" d="M 525 4666 
L 3525 4666 
L 3525 4397 
L 1831 0 
L 1172 0 
L 2766 4134 
L 525 4134 
L 525 4666 
z
" transform="scale(0.015625)"/>
       </defs>
       <use xlink:href="#DejaVuSans-37"/>
      </g>
     </g>
    </g>
    <g id="ytick_15">
     <g id="line2d_30">
      <g>
       <use xlink:href="#m1344532f78" x="705.94375" y="45.043236" style="stroke: #000000; stroke-width: 0.8"/>
      </g>
     </g>
     <g id="text_30">
      <!-- 8 -->
      <g transform="translate(692.58125 48.842455) scale(0.1 -0.1)">
       <use xlink:href="#DejaVuSans-38"/>
      </g>
     </g>
    </g>
   </g>
   <g id="line2d_31">
    <path d="M 735.546307 349.103315 
L 741.526621 349.099305 
L 747.506936 349.0946 
L 753.48725 349.08907 
L 759.467565 349.08256 
L 765.447879 349.074884 
L 771.428194 349.065821 
L 777.408508 349.055105 
L 783.388823 349.042415 
L 789.369137 349.027368 
L 795.349452 349.009502 
L 801.329766 348.988262 
L 807.310081 348.962982 
L 813.290395 348.932856 
L 819.27071 348.89692 
L 825.251024 348.854008 
L 831.231339 348.802721 
L 837.211653 348.741371 
L 843.191968 348.667931 
L 849.172282 348.579961 
L 855.152597 348.474529 
L 861.132912 348.348115 
L 867.113226 348.196495 
L 873.093541 348.01461 
L 879.073855 347.796407 
L 885.05417 347.534658 
L 891.034484 347.220748 
L 897.014799 346.844432 
L 902.995113 346.393561 
L 908.975428 345.853771 
L 914.955742 345.208132 
L 920.936057 344.436772 
L 926.916371 343.516464 
L 932.896686 342.420187 
L 938.877 341.116684 
L 944.857315 339.57002 
L 950.837629 337.739161 
L 956.817944 335.577635 
L 962.798258 333.033272 
L 968.778573 330.04812 
L 974.758887 326.558573 
L 980.739202 322.495802 
L 986.719516 317.786578 
L 992.699831 312.354573 
L 998.680145 306.122263 
L 1004.66046 299.01352 
L 1010.640774 290.956993 
L 1016.621089 281.890334 
L 1022.601403 271.765322 
L 1028.581718 260.553825 
L 1034.562032 248.254513 
L 1040.542347 234.900094 
L 1046.522661 220.564748 
L 1052.502976 205.371285 
L 1058.48329 189.497411 
L 1064.463605 173.180377 
L 1070.443919 156.719163 
L 1076.424234 140.473318 
L 1082.404548 124.85764 
L 1088.384863 110.331981 
L 1094.365177 97.385789 
L 1100.345492 86.51738 
L 1106.325806 78.208465 
L 1112.306121 72.895112 
L 1118.286435 70.936937 
L 1124.26675 72.586958 
L 1130.247064 77.96497 
L 1136.227379 87.037483 
L 1142.207693 99.607094 
L 1148.188008 115.313575 
L 1154.168322 133.647928 
L 1160.148637 153.979345 
L 1166.128951 175.593425 
L 1172.109266 197.738524 
L 1178.08958 219.675836 
L 1184.069895 240.728113 
L 1190.050209 260.321854 
L 1196.030524 278.018574 
L 1202.010838 293.532109 
L 1207.991153 306.730841 
L 1213.971468 317.625729 
L 1219.951782 326.346862 
L 1225.932097 333.112549 
L 1231.912411 338.19552 
L 1237.892726 341.890603 
L 1243.87304 344.487334 
L 1249.853355 346.24966 
L 1255.833669 347.403462 
L 1261.813984 348.131345 
L 1267.794298 348.573268 
L 1273.774613 348.831158 
L 1279.754927 348.975616 
L 1285.735242 349.05318 
L 1291.715556 349.093043 
L 1297.695871 349.112622 
L 1303.676185 349.121798 
L 1309.6565 349.125895 
L 1315.636814 349.127635 
L 1321.617129 349.128337 
L 1327.597443 349.128605 
" clip-path="url(#p4416ee21a2)" style="fill: none; stroke: #000000; stroke-width: 1.5; stroke-linecap: square"/>
   </g>
   <g id="patch_70">
    <path d="M 705.94375 349.12875 
L 705.94375 33.21375 
" style="fill: none; stroke: #000000; stroke-width: 0.8; stroke-linejoin: miter; stroke-linecap: square"/>
   </g>
   <g id="patch_71">
    <path d="M 1357.2 349.12875 
L 1357.2 33.21375 
" style="fill: none; stroke: #000000; stroke-width: 0.8; stroke-linejoin: miter; stroke-linecap: square"/>
   </g>
   <g id="patch_72">
    <path d="M 705.94375 349.12875 
L 1357.2 349.12875 
" style="fill: none; stroke: #000000; stroke-width: 0.8; stroke-linejoin: miter; stroke-linecap: square"/>
   </g>
   <g id="patch_73">
    <path d="M 705.94375 33.21375 
L 1357.2 33.21375 
" style="fill: none; stroke: #000000; stroke-width: 0.8; stroke-linejoin: miter; stroke-linecap: square"/>
   </g>
   <g id="legend_2">
    <g id="patch_74">
     <path d="M 1299.1125 55.891875 
L 1350.2 55.891875 
Q 1352.2 55.891875 1352.2 53.891875 
L 1352.2 40.21375 
Q 1352.2 38.21375 1350.2 38.21375 
L 1299.1125 38.21375 
Q 1297.1125 38.21375 1297.1125 40.21375 
L 1297.1125 53.891875 
Q 1297.1125 55.891875 1299.1125 55.891875 
z
" style="fill: #ffffff; opacity: 0.8; stroke: #cccccc; stroke-linejoin: miter"/>
    </g>
    <g id="patch_75">
     <path d="M 1301.1125 49.812188 
L 1321.1125 49.812188 
L 1321.1125 42.812188 
L 1301.1125 42.812188 
z
" style="fill: #ff7f50"/>
    </g>
    <g id="text_31">
     <!-- 400 -->
     <g transform="translate(1329.1125 49.812188) scale(0.1 -0.1)">
      <use xlink:href="#DejaVuSans-34"/>
      <use xlink:href="#DejaVuSans-30" x="63.623047"/>
      <use xlink:href="#DejaVuSans-30" x="127.246094"/>
     </g>
    </g>
   </g>
  </g>
  <g id="axes_3">
   <g id="patch_76">
    <path d="M 30.525 692.521875 
L 681.78125 692.521875 
L 681.78125 376.606875 
L 30.525 376.606875 
z
" style="fill: #ffffff"/>
   </g>
   <g id="patch_77">
    <path d="M 147.300777 692.521875 
L 160.452087 692.521875 
L 160.452087 689.745847 
L 147.300777 689.745847 
z
" clip-path="url(#p9bcf5a9791)" style="fill: #ff7f50"/>
   </g>
   <g id="patch_78">
    <path d="M 161.913344 692.521875 
L 175.064654 692.521875 
L 175.064654 692.521875 
L 161.913344 692.521875 
z
" clip-path="url(#p9bcf5a9791)" style="fill: #ff7f50"/>
   </g>
   <g id="patch_79">
    <path d="M 176.525911 692.521875 
L 189.677221 692.521875 
L 189.677221 692.521875 
L 176.525911 692.521875 
z
" clip-path="url(#p9bcf5a9791)" style="fill: #ff7f50"/>
   </g>
   <g id="patch_80">
    <path d="M 191.138478 692.521875 
L 204.289788 692.521875 
L 204.289788 692.521875 
L 191.138478 692.521875 
z
" clip-path="url(#p9bcf5a9791)" style="fill: #ff7f50"/>
   </g>
   <g id="patch_81">
    <path d="M 205.751045 692.521875 
L 218.902355 692.521875 
L 218.902355 689.745847 
L 205.751045 689.745847 
z
" clip-path="url(#p9bcf5a9791)" style="fill: #ff7f50"/>
   </g>
   <g id="patch_82">
    <path d="M 220.363611 692.521875 
L 233.514921 692.521875 
L 233.514921 686.969819 
L 220.363611 686.969819 
z
" clip-path="url(#p9bcf5a9791)" style="fill: #ff7f50"/>
   </g>
   <g id="patch_83">
    <path d="M 234.976178 692.521875 
L 248.127488 692.521875 
L 248.127488 684.193792 
L 234.976178 684.193792 
z
" clip-path="url(#p9bcf5a9791)" style="fill: #ff7f50"/>
   </g>
   <g id="patch_84">
    <path d="M 249.588745 692.521875 
L 262.740055 692.521875 
L 262.740055 681.417764 
L 249.588745 681.417764 
z
" clip-path="url(#p9bcf5a9791)" style="fill: #ff7f50"/>
   </g>
   <g id="patch_85">
    <path d="M 264.201312 692.521875 
L 277.352622 692.521875 
L 277.352622 678.641736 
L 264.201312 678.641736 
z
" clip-path="url(#p9bcf5a9791)" style="fill: #ff7f50"/>
   </g>
   <g id="patch_86">
    <path d="M 278.813878 692.521875 
L 291.965189 692.521875 
L 291.965189 661.98557 
L 278.813878 661.98557 
z
" clip-path="url(#p9bcf5a9791)" style="fill: #ff7f50"/>
   </g>
   <g id="patch_87">
    <path d="M 293.426445 692.521875 
L 306.577755 692.521875 
L 306.577755 681.417764 
L 293.426445 681.417764 
z
" clip-path="url(#p9bcf5a9791)" style="fill: #ff7f50"/>
   </g>
   <g id="patch_88">
    <path d="M 308.039012 692.521875 
L 321.190322 692.521875 
L 321.190322 642.553375 
L 308.039012 642.553375 
z
" clip-path="url(#p9bcf5a9791)" style="fill: #ff7f50"/>
   </g>
   <g id="patch_89">
    <path d="M 322.651579 692.521875 
L 335.802889 692.521875 
L 335.802889 637.00132 
L 322.651579 637.00132 
z
" clip-path="url(#p9bcf5a9791)" style="fill: #ff7f50"/>
   </g>
   <g id="patch_90">
    <path d="M 337.264146 692.521875 
L 350.415456 692.521875 
L 350.415456 600.912959 
L 337.264146 600.912959 
z
" clip-path="url(#p9bcf5a9791)" style="fill: #ff7f50"/>
   </g>
   <g id="patch_91">
    <path d="M 351.876712 692.521875 
L 365.028023 692.521875 
L 365.028023 595.360903 
L 351.876712 595.360903 
z
" clip-path="url(#p9bcf5a9791)" style="fill: #ff7f50"/>
   </g>
   <g id="patch_92">
    <path d="M 366.489279 692.521875 
L 379.640589 692.521875 
L 379.640589 539.840348 
L 366.489279 539.840348 
z
" clip-path="url(#p9bcf5a9791)" style="fill: #ff7f50"/>
   </g>
   <g id="patch_93">
    <path d="M 381.101846 692.521875 
L 394.253156 692.521875 
L 394.253156 500.975959 
L 381.101846 500.975959 
z
" clip-path="url(#p9bcf5a9791)" style="fill: #ff7f50"/>
   </g>
   <g id="patch_94">
    <path d="M 395.714413 692.521875 
L 408.865723 692.521875 
L 408.865723 431.575265 
L 395.714413 431.575265 
z
" clip-path="url(#p9bcf5a9791)" style="fill: #ff7f50"/>
   </g>
   <g id="patch_95">
    <path d="M 410.32698 692.521875 
L 423.47829 692.521875 
L 423.47829 445.455403 
L 410.32698 445.455403 
z
" clip-path="url(#p9bcf5a9791)" style="fill: #ff7f50"/>
   </g>
   <g id="patch_96">
    <path d="M 424.939546 692.521875 
L 438.090857 692.521875 
L 438.090857 403.814987 
L 424.939546 403.814987 
z
" clip-path="url(#p9bcf5a9791)" style="fill: #ff7f50"/>
   </g>
   <g id="patch_97">
    <path d="M 439.552113 692.521875 
L 452.703423 692.521875 
L 452.703423 406.591015 
L 439.552113 406.591015 
z
" clip-path="url(#p9bcf5a9791)" style="fill: #ff7f50"/>
   </g>
   <g id="patch_98">
    <path d="M 454.16468 692.521875 
L 467.31599 692.521875 
L 467.31599 417.695126 
L 454.16468 417.695126 
z
" clip-path="url(#p9bcf5a9791)" style="fill: #ff7f50"/>
   </g>
   <g id="patch_99">
    <path d="M 468.777247 692.521875 
L 481.928557 692.521875 
L 481.928557 453.783487 
L 468.777247 453.783487 
z
" clip-path="url(#p9bcf5a9791)" style="fill: #ff7f50"/>
   </g>
   <g id="patch_100">
    <path d="M 483.389814 692.521875 
L 496.541124 692.521875 
L 496.541124 520.408153 
L 483.389814 520.408153 
z
" clip-path="url(#p9bcf5a9791)" style="fill: #ff7f50"/>
   </g>
   <g id="patch_101">
    <path d="M 498.00238 692.521875 
L 511.15369 692.521875 
L 511.15369 537.06432 
L 498.00238 537.06432 
z
" clip-path="url(#p9bcf5a9791)" style="fill: #ff7f50"/>
   </g>
   <g id="patch_102">
    <path d="M 512.614947 692.521875 
L 525.766257 692.521875 
L 525.766257 620.345153 
L 512.614947 620.345153 
z
" clip-path="url(#p9bcf5a9791)" style="fill: #ff7f50"/>
   </g>
   <g id="patch_103">
    <path d="M 527.227514 692.521875 
L 540.378824 692.521875 
L 540.378824 656.433514 
L 527.227514 656.433514 
z
" clip-path="url(#p9bcf5a9791)" style="fill: #ff7f50"/>
   </g>
   <g id="patch_104">
    <path d="M 541.840081 692.521875 
L 554.991391 692.521875 
L 554.991391 675.865708 
L 541.840081 675.865708 
z
" clip-path="url(#p9bcf5a9791)" style="fill: #ff7f50"/>
   </g>
   <g id="patch_105">
    <path d="M 556.452648 692.521875 
L 569.603958 692.521875 
L 569.603958 692.521875 
L 556.452648 692.521875 
z
" clip-path="url(#p9bcf5a9791)" style="fill: #ff7f50"/>
   </g>
   <g id="patch_106">
    <path d="M 571.065214 692.521875 
L 584.216524 692.521875 
L 584.216524 689.745847 
L 571.065214 689.745847 
z
" clip-path="url(#p9bcf5a9791)" style="fill: #ff7f50"/>
   </g>
   <g id="matplotlib.axis_5">
    <g id="xtick_15">
     <g id="line2d_32">
      <g>
       <use xlink:href="#m9f162b00ce" x="60.127557" y="692.521875" style="stroke: #000000; stroke-width: 0.8"/>
      </g>
     </g>
     <g id="text_32">
      <!-- 1.0 -->
      <g transform="translate(52.175994 707.120313) scale(0.1 -0.1)">
       <use xlink:href="#DejaVuSans-31"/>
       <use xlink:href="#DejaVuSans-2e" x="63.623047"/>
       <use xlink:href="#DejaVuSans-30" x="95.410156"/>
      </g>
     </g>
    </g>
    <g id="xtick_16">
     <g id="line2d_33">
      <g>
       <use xlink:href="#m9f162b00ce" x="158.802746" y="692.521875" style="stroke: #000000; stroke-width: 0.8"/>
      </g>
     </g>
     <g id="text_33">
      <!-- 1.1 -->
      <g transform="translate(150.851184 707.120313) scale(0.1 -0.1)">
       <use xlink:href="#DejaVuSans-31"/>
       <use xlink:href="#DejaVuSans-2e" x="63.623047"/>
       <use xlink:href="#DejaVuSans-31" x="95.410156"/>
      </g>
     </g>
    </g>
    <g id="xtick_17">
     <g id="line2d_34">
      <g>
       <use xlink:href="#m9f162b00ce" x="257.477936" y="692.521875" style="stroke: #000000; stroke-width: 0.8"/>
      </g>
     </g>
     <g id="text_34">
      <!-- 1.2 -->
      <g transform="translate(249.526373 707.120313) scale(0.1 -0.1)">
       <use xlink:href="#DejaVuSans-31"/>
       <use xlink:href="#DejaVuSans-2e" x="63.623047"/>
       <use xlink:href="#DejaVuSans-32" x="95.410156"/>
      </g>
     </g>
    </g>
    <g id="xtick_18">
     <g id="line2d_35">
      <g>
       <use xlink:href="#m9f162b00ce" x="356.153125" y="692.521875" style="stroke: #000000; stroke-width: 0.8"/>
      </g>
     </g>
     <g id="text_35">
      <!-- 1.3 -->
      <g transform="translate(348.201562 707.120313) scale(0.1 -0.1)">
       <use xlink:href="#DejaVuSans-31"/>
       <use xlink:href="#DejaVuSans-2e" x="63.623047"/>
       <use xlink:href="#DejaVuSans-33" x="95.410156"/>
      </g>
     </g>
    </g>
    <g id="xtick_19">
     <g id="line2d_36">
      <g>
       <use xlink:href="#m9f162b00ce" x="454.828314" y="692.521875" style="stroke: #000000; stroke-width: 0.8"/>
      </g>
     </g>
     <g id="text_36">
      <!-- 1.4 -->
      <g transform="translate(446.876752 707.120313) scale(0.1 -0.1)">
       <use xlink:href="#DejaVuSans-31"/>
       <use xlink:href="#DejaVuSans-2e" x="63.623047"/>
       <use xlink:href="#DejaVuSans-34" x="95.410156"/>
      </g>
     </g>
    </g>
    <g id="xtick_20">
     <g id="line2d_37">
      <g>
       <use xlink:href="#m9f162b00ce" x="553.503504" y="692.521875" style="stroke: #000000; stroke-width: 0.8"/>
      </g>
     </g>
     <g id="text_37">
      <!-- 1.5 -->
      <g transform="translate(545.551941 707.120313) scale(0.1 -0.1)">
       <use xlink:href="#DejaVuSans-31"/>
       <use xlink:href="#DejaVuSans-2e" x="63.623047"/>
       <use xlink:href="#DejaVuSans-35" x="95.410156"/>
      </g>
     </g>
    </g>
    <g id="xtick_21">
     <g id="line2d_38">
      <g>
       <use xlink:href="#m9f162b00ce" x="652.178693" y="692.521875" style="stroke: #000000; stroke-width: 0.8"/>
      </g>
     </g>
     <g id="text_38">
      <!-- 1.6 -->
      <g transform="translate(644.227131 707.120313) scale(0.1 -0.1)">
       <use xlink:href="#DejaVuSans-31"/>
       <use xlink:href="#DejaVuSans-2e" x="63.623047"/>
       <use xlink:href="#DejaVuSans-36" x="95.410156"/>
      </g>
     </g>
    </g>
   </g>
   <g id="matplotlib.axis_6">
    <g id="ytick_16">
     <g id="line2d_39">
      <g>
       <use xlink:href="#m1344532f78" x="30.525" y="692.521875" style="stroke: #000000; stroke-width: 0.8"/>
      </g>
     </g>
     <g id="text_39">
      <!-- 0 -->
      <g transform="translate(17.1625 696.321094) scale(0.1 -0.1)">
       <use xlink:href="#DejaVuSans-30"/>
      </g>
     </g>
    </g>
    <g id="ytick_17">
     <g id="line2d_40">
      <g>
       <use xlink:href="#m1344532f78" x="30.525" y="651.412361" style="stroke: #000000; stroke-width: 0.8"/>
      </g>
     </g>
     <g id="text_40">
      <!-- 1 -->
      <g transform="translate(17.1625 655.211579) scale(0.1 -0.1)">
       <use xlink:href="#DejaVuSans-31"/>
      </g>
     </g>
    </g>
    <g id="ytick_18">
     <g id="line2d_41">
      <g>
       <use xlink:href="#m1344532f78" x="30.525" y="610.302846" style="stroke: #000000; stroke-width: 0.8"/>
      </g>
     </g>
     <g id="text_41">
      <!-- 2 -->
      <g transform="translate(17.1625 614.102065) scale(0.1 -0.1)">
       <use xlink:href="#DejaVuSans-32"/>
      </g>
     </g>
    </g>
    <g id="ytick_19">
     <g id="line2d_42">
      <g>
       <use xlink:href="#m1344532f78" x="30.525" y="569.193332" style="stroke: #000000; stroke-width: 0.8"/>
      </g>
     </g>
     <g id="text_42">
      <!-- 3 -->
      <g transform="translate(17.1625 572.99255) scale(0.1 -0.1)">
       <use xlink:href="#DejaVuSans-33"/>
      </g>
     </g>
    </g>
    <g id="ytick_20">
     <g id="line2d_43">
      <g>
       <use xlink:href="#m1344532f78" x="30.525" y="528.083817" style="stroke: #000000; stroke-width: 0.8"/>
      </g>
     </g>
     <g id="text_43">
      <!-- 4 -->
      <g transform="translate(17.1625 531.883036) scale(0.1 -0.1)">
       <use xlink:href="#DejaVuSans-34"/>
      </g>
     </g>
    </g>
    <g id="ytick_21">
     <g id="line2d_44">
      <g>
       <use xlink:href="#m1344532f78" x="30.525" y="486.974303" style="stroke: #000000; stroke-width: 0.8"/>
      </g>
     </g>
     <g id="text_44">
      <!-- 5 -->
      <g transform="translate(17.1625 490.773522) scale(0.1 -0.1)">
       <use xlink:href="#DejaVuSans-35"/>
      </g>
     </g>
    </g>
    <g id="ytick_22">
     <g id="line2d_45">
      <g>
       <use xlink:href="#m1344532f78" x="30.525" y="445.864788" style="stroke: #000000; stroke-width: 0.8"/>
      </g>
     </g>
     <g id="text_45">
      <!-- 6 -->
      <g transform="translate(17.1625 449.664007) scale(0.1 -0.1)">
       <use xlink:href="#DejaVuSans-36"/>
      </g>
     </g>
    </g>
    <g id="ytick_23">
     <g id="line2d_46">
      <g>
       <use xlink:href="#m1344532f78" x="30.525" y="404.755274" style="stroke: #000000; stroke-width: 0.8"/>
      </g>
     </g>
     <g id="text_46">
      <!-- 7 -->
      <g transform="translate(17.1625 408.554493) scale(0.1 -0.1)">
       <use xlink:href="#DejaVuSans-37"/>
      </g>
     </g>
    </g>
   </g>
   <g id="line2d_47">
    <path d="M 60.127557 692.494367 
L 66.107871 692.49003 
L 72.088186 692.484941 
L 78.0685 692.47896 
L 84.048815 692.471919 
L 90.029129 692.463618 
L 96.009444 692.453816 
L 101.989758 692.442226 
L 107.970073 692.428502 
L 113.950387 692.412228 
L 119.930702 692.392905 
L 125.911016 692.369934 
L 131.891331 692.342592 
L 137.871645 692.310011 
L 143.85196 692.271145 
L 149.832274 692.224735 
L 155.812589 692.169266 
L 161.792903 692.102915 
L 167.773218 692.023488 
L 173.753532 691.928346 
L 179.733847 691.814319 
L 185.714162 691.677598 
L 191.694476 691.513618 
L 197.674791 691.316905 
L 203.655105 691.080913 
L 209.63542 690.797825 
L 215.615734 690.458323 
L 221.596049 690.051328 
L 227.576363 689.5637 
L 233.556678 688.979903 
L 239.536992 688.281628 
L 245.517307 687.447383 
L 251.497621 686.452046 
L 257.477936 685.266395 
L 263.45825 683.856625 
L 269.438565 682.183868 
L 275.418879 680.203749 
L 281.399194 677.866004 
L 287.379508 675.114211 
L 293.359823 671.885694 
L 299.340137 668.111662 
L 305.320452 663.717674 
L 311.300766 658.624529 
L 317.281081 652.749679 
L 323.261395 646.00928 
L 329.24171 638.320996 
L 335.222024 629.607659 
L 341.202339 619.80184 
L 347.182653 608.851386 
L 353.162968 596.725871 
L 359.143282 583.423856 
L 365.123597 568.980716 
L 371.103911 553.47668 
L 377.084226 537.044568 
L 383.06454 519.876575 
L 389.044855 502.229294 
L 395.025169 484.426077 
L 401.005484 466.855789 
L 406.985798 449.967041 
L 412.966113 434.257176 
L 418.946427 420.255544 
L 424.926742 408.501087 
L 430.907056 399.514787 
L 436.887371 393.768262 
L 442.867685 391.650446 
L 448.848 393.434986 
L 454.828314 399.251441 
L 460.808629 409.063591 
L 466.788943 422.657941 
L 472.769258 439.644894 
L 478.749572 459.473957 
L 484.729887 481.462895 
L 490.710201 504.839065 
L 496.690516 528.789545 
L 502.67083 552.5153 
L 508.651145 575.283865 
L 514.631459 596.474988 
L 520.611774 615.614435 
L 526.592088 632.392712 
L 532.572403 646.667472 
L 538.552718 658.450567 
L 544.533032 667.882692 
L 550.513347 675.199951 
L 556.493661 680.697312 
L 562.473976 684.693637 
L 568.45429 687.502067 
L 574.434605 689.408067 
L 580.414919 690.655933 
L 586.395234 691.443156 
L 592.375548 691.921108 
L 598.355863 692.200022 
L 604.336177 692.356257 
L 610.316492 692.440144 
L 616.296806 692.483256 
L 622.277121 692.504432 
L 628.257435 692.514356 
L 634.23775 692.518788 
L 640.218064 692.520669 
L 646.198379 692.521428 
L 652.178693 692.521718 
" clip-path="url(#p9bcf5a9791)" style="fill: none; stroke: #000000; stroke-width: 1.5; stroke-linecap: square"/>
   </g>
   <g id="patch_107">
    <path d="M 30.525 692.521875 
L 30.525 376.606875 
" style="fill: none; stroke: #000000; stroke-width: 0.8; stroke-linejoin: miter; stroke-linecap: square"/>
   </g>
   <g id="patch_108">
    <path d="M 681.78125 692.521875 
L 681.78125 376.606875 
" style="fill: none; stroke: #000000; stroke-width: 0.8; stroke-linejoin: miter; stroke-linecap: square"/>
   </g>
   <g id="patch_109">
    <path d="M 30.525 692.521875 
L 681.78125 692.521875 
" style="fill: none; stroke: #000000; stroke-width: 0.8; stroke-linejoin: miter; stroke-linecap: square"/>
   </g>
   <g id="patch_110">
    <path d="M 30.525 376.606875 
L 681.78125 376.606875 
" style="fill: none; stroke: #000000; stroke-width: 0.8; stroke-linejoin: miter; stroke-linecap: square"/>
   </g>
   <g id="legend_3">
    <g id="patch_111">
     <path d="M 617.33125 399.285 
L 674.78125 399.285 
Q 676.78125 399.285 676.78125 397.285 
L 676.78125 383.606875 
Q 676.78125 381.606875 674.78125 381.606875 
L 617.33125 381.606875 
Q 615.33125 381.606875 615.33125 383.606875 
L 615.33125 397.285 
Q 615.33125 399.285 617.33125 399.285 
z
" style="fill: #ffffff; opacity: 0.8; stroke: #cccccc; stroke-linejoin: miter"/>
    </g>
    <g id="patch_112">
     <path d="M 619.33125 393.205313 
L 639.33125 393.205313 
L 639.33125 386.205313 
L 619.33125 386.205313 
z
" style="fill: #ff7f50"/>
    </g>
    <g id="text_47">
     <!-- 1000 -->
     <g transform="translate(647.33125 393.205313) scale(0.1 -0.1)">
      <use xlink:href="#DejaVuSans-31"/>
      <use xlink:href="#DejaVuSans-30" x="63.623047"/>
      <use xlink:href="#DejaVuSans-30" x="127.246094"/>
      <use xlink:href="#DejaVuSans-30" x="190.869141"/>
     </g>
    </g>
   </g>
  </g>
  <g id="axes_4">
   <g id="patch_113">
    <path d="M 705.94375 692.521875 
L 1357.2 692.521875 
L 1357.2 376.606875 
L 705.94375 376.606875 
z
" style="fill: #ffffff"/>
   </g>
   <g id="patch_114">
    <path d="M 735.546307 692.521875 
L 751.955637 692.521875 
L 751.955637 692.34121 
L 735.546307 692.34121 
z
" clip-path="url(#p4652545de4)" style="fill: #ff7f50"/>
   </g>
   <g id="patch_115">
    <path d="M 753.778896 692.521875 
L 770.188226 692.521875 
L 770.188226 692.521875 
L 753.778896 692.521875 
z
" clip-path="url(#p4652545de4)" style="fill: #ff7f50"/>
   </g>
   <g id="patch_116">
    <path d="M 772.011485 692.521875 
L 788.420815 692.521875 
L 788.420815 692.521875 
L 772.011485 692.521875 
z
" clip-path="url(#p4652545de4)" style="fill: #ff7f50"/>
   </g>
   <g id="patch_117">
    <path d="M 790.244074 692.521875 
L 806.653404 692.521875 
L 806.653404 692.521875 
L 790.244074 692.521875 
z
" clip-path="url(#p4652545de4)" style="fill: #ff7f50"/>
   </g>
   <g id="patch_118">
    <path d="M 808.476663 692.521875 
L 824.885993 692.521875 
L 824.885993 692.521875 
L 808.476663 692.521875 
z
" clip-path="url(#p4652545de4)" style="fill: #ff7f50"/>
   </g>
   <g id="patch_119">
    <path d="M 826.709252 692.521875 
L 843.118582 692.521875 
L 843.118582 692.521875 
L 826.709252 692.521875 
z
" clip-path="url(#p4652545de4)" style="fill: #ff7f50"/>
   </g>
   <g id="patch_120">
    <path d="M 844.941841 692.521875 
L 861.351172 692.521875 
L 861.351172 692.521875 
L 844.941841 692.521875 
z
" clip-path="url(#p4652545de4)" style="fill: #ff7f50"/>
   </g>
   <g id="patch_121">
    <path d="M 863.17443 692.521875 
L 879.583761 692.521875 
L 879.583761 692.521875 
L 863.17443 692.521875 
z
" clip-path="url(#p4652545de4)" style="fill: #ff7f50"/>
   </g>
   <g id="patch_122">
    <path d="M 881.40702 692.521875 
L 897.81635 692.521875 
L 897.81635 692.521875 
L 881.40702 692.521875 
z
" clip-path="url(#p4652545de4)" style="fill: #ff7f50"/>
   </g>
   <g id="patch_123">
    <path d="M 899.639609 692.521875 
L 916.048939 692.521875 
L 916.048939 692.160545 
L 899.639609 692.160545 
z
" clip-path="url(#p4652545de4)" style="fill: #ff7f50"/>
   </g>
   <g id="patch_124">
    <path d="M 917.872198 692.521875 
L 934.281528 692.521875 
L 934.281528 692.34121 
L 917.872198 692.34121 
z
" clip-path="url(#p4652545de4)" style="fill: #ff7f50"/>
   </g>
   <g id="patch_125">
    <path d="M 936.104787 692.521875 
L 952.514117 692.521875 
L 952.514117 692.521875 
L 936.104787 692.521875 
z
" clip-path="url(#p4652545de4)" style="fill: #ff7f50"/>
   </g>
   <g id="patch_126">
    <path d="M 954.337376 692.521875 
L 970.746706 692.521875 
L 970.746706 691.437884 
L 954.337376 691.437884 
z
" clip-path="url(#p4652545de4)" style="fill: #ff7f50"/>
   </g>
   <g id="patch_127">
    <path d="M 972.569965 692.521875 
L 988.979295 692.521875 
L 988.979295 689.450568 
L 972.569965 689.450568 
z
" clip-path="url(#p4652545de4)" style="fill: #ff7f50"/>
   </g>
   <g id="patch_128">
    <path d="M 990.802554 692.521875 
L 1007.211884 692.521875 
L 1007.211884 688.547242 
L 990.802554 688.547242 
z
" clip-path="url(#p4652545de4)" style="fill: #ff7f50"/>
   </g>
   <g id="patch_129">
    <path d="M 1009.035143 692.521875 
L 1025.444473 692.521875 
L 1025.444473 682.946624 
L 1009.035143 682.946624 
z
" clip-path="url(#p4652545de4)" style="fill: #ff7f50"/>
   </g>
   <g id="patch_130">
    <path d="M 1027.267732 692.521875 
L 1043.677062 692.521875 
L 1043.677062 674.455364 
L 1027.267732 674.455364 
z
" clip-path="url(#p4652545de4)" style="fill: #ff7f50"/>
   </g>
   <g id="patch_131">
    <path d="M 1045.500321 692.521875 
L 1061.909652 692.521875 
L 1061.909652 654.582201 
L 1045.500321 654.582201 
z
" clip-path="url(#p4652545de4)" style="fill: #ff7f50"/>
   </g>
   <g id="patch_132">
    <path d="M 1063.73291 692.521875 
L 1080.142241 692.521875 
L 1080.142241 631.457066 
L 1063.73291 631.457066 
z
" clip-path="url(#p4652545de4)" style="fill: #ff7f50"/>
   </g>
   <g id="patch_133">
    <path d="M 1081.9655 692.521875 
L 1098.37483 692.521875 
L 1098.37483 573.463564 
L 1081.9655 573.463564 
z
" clip-path="url(#p4652545de4)" style="fill: #ff7f50"/>
   </g>
   <g id="patch_134">
    <path d="M 1100.198089 692.521875 
L 1116.607419 692.521875 
L 1116.607419 519.806025 
L 1100.198089 519.806025 
z
" clip-path="url(#p4652545de4)" style="fill: #ff7f50"/>
   </g>
   <g id="patch_135">
    <path d="M 1118.430678 692.521875 
L 1134.840008 692.521875 
L 1134.840008 454.405253 
L 1118.430678 454.405253 
z
" clip-path="url(#p4652545de4)" style="fill: #ff7f50"/>
   </g>
   <g id="patch_136">
    <path d="M 1136.663267 692.521875 
L 1153.072597 692.521875 
L 1153.072597 415.381589 
L 1136.663267 415.381589 
z
" clip-path="url(#p4652545de4)" style="fill: #ff7f50"/>
   </g>
   <g id="patch_137">
    <path d="M 1154.895856 692.521875 
L 1171.305186 692.521875 
L 1171.305186 398.941063 
L 1154.895856 398.941063 
z
" clip-path="url(#p4652545de4)" style="fill: #ff7f50"/>
   </g>
   <g id="patch_138">
    <path d="M 1173.128445 692.521875 
L 1189.537775 692.521875 
L 1189.537775 435.435416 
L 1173.128445 435.435416 
z
" clip-path="url(#p4652545de4)" style="fill: #ff7f50"/>
   </g>
   <g id="patch_139">
    <path d="M 1191.361034 692.521875 
L 1207.770364 692.521875 
L 1207.770364 516.554053 
L 1191.361034 516.554053 
z
" clip-path="url(#p4652545de4)" style="fill: #ff7f50"/>
   </g>
   <g id="patch_140">
    <path d="M 1209.593623 692.521875 
L 1226.002953 692.521875 
L 1226.002953 599.840671 
L 1209.593623 599.840671 
z
" clip-path="url(#p4652545de4)" style="fill: #ff7f50"/>
   </g>
   <g id="patch_141">
    <path d="M 1227.826212 692.521875 
L 1244.235542 692.521875 
L 1244.235542 657.834173 
L 1227.826212 657.834173 
z
" clip-path="url(#p4652545de4)" style="fill: #ff7f50"/>
   </g>
   <g id="patch_142">
    <path d="M 1246.058801 692.521875 
L 1262.468132 692.521875 
L 1262.468132 684.030615 
L 1246.058801 684.030615 
z
" clip-path="url(#p4652545de4)" style="fill: #ff7f50"/>
   </g>
   <g id="patch_143">
    <path d="M 1264.29139 692.521875 
L 1280.700721 692.521875 
L 1280.700721 690.895889 
L 1264.29139 690.895889 
z
" clip-path="url(#p4652545de4)" style="fill: #ff7f50"/>
   </g>
   <g id="matplotlib.axis_7">
    <g id="xtick_22">
     <g id="line2d_48">
      <g>
       <use xlink:href="#m9f162b00ce" x="766.706614" y="692.521875" style="stroke: #000000; stroke-width: 0.8"/>
      </g>
     </g>
     <g id="text_48">
      <!-- 0.9 -->
      <g transform="translate(758.755052 707.120313) scale(0.1 -0.1)">
       <defs>
        <path id="DejaVuSans-39" d="M 703 97 
L 703 672 
Q 941 559 1184 500 
Q 1428 441 1663 441 
Q 2288 441 2617 861 
Q 2947 1281 2994 2138 
Q 2813 1869 2534 1725 
Q 2256 1581 1919 1581 
Q 1219 1581 811 2004 
Q 403 2428 403 3163 
Q 403 3881 828 4315 
Q 1253 4750 1959 4750 
Q 2769 4750 3195 4129 
Q 3622 3509 3622 2328 
Q 3622 1225 3098 567 
Q 2575 -91 1691 -91 
Q 1453 -91 1209 -44 
Q 966 3 703 97 
z
M 1959 2075 
Q 2384 2075 2632 2365 
Q 2881 2656 2881 3163 
Q 2881 3666 2632 3958 
Q 2384 4250 1959 4250 
Q 1534 4250 1286 3958 
Q 1038 3666 1038 3163 
Q 1038 2656 1286 2365 
Q 1534 2075 1959 2075 
z
" transform="scale(0.015625)"/>
       </defs>
       <use xlink:href="#DejaVuSans-30"/>
       <use xlink:href="#DejaVuSans-2e" x="63.623047"/>
       <use xlink:href="#DejaVuSans-39" x="95.410156"/>
      </g>
     </g>
    </g>
    <g id="xtick_23">
     <g id="line2d_49">
      <g>
       <use xlink:href="#m9f162b00ce" x="846.833875" y="692.521875" style="stroke: #000000; stroke-width: 0.8"/>
      </g>
     </g>
     <g id="text_49">
      <!-- 1.0 -->
      <g transform="translate(838.882313 707.120313) scale(0.1 -0.1)">
       <use xlink:href="#DejaVuSans-31"/>
       <use xlink:href="#DejaVuSans-2e" x="63.623047"/>
       <use xlink:href="#DejaVuSans-30" x="95.410156"/>
      </g>
     </g>
    </g>
    <g id="xtick_24">
     <g id="line2d_50">
      <g>
       <use xlink:href="#m9f162b00ce" x="926.961137" y="692.521875" style="stroke: #000000; stroke-width: 0.8"/>
      </g>
     </g>
     <g id="text_50">
      <!-- 1.1 -->
      <g transform="translate(919.009574 707.120313) scale(0.1 -0.1)">
       <use xlink:href="#DejaVuSans-31"/>
       <use xlink:href="#DejaVuSans-2e" x="63.623047"/>
       <use xlink:href="#DejaVuSans-31" x="95.410156"/>
      </g>
     </g>
    </g>
    <g id="xtick_25">
     <g id="line2d_51">
      <g>
       <use xlink:href="#m9f162b00ce" x="1007.088398" y="692.521875" style="stroke: #000000; stroke-width: 0.8"/>
      </g>
     </g>
     <g id="text_51">
      <!-- 1.2 -->
      <g transform="translate(999.136835 707.120313) scale(0.1 -0.1)">
       <use xlink:href="#DejaVuSans-31"/>
       <use xlink:href="#DejaVuSans-2e" x="63.623047"/>
       <use xlink:href="#DejaVuSans-32" x="95.410156"/>
      </g>
     </g>
    </g>
    <g id="xtick_26">
     <g id="line2d_52">
      <g>
       <use xlink:href="#m9f162b00ce" x="1087.215659" y="692.521875" style="stroke: #000000; stroke-width: 0.8"/>
      </g>
     </g>
     <g id="text_52">
      <!-- 1.3 -->
      <g transform="translate(1079.264097 707.120313) scale(0.1 -0.1)">
       <use xlink:href="#DejaVuSans-31"/>
       <use xlink:href="#DejaVuSans-2e" x="63.623047"/>
       <use xlink:href="#DejaVuSans-33" x="95.410156"/>
      </g>
     </g>
    </g>
    <g id="xtick_27">
     <g id="line2d_53">
      <g>
       <use xlink:href="#m9f162b00ce" x="1167.342921" y="692.521875" style="stroke: #000000; stroke-width: 0.8"/>
      </g>
     </g>
     <g id="text_53">
      <!-- 1.4 -->
      <g transform="translate(1159.391358 707.120313) scale(0.1 -0.1)">
       <use xlink:href="#DejaVuSans-31"/>
       <use xlink:href="#DejaVuSans-2e" x="63.623047"/>
       <use xlink:href="#DejaVuSans-34" x="95.410156"/>
      </g>
     </g>
    </g>
    <g id="xtick_28">
     <g id="line2d_54">
      <g>
       <use xlink:href="#m9f162b00ce" x="1247.470182" y="692.521875" style="stroke: #000000; stroke-width: 0.8"/>
      </g>
     </g>
     <g id="text_54">
      <!-- 1.5 -->
      <g transform="translate(1239.518619 707.120313) scale(0.1 -0.1)">
       <use xlink:href="#DejaVuSans-31"/>
       <use xlink:href="#DejaVuSans-2e" x="63.623047"/>
       <use xlink:href="#DejaVuSans-35" x="95.410156"/>
      </g>
     </g>
    </g>
    <g id="xtick_29">
     <g id="line2d_55">
      <g>
       <use xlink:href="#m9f162b00ce" x="1327.597443" y="692.521875" style="stroke: #000000; stroke-width: 0.8"/>
      </g>
     </g>
     <g id="text_55">
      <!-- 1.6 -->
      <g transform="translate(1319.645881 707.120313) scale(0.1 -0.1)">
       <use xlink:href="#DejaVuSans-31"/>
       <use xlink:href="#DejaVuSans-2e" x="63.623047"/>
       <use xlink:href="#DejaVuSans-36" x="95.410156"/>
      </g>
     </g>
    </g>
   </g>
   <g id="matplotlib.axis_8">
    <g id="ytick_24">
     <g id="line2d_56">
      <g>
       <use xlink:href="#m1344532f78" x="705.94375" y="692.521875" style="stroke: #000000; stroke-width: 0.8"/>
      </g>
     </g>
     <g id="text_56">
      <!-- 0 -->
      <g transform="translate(692.58125 696.321094) scale(0.1 -0.1)">
       <use xlink:href="#DejaVuSans-30"/>
      </g>
     </g>
    </g>
    <g id="ytick_25">
     <g id="line2d_57">
      <g>
       <use xlink:href="#m1344532f78" x="705.94375" y="651.412361" style="stroke: #000000; stroke-width: 0.8"/>
      </g>
     </g>
     <g id="text_57">
      <!-- 1 -->
      <g transform="translate(692.58125 655.211579) scale(0.1 -0.1)">
       <use xlink:href="#DejaVuSans-31"/>
      </g>
     </g>
    </g>
    <g id="ytick_26">
     <g id="line2d_58">
      <g>
       <use xlink:href="#m1344532f78" x="705.94375" y="610.302846" style="stroke: #000000; stroke-width: 0.8"/>
      </g>
     </g>
     <g id="text_58">
      <!-- 2 -->
      <g transform="translate(692.58125 614.102065) scale(0.1 -0.1)">
       <use xlink:href="#DejaVuSans-32"/>
      </g>
     </g>
    </g>
    <g id="ytick_27">
     <g id="line2d_59">
      <g>
       <use xlink:href="#m1344532f78" x="705.94375" y="569.193332" style="stroke: #000000; stroke-width: 0.8"/>
      </g>
     </g>
     <g id="text_59">
      <!-- 3 -->
      <g transform="translate(692.58125 572.99255) scale(0.1 -0.1)">
       <use xlink:href="#DejaVuSans-33"/>
      </g>
     </g>
    </g>
    <g id="ytick_28">
     <g id="line2d_60">
      <g>
       <use xlink:href="#m1344532f78" x="705.94375" y="528.083817" style="stroke: #000000; stroke-width: 0.8"/>
      </g>
     </g>
     <g id="text_60">
      <!-- 4 -->
      <g transform="translate(692.58125 531.883036) scale(0.1 -0.1)">
       <use xlink:href="#DejaVuSans-34"/>
      </g>
     </g>
    </g>
    <g id="ytick_29">
     <g id="line2d_61">
      <g>
       <use xlink:href="#m1344532f78" x="705.94375" y="486.974303" style="stroke: #000000; stroke-width: 0.8"/>
      </g>
     </g>
     <g id="text_61">
      <!-- 5 -->
      <g transform="translate(692.58125 490.773522) scale(0.1 -0.1)">
       <use xlink:href="#DejaVuSans-35"/>
      </g>
     </g>
    </g>
    <g id="ytick_30">
     <g id="line2d_62">
      <g>
       <use xlink:href="#m1344532f78" x="705.94375" y="445.864788" style="stroke: #000000; stroke-width: 0.8"/>
      </g>
     </g>
     <g id="text_62">
      <!-- 6 -->
      <g transform="translate(692.58125 449.664007) scale(0.1 -0.1)">
       <use xlink:href="#DejaVuSans-36"/>
      </g>
     </g>
    </g>
    <g id="ytick_31">
     <g id="line2d_63">
      <g>
       <use xlink:href="#m1344532f78" x="705.94375" y="404.755274" style="stroke: #000000; stroke-width: 0.8"/>
      </g>
     </g>
     <g id="text_63">
      <!-- 7 -->
      <g transform="translate(692.58125 408.554493) scale(0.1 -0.1)">
       <use xlink:href="#DejaVuSans-37"/>
      </g>
     </g>
    </g>
   </g>
   <g id="line2d_64">
    <path d="M 846.833875 692.494367 
L 851.690073 692.49003 
L 856.546271 692.484941 
L 861.402468 692.47896 
L 866.258666 692.471919 
L 871.114864 692.463618 
L 875.971061 692.453816 
L 880.827259 692.442226 
L 885.683457 692.428502 
L 890.539654 692.412228 
L 895.395852 692.392905 
L 900.25205 692.369934 
L 905.108247 692.342592 
L 909.964445 692.310011 
L 914.820643 692.271145 
L 919.67684 692.224735 
L 924.533038 692.169266 
L 929.389235 692.102915 
L 934.245433 692.023488 
L 939.101631 691.928346 
L 943.957828 691.814319 
L 948.814026 691.677598 
L 953.670224 691.513618 
L 958.526421 691.316905 
L 963.382619 691.080913 
L 968.238817 690.797825 
L 973.095014 690.458323 
L 977.951212 690.051328 
L 982.80741 689.5637 
L 987.663607 688.979903 
L 992.519805 688.281628 
L 997.376003 687.447383 
L 1002.2322 686.452046 
L 1007.088398 685.266395 
L 1011.944596 683.856625 
L 1016.800793 682.183868 
L 1021.656991 680.203749 
L 1026.513189 677.866004 
L 1031.369386 675.114211 
L 1036.225584 671.885694 
L 1041.081782 668.111662 
L 1045.937979 663.717674 
L 1050.794177 658.624529 
L 1055.650375 652.749679 
L 1060.506572 646.00928 
L 1065.36277 638.320996 
L 1070.218967 629.607659 
L 1075.075165 619.80184 
L 1079.931363 608.851386 
L 1084.78756 596.725871 
L 1089.643758 583.423856 
L 1094.499956 568.980716 
L 1099.356153 553.47668 
L 1104.212351 537.044568 
L 1109.068549 519.876575 
L 1113.924746 502.229294 
L 1118.780944 484.426077 
L 1123.637142 466.855789 
L 1128.493339 449.967041 
L 1133.349537 434.257176 
L 1138.205735 420.255544 
L 1143.061932 408.501087 
L 1147.91813 399.514787 
L 1152.774328 393.768262 
L 1157.630525 391.650446 
L 1162.486723 393.434986 
L 1167.342921 399.251441 
L 1172.199118 409.063591 
L 1177.055316 422.657941 
L 1181.911514 439.644894 
L 1186.767711 459.473957 
L 1191.623909 481.462895 
L 1196.480106 504.839065 
L 1201.336304 528.789545 
L 1206.192502 552.5153 
L 1211.048699 575.283865 
L 1215.904897 596.474988 
L 1220.761095 615.614435 
L 1225.617292 632.392712 
L 1230.47349 646.667472 
L 1235.329688 658.450567 
L 1240.185885 667.882692 
L 1245.042083 675.199951 
L 1249.898281 680.697312 
L 1254.754478 684.693637 
L 1259.610676 687.502067 
L 1264.466874 689.408067 
L 1269.323071 690.655933 
L 1274.179269 691.443156 
L 1279.035467 691.921108 
L 1283.891664 692.200022 
L 1288.747862 692.356257 
L 1293.60406 692.440144 
L 1298.460257 692.483256 
L 1303.316455 692.504432 
L 1308.172653 692.514356 
L 1313.02885 692.518788 
L 1317.885048 692.520669 
L 1322.741246 692.521428 
L 1327.597443 692.521718 
" clip-path="url(#p4652545de4)" style="fill: none; stroke: #000000; stroke-width: 1.5; stroke-linecap: square"/>
   </g>
   <g id="patch_144">
    <path d="M 705.94375 692.521875 
L 705.94375 376.606875 
" style="fill: none; stroke: #000000; stroke-width: 0.8; stroke-linejoin: miter; stroke-linecap: square"/>
   </g>
   <g id="patch_145">
    <path d="M 1357.2 692.521875 
L 1357.2 376.606875 
" style="fill: none; stroke: #000000; stroke-width: 0.8; stroke-linejoin: miter; stroke-linecap: square"/>
   </g>
   <g id="patch_146">
    <path d="M 705.94375 692.521875 
L 1357.2 692.521875 
" style="fill: none; stroke: #000000; stroke-width: 0.8; stroke-linejoin: miter; stroke-linecap: square"/>
   </g>
   <g id="patch_147">
    <path d="M 705.94375 376.606875 
L 1357.2 376.606875 
" style="fill: none; stroke: #000000; stroke-width: 0.8; stroke-linejoin: miter; stroke-linecap: square"/>
   </g>
   <g id="legend_4">
    <g id="patch_148">
     <path d="M 1286.3875 399.285 
L 1350.2 399.285 
Q 1352.2 399.285 1352.2 397.285 
L 1352.2 383.606875 
Q 1352.2 381.606875 1350.2 381.606875 
L 1286.3875 381.606875 
Q 1284.3875 381.606875 1284.3875 383.606875 
L 1284.3875 397.285 
Q 1284.3875 399.285 1286.3875 399.285 
z
" style="fill: #ffffff; opacity: 0.8; stroke: #cccccc; stroke-linejoin: miter"/>
    </g>
    <g id="patch_149">
     <path d="M 1288.3875 393.205313 
L 1308.3875 393.205313 
L 1308.3875 386.205313 
L 1288.3875 386.205313 
z
" style="fill: #ff7f50"/>
    </g>
    <g id="text_64">
     <!-- 10000 -->
     <g transform="translate(1316.3875 393.205313) scale(0.1 -0.1)">
      <use xlink:href="#DejaVuSans-31"/>
      <use xlink:href="#DejaVuSans-30" x="63.623047"/>
      <use xlink:href="#DejaVuSans-30" x="127.246094"/>
      <use xlink:href="#DejaVuSans-30" x="190.869141"/>
      <use xlink:href="#DejaVuSans-30" x="254.492188"/>
     </g>
    </g>
   </g>
  </g>
  <g id="text_65">
   <!-- rejecting sampling -->
   <g transform="translate(628.38 23.518125) scale(0.12 -0.12)">
    <defs>
     <path id="DejaVuSans-72" d="M 2631 2963 
Q 2534 3019 2420 3045 
Q 2306 3072 2169 3072 
Q 1681 3072 1420 2755 
Q 1159 2438 1159 1844 
L 1159 0 
L 581 0 
L 581 3500 
L 1159 3500 
L 1159 2956 
Q 1341 3275 1631 3429 
Q 1922 3584 2338 3584 
Q 2397 3584 2469 3576 
Q 2541 3569 2628 3553 
L 2631 2963 
z
" transform="scale(0.015625)"/>
     <path id="DejaVuSans-65" d="M 3597 1894 
L 3597 1613 
L 953 1613 
Q 991 1019 1311 708 
Q 1631 397 2203 397 
Q 2534 397 2845 478 
Q 3156 559 3463 722 
L 3463 178 
Q 3153 47 2828 -22 
Q 2503 -91 2169 -91 
Q 1331 -91 842 396 
Q 353 884 353 1716 
Q 353 2575 817 3079 
Q 1281 3584 2069 3584 
Q 2775 3584 3186 3129 
Q 3597 2675 3597 1894 
z
M 3022 2063 
Q 3016 2534 2758 2815 
Q 2500 3097 2075 3097 
Q 1594 3097 1305 2825 
Q 1016 2553 972 2059 
L 3022 2063 
z
" transform="scale(0.015625)"/>
     <path id="DejaVuSans-6a" d="M 603 3500 
L 1178 3500 
L 1178 -63 
Q 1178 -731 923 -1031 
Q 669 -1331 103 -1331 
L -116 -1331 
L -116 -844 
L 38 -844 
Q 366 -844 484 -692 
Q 603 -541 603 -63 
L 603 3500 
z
M 603 4863 
L 1178 4863 
L 1178 4134 
L 603 4134 
L 603 4863 
z
" transform="scale(0.015625)"/>
     <path id="DejaVuSans-63" d="M 3122 3366 
L 3122 2828 
Q 2878 2963 2633 3030 
Q 2388 3097 2138 3097 
Q 1578 3097 1268 2742 
Q 959 2388 959 1747 
Q 959 1106 1268 751 
Q 1578 397 2138 397 
Q 2388 397 2633 464 
Q 2878 531 3122 666 
L 3122 134 
Q 2881 22 2623 -34 
Q 2366 -91 2075 -91 
Q 1284 -91 818 406 
Q 353 903 353 1747 
Q 353 2603 823 3093 
Q 1294 3584 2113 3584 
Q 2378 3584 2631 3529 
Q 2884 3475 3122 3366 
z
" transform="scale(0.015625)"/>
     <path id="DejaVuSans-74" d="M 1172 4494 
L 1172 3500 
L 2356 3500 
L 2356 3053 
L 1172 3053 
L 1172 1153 
Q 1172 725 1289 603 
Q 1406 481 1766 481 
L 2356 481 
L 2356 0 
L 1766 0 
Q 1100 0 847 248 
Q 594 497 594 1153 
L 594 3053 
L 172 3053 
L 172 3500 
L 594 3500 
L 594 4494 
L 1172 4494 
z
" transform="scale(0.015625)"/>
     <path id="DejaVuSans-69" d="M 603 3500 
L 1178 3500 
L 1178 0 
L 603 0 
L 603 3500 
z
M 603 4863 
L 1178 4863 
L 1178 4134 
L 603 4134 
L 603 4863 
z
" transform="scale(0.015625)"/>
     <path id="DejaVuSans-6e" d="M 3513 2113 
L 3513 0 
L 2938 0 
L 2938 2094 
Q 2938 2591 2744 2837 
Q 2550 3084 2163 3084 
Q 1697 3084 1428 2787 
Q 1159 2491 1159 1978 
L 1159 0 
L 581 0 
L 581 3500 
L 1159 3500 
L 1159 2956 
Q 1366 3272 1645 3428 
Q 1925 3584 2291 3584 
Q 2894 3584 3203 3211 
Q 3513 2838 3513 2113 
z
" transform="scale(0.015625)"/>
     <path id="DejaVuSans-67" d="M 2906 1791 
Q 2906 2416 2648 2759 
Q 2391 3103 1925 3103 
Q 1463 3103 1205 2759 
Q 947 2416 947 1791 
Q 947 1169 1205 825 
Q 1463 481 1925 481 
Q 2391 481 2648 825 
Q 2906 1169 2906 1791 
z
M 3481 434 
Q 3481 -459 3084 -895 
Q 2688 -1331 1869 -1331 
Q 1566 -1331 1297 -1286 
Q 1028 -1241 775 -1147 
L 775 -588 
Q 1028 -725 1275 -790 
Q 1522 -856 1778 -856 
Q 2344 -856 2625 -561 
Q 2906 -266 2906 331 
L 2906 616 
Q 2728 306 2450 153 
Q 2172 0 1784 0 
Q 1141 0 747 490 
Q 353 981 353 1791 
Q 353 2603 747 3093 
Q 1141 3584 1784 3584 
Q 2172 3584 2450 3431 
Q 2728 3278 2906 2969 
L 2906 3500 
L 3481 3500 
L 3481 434 
z
" transform="scale(0.015625)"/>
     <path id="DejaVuSans-20" transform="scale(0.015625)"/>
     <path id="DejaVuSans-73" d="M 2834 3397 
L 2834 2853 
Q 2591 2978 2328 3040 
Q 2066 3103 1784 3103 
Q 1356 3103 1142 2972 
Q 928 2841 928 2578 
Q 928 2378 1081 2264 
Q 1234 2150 1697 2047 
L 1894 2003 
Q 2506 1872 2764 1633 
Q 3022 1394 3022 966 
Q 3022 478 2636 193 
Q 2250 -91 1575 -91 
Q 1294 -91 989 -36 
Q 684 19 347 128 
L 347 722 
Q 666 556 975 473 
Q 1284 391 1588 391 
Q 1994 391 2212 530 
Q 2431 669 2431 922 
Q 2431 1156 2273 1281 
Q 2116 1406 1581 1522 
L 1381 1569 
Q 847 1681 609 1914 
Q 372 2147 372 2553 
Q 372 3047 722 3315 
Q 1072 3584 1716 3584 
Q 2034 3584 2315 3537 
Q 2597 3491 2834 3397 
z
" transform="scale(0.015625)"/>
     <path id="DejaVuSans-61" d="M 2194 1759 
Q 1497 1759 1228 1600 
Q 959 1441 959 1056 
Q 959 750 1161 570 
Q 1363 391 1709 391 
Q 2188 391 2477 730 
Q 2766 1069 2766 1631 
L 2766 1759 
L 2194 1759 
z
M 3341 1997 
L 3341 0 
L 2766 0 
L 2766 531 
Q 2569 213 2275 61 
Q 1981 -91 1556 -91 
Q 1019 -91 701 211 
Q 384 513 384 1019 
Q 384 1609 779 1909 
Q 1175 2209 1959 2209 
L 2766 2209 
L 2766 2266 
Q 2766 2663 2505 2880 
Q 2244 3097 1772 3097 
Q 1472 3097 1187 3025 
Q 903 2953 641 2809 
L 641 3341 
Q 956 3463 1253 3523 
Q 1550 3584 1831 3584 
Q 2591 3584 2966 3190 
Q 3341 2797 3341 1997 
z
" transform="scale(0.015625)"/>
     <path id="DejaVuSans-6d" d="M 3328 2828 
Q 3544 3216 3844 3400 
Q 4144 3584 4550 3584 
Q 5097 3584 5394 3201 
Q 5691 2819 5691 2113 
L 5691 0 
L 5113 0 
L 5113 2094 
Q 5113 2597 4934 2840 
Q 4756 3084 4391 3084 
Q 3944 3084 3684 2787 
Q 3425 2491 3425 1978 
L 3425 0 
L 2847 0 
L 2847 2094 
Q 2847 2600 2669 2842 
Q 2491 3084 2119 3084 
Q 1678 3084 1418 2786 
Q 1159 2488 1159 1978 
L 1159 0 
L 581 0 
L 581 3500 
L 1159 3500 
L 1159 2956 
Q 1356 3278 1631 3431 
Q 1906 3584 2284 3584 
Q 2666 3584 2933 3390 
Q 3200 3197 3328 2828 
z
" transform="scale(0.015625)"/>
     <path id="DejaVuSans-70" d="M 1159 525 
L 1159 -1331 
L 581 -1331 
L 581 3500 
L 1159 3500 
L 1159 2969 
Q 1341 3281 1617 3432 
Q 1894 3584 2278 3584 
Q 2916 3584 3314 3078 
Q 3713 2572 3713 1747 
Q 3713 922 3314 415 
Q 2916 -91 2278 -91 
Q 1894 -91 1617 61 
Q 1341 213 1159 525 
z
M 3116 1747 
Q 3116 2381 2855 2742 
Q 2594 3103 2138 3103 
Q 1681 3103 1420 2742 
Q 1159 2381 1159 1747 
Q 1159 1113 1420 752 
Q 1681 391 2138 391 
Q 2594 391 2855 752 
Q 3116 1113 3116 1747 
z
" transform="scale(0.015625)"/>
     <path id="DejaVuSans-6c" d="M 603 4863 
L 1178 4863 
L 1178 0 
L 603 0 
L 603 4863 
z
" transform="scale(0.015625)"/>
    </defs>
    <use xlink:href="#DejaVuSans-72"/>
    <use xlink:href="#DejaVuSans-65" x="38.863281"/>
    <use xlink:href="#DejaVuSans-6a" x="100.386719"/>
    <use xlink:href="#DejaVuSans-65" x="128.169922"/>
    <use xlink:href="#DejaVuSans-63" x="189.693359"/>
    <use xlink:href="#DejaVuSans-74" x="244.673828"/>
    <use xlink:href="#DejaVuSans-69" x="283.882812"/>
    <use xlink:href="#DejaVuSans-6e" x="311.666016"/>
    <use xlink:href="#DejaVuSans-67" x="375.044922"/>
    <use xlink:href="#DejaVuSans-20" x="438.521484"/>
    <use xlink:href="#DejaVuSans-73" x="470.308594"/>
    <use xlink:href="#DejaVuSans-61" x="522.408203"/>
    <use xlink:href="#DejaVuSans-6d" x="583.6875"/>
    <use xlink:href="#DejaVuSans-70" x="681.099609"/>
    <use xlink:href="#DejaVuSans-6c" x="744.576172"/>
    <use xlink:href="#DejaVuSans-69" x="772.359375"/>
    <use xlink:href="#DejaVuSans-6e" x="800.142578"/>
    <use xlink:href="#DejaVuSans-67" x="863.521484"/>
   </g>
  </g>
 </g>
 <defs>
  <clipPath id="pa0d0c23290">
   <rect x="30.525" y="33.21375" width="651.25625" height="315.915"/>
  </clipPath>
  <clipPath id="p4416ee21a2">
   <rect x="705.94375" y="33.21375" width="651.25625" height="315.915"/>
  </clipPath>
  <clipPath id="p9bcf5a9791">
   <rect x="30.525" y="376.606875" width="651.25625" height="315.915"/>
  </clipPath>
  <clipPath id="p4652545de4">
   <rect x="705.94375" y="376.606875" width="651.25625" height="315.915"/>
  </clipPath>
 </defs>
</svg>
