<?xml version="1.0" encoding="utf-8" standalone="no"?>
<!DOCTYPE svg PUBLIC "-//W3C//DTD SVG 1.1//EN"
  "http://www.w3.org/Graphics/SVG/1.1/DTD/svg11.dtd">
<svg xmlns:xlink="http://www.w3.org/1999/xlink" width="1368pt" height="720pt" viewBox="0 0 1368 720" xmlns="http://www.w3.org/2000/svg" version="1.1">
 <metadata>
  <rdf:RDF xmlns:dc="http://purl.org/dc/elements/1.1/" xmlns:cc="http://creativecommons.org/ns#" xmlns:rdf="http://www.w3.org/1999/02/22-rdf-syntax-ns#">
   <cc:Work>
    <dc:type rdf:resource="http://purl.org/dc/dcmitype/StillImage"/>
    <dc:date>2023-05-29T15:05:41.469787</dc:date>
    <dc:format>image/svg+xml</dc:format>
    <dc:creator>
     <cc:Agent>
      <dc:title>Matplotlib v3.7.0, https://matplotlib.org/</dc:title>
     </cc:Agent>
    </dc:creator>
   </cc:Work>
  </rdf:RDF>
 </metadata>
 <defs>
  <style type="text/css">*{stroke-linejoin: round; stroke-linecap: butt}</style>
 </defs>
 <g id="figure_1">
  <g id="patch_1">
   <path d="M 0 720 
L 1368 720 
L 1368 0 
L 0 0 
z
" style="fill: #ffffff"/>
  </g>
  <g id="axes_1">
   <g id="patch_2">
    <path d="M 30.525 349.295625 
L 681.78125 349.295625 
L 681.78125 33.5475 
L 30.525 33.5475 
z
" style="fill: #ffffff"/>
   </g>
   <g id="patch_3">
    <path d="M 246.049843 349.295625 
L 255.169822 349.295625 
L 255.169822 324.23625 
L 246.049843 324.23625 
z
" clip-path="url(#p4c1c902cc1)" style="fill: #f0e68c"/>
   </g>
   <g id="patch_4">
    <path d="M 256.183153 349.295625 
L 265.303132 349.295625 
L 265.303132 349.295625 
L 256.183153 349.295625 
z
" clip-path="url(#p4c1c902cc1)" style="fill: #f0e68c"/>
   </g>
   <g id="patch_5">
    <path d="M 266.316463 349.295625 
L 275.436442 349.295625 
L 275.436442 349.295625 
L 266.316463 349.295625 
z
" clip-path="url(#p4c1c902cc1)" style="fill: #f0e68c"/>
   </g>
   <g id="patch_6">
    <path d="M 276.449773 349.295625 
L 285.569752 349.295625 
L 285.569752 299.176875 
L 276.449773 299.176875 
z
" clip-path="url(#p4c1c902cc1)" style="fill: #f0e68c"/>
   </g>
   <g id="patch_7">
    <path d="M 286.583083 349.295625 
L 295.703063 349.295625 
L 295.703063 349.295625 
L 286.583083 349.295625 
z
" clip-path="url(#p4c1c902cc1)" style="fill: #f0e68c"/>
   </g>
   <g id="patch_8">
    <path d="M 296.716394 349.295625 
L 305.836373 349.295625 
L 305.836373 349.295625 
L 296.716394 349.295625 
z
" clip-path="url(#p4c1c902cc1)" style="fill: #f0e68c"/>
   </g>
   <g id="patch_9">
    <path d="M 306.849704 349.295625 
L 315.969683 349.295625 
L 315.969683 349.295625 
L 306.849704 349.295625 
z
" clip-path="url(#p4c1c902cc1)" style="fill: #f0e68c"/>
   </g>
   <g id="patch_10">
    <path d="M 316.983014 349.295625 
L 326.102993 349.295625 
L 326.102993 349.295625 
L 316.983014 349.295625 
z
" clip-path="url(#p4c1c902cc1)" style="fill: #f0e68c"/>
   </g>
   <g id="patch_11">
    <path d="M 327.116324 349.295625 
L 336.236303 349.295625 
L 336.236303 324.23625 
L 327.116324 324.23625 
z
" clip-path="url(#p4c1c902cc1)" style="fill: #f0e68c"/>
   </g>
   <g id="patch_12">
    <path d="M 337.249634 349.295625 
L 346.369613 349.295625 
L 346.369613 324.23625 
L 337.249634 324.23625 
z
" clip-path="url(#p4c1c902cc1)" style="fill: #f0e68c"/>
   </g>
   <g id="patch_13">
    <path d="M 347.382945 349.295625 
L 356.502924 349.295625 
L 356.502924 299.176875 
L 347.382945 299.176875 
z
" clip-path="url(#p4c1c902cc1)" style="fill: #f0e68c"/>
   </g>
   <g id="patch_14">
    <path d="M 357.516255 349.295625 
L 366.636234 349.295625 
L 366.636234 274.1175 
L 357.516255 274.1175 
z
" clip-path="url(#p4c1c902cc1)" style="fill: #f0e68c"/>
   </g>
   <g id="patch_15">
    <path d="M 367.649565 349.295625 
L 376.769544 349.295625 
L 376.769544 173.88 
L 367.649565 173.88 
z
" clip-path="url(#p4c1c902cc1)" style="fill: #f0e68c"/>
   </g>
   <g id="patch_16">
    <path d="M 377.782875 349.295625 
L 386.902854 349.295625 
L 386.902854 223.99875 
L 377.782875 223.99875 
z
" clip-path="url(#p4c1c902cc1)" style="fill: #f0e68c"/>
   </g>
   <g id="patch_17">
    <path d="M 387.916185 349.295625 
L 397.036164 349.295625 
L 397.036164 249.058125 
L 387.916185 249.058125 
z
" clip-path="url(#p4c1c902cc1)" style="fill: #f0e68c"/>
   </g>
   <g id="patch_18">
    <path d="M 398.049495 349.295625 
L 407.169475 349.295625 
L 407.169475 249.058125 
L 398.049495 249.058125 
z
" clip-path="url(#p4c1c902cc1)" style="fill: #f0e68c"/>
   </g>
   <g id="patch_19">
    <path d="M 408.182806 349.295625 
L 417.302785 349.295625 
L 417.302785 73.6425 
L 408.182806 73.6425 
z
" clip-path="url(#p4c1c902cc1)" style="fill: #f0e68c"/>
   </g>
   <g id="patch_20">
    <path d="M 418.316116 349.295625 
L 427.436095 349.295625 
L 427.436095 249.058125 
L 418.316116 249.058125 
z
" clip-path="url(#p4c1c902cc1)" style="fill: #f0e68c"/>
   </g>
   <g id="patch_21">
    <path d="M 428.449426 349.295625 
L 437.569405 349.295625 
L 437.569405 48.583125 
L 428.449426 48.583125 
z
" clip-path="url(#p4c1c902cc1)" style="fill: #f0e68c"/>
   </g>
   <g id="patch_22">
    <path d="M 438.582736 349.295625 
L 447.702715 349.295625 
L 447.702715 173.88 
L 438.582736 173.88 
z
" clip-path="url(#p4c1c902cc1)" style="fill: #f0e68c"/>
   </g>
   <g id="patch_23">
    <path d="M 448.716046 349.295625 
L 457.836026 349.295625 
L 457.836026 223.99875 
L 448.716046 223.99875 
z
" clip-path="url(#p4c1c902cc1)" style="fill: #f0e68c"/>
   </g>
   <g id="patch_24">
    <path d="M 458.849357 349.295625 
L 467.969336 349.295625 
L 467.969336 198.939375 
L 458.849357 198.939375 
z
" clip-path="url(#p4c1c902cc1)" style="fill: #f0e68c"/>
   </g>
   <g id="patch_25">
    <path d="M 468.982667 349.295625 
L 478.102646 349.295625 
L 478.102646 173.88 
L 468.982667 173.88 
z
" clip-path="url(#p4c1c902cc1)" style="fill: #f0e68c"/>
   </g>
   <g id="patch_26">
    <path d="M 479.115977 349.295625 
L 488.235956 349.295625 
L 488.235956 223.99875 
L 479.115977 223.99875 
z
" clip-path="url(#p4c1c902cc1)" style="fill: #f0e68c"/>
   </g>
   <g id="patch_27">
    <path d="M 489.249287 349.295625 
L 498.369266 349.295625 
L 498.369266 274.1175 
L 489.249287 274.1175 
z
" clip-path="url(#p4c1c902cc1)" style="fill: #f0e68c"/>
   </g>
   <g id="patch_28">
    <path d="M 499.382597 349.295625 
L 508.502576 349.295625 
L 508.502576 173.88 
L 499.382597 173.88 
z
" clip-path="url(#p4c1c902cc1)" style="fill: #f0e68c"/>
   </g>
   <g id="patch_29">
    <path d="M 509.515907 349.295625 
L 518.635887 349.295625 
L 518.635887 349.295625 
L 509.515907 349.295625 
z
" clip-path="url(#p4c1c902cc1)" style="fill: #f0e68c"/>
   </g>
   <g id="patch_30">
    <path d="M 519.649218 349.295625 
L 528.769197 349.295625 
L 528.769197 324.23625 
L 519.649218 324.23625 
z
" clip-path="url(#p4c1c902cc1)" style="fill: #f0e68c"/>
   </g>
   <g id="patch_31">
    <path d="M 529.782528 349.295625 
L 538.902507 349.295625 
L 538.902507 324.23625 
L 529.782528 324.23625 
z
" clip-path="url(#p4c1c902cc1)" style="fill: #f0e68c"/>
   </g>
   <g id="patch_32">
    <path d="M 539.915838 349.295625 
L 549.035817 349.295625 
L 549.035817 324.23625 
L 539.915838 324.23625 
z
" clip-path="url(#p4c1c902cc1)" style="fill: #f0e68c"/>
   </g>
   <g id="matplotlib.axis_1">
    <g id="xtick_1">
     <g id="line2d_1">
      <defs>
       <path id="m03266a0c5c" d="M 0 0 
L 0 3.5 
" style="stroke: #000000; stroke-width: 0.8"/>
      </defs>
      <g>
       <use xlink:href="#m03266a0c5c" x="60.127557" y="349.295625" style="stroke: #000000; stroke-width: 0.8"/>
      </g>
     </g>
     <g id="text_1">
      <!-- 1.0 -->
      <g transform="translate(52.175994 363.894062) scale(0.1 -0.1)">
       <defs>
        <path id="DejaVuSans-31" d="M 794 531 
L 1825 531 
L 1825 4091 
L 703 3866 
L 703 4441 
L 1819 4666 
L 2450 4666 
L 2450 531 
L 3481 531 
L 3481 0 
L 794 0 
L 794 531 
z
" transform="scale(0.015625)"/>
        <path id="DejaVuSans-2e" d="M 684 794 
L 1344 794 
L 1344 0 
L 684 0 
L 684 794 
z
" transform="scale(0.015625)"/>
        <path id="DejaVuSans-30" d="M 2034 4250 
Q 1547 4250 1301 3770 
Q 1056 3291 1056 2328 
Q 1056 1369 1301 889 
Q 1547 409 2034 409 
Q 2525 409 2770 889 
Q 3016 1369 3016 2328 
Q 3016 3291 2770 3770 
Q 2525 4250 2034 4250 
z
M 2034 4750 
Q 2819 4750 3233 4129 
Q 3647 3509 3647 2328 
Q 3647 1150 3233 529 
Q 2819 -91 2034 -91 
Q 1250 -91 836 529 
Q 422 1150 422 2328 
Q 422 3509 836 4129 
Q 1250 4750 2034 4750 
z
" transform="scale(0.015625)"/>
       </defs>
       <use xlink:href="#DejaVuSans-31"/>
       <use xlink:href="#DejaVuSans-2e" x="63.623047"/>
       <use xlink:href="#DejaVuSans-30" x="95.410156"/>
      </g>
     </g>
    </g>
    <g id="xtick_2">
     <g id="line2d_2">
      <g>
       <use xlink:href="#m03266a0c5c" x="158.802746" y="349.295625" style="stroke: #000000; stroke-width: 0.8"/>
      </g>
     </g>
     <g id="text_2">
      <!-- 1.1 -->
      <g transform="translate(150.851184 363.894062) scale(0.1 -0.1)">
       <use xlink:href="#DejaVuSans-31"/>
       <use xlink:href="#DejaVuSans-2e" x="63.623047"/>
       <use xlink:href="#DejaVuSans-31" x="95.410156"/>
      </g>
     </g>
    </g>
    <g id="xtick_3">
     <g id="line2d_3">
      <g>
       <use xlink:href="#m03266a0c5c" x="257.477936" y="349.295625" style="stroke: #000000; stroke-width: 0.8"/>
      </g>
     </g>
     <g id="text_3">
      <!-- 1.2 -->
      <g transform="translate(249.526373 363.894062) scale(0.1 -0.1)">
       <defs>
        <path id="DejaVuSans-32" d="M 1228 531 
L 3431 531 
L 3431 0 
L 469 0 
L 469 531 
Q 828 903 1448 1529 
Q 2069 2156 2228 2338 
Q 2531 2678 2651 2914 
Q 2772 3150 2772 3378 
Q 2772 3750 2511 3984 
Q 2250 4219 1831 4219 
Q 1534 4219 1204 4116 
Q 875 4013 500 3803 
L 500 4441 
Q 881 4594 1212 4672 
Q 1544 4750 1819 4750 
Q 2544 4750 2975 4387 
Q 3406 4025 3406 3419 
Q 3406 3131 3298 2873 
Q 3191 2616 2906 2266 
Q 2828 2175 2409 1742 
Q 1991 1309 1228 531 
z
" transform="scale(0.015625)"/>
       </defs>
       <use xlink:href="#DejaVuSans-31"/>
       <use xlink:href="#DejaVuSans-2e" x="63.623047"/>
       <use xlink:href="#DejaVuSans-32" x="95.410156"/>
      </g>
     </g>
    </g>
    <g id="xtick_4">
     <g id="line2d_4">
      <g>
       <use xlink:href="#m03266a0c5c" x="356.153125" y="349.295625" style="stroke: #000000; stroke-width: 0.8"/>
      </g>
     </g>
     <g id="text_4">
      <!-- 1.3 -->
      <g transform="translate(348.201562 363.894062) scale(0.1 -0.1)">
       <defs>
        <path id="DejaVuSans-33" d="M 2597 2516 
Q 3050 2419 3304 2112 
Q 3559 1806 3559 1356 
Q 3559 666 3084 287 
Q 2609 -91 1734 -91 
Q 1441 -91 1130 -33 
Q 819 25 488 141 
L 488 750 
Q 750 597 1062 519 
Q 1375 441 1716 441 
Q 2309 441 2620 675 
Q 2931 909 2931 1356 
Q 2931 1769 2642 2001 
Q 2353 2234 1838 2234 
L 1294 2234 
L 1294 2753 
L 1863 2753 
Q 2328 2753 2575 2939 
Q 2822 3125 2822 3475 
Q 2822 3834 2567 4026 
Q 2313 4219 1838 4219 
Q 1578 4219 1281 4162 
Q 984 4106 628 3988 
L 628 4550 
Q 988 4650 1302 4700 
Q 1616 4750 1894 4750 
Q 2613 4750 3031 4423 
Q 3450 4097 3450 3541 
Q 3450 3153 3228 2886 
Q 3006 2619 2597 2516 
z
" transform="scale(0.015625)"/>
       </defs>
       <use xlink:href="#DejaVuSans-31"/>
       <use xlink:href="#DejaVuSans-2e" x="63.623047"/>
       <use xlink:href="#DejaVuSans-33" x="95.410156"/>
      </g>
     </g>
    </g>
    <g id="xtick_5">
     <g id="line2d_5">
      <g>
       <use xlink:href="#m03266a0c5c" x="454.828314" y="349.295625" style="stroke: #000000; stroke-width: 0.8"/>
      </g>
     </g>
     <g id="text_5">
      <!-- 1.4 -->
      <g transform="translate(446.876752 363.894062) scale(0.1 -0.1)">
       <defs>
        <path id="DejaVuSans-34" d="M 2419 4116 
L 825 1625 
L 2419 1625 
L 2419 4116 
z
M 2253 4666 
L 3047 4666 
L 3047 1625 
L 3713 1625 
L 3713 1100 
L 3047 1100 
L 3047 0 
L 2419 0 
L 2419 1100 
L 313 1100 
L 313 1709 
L 2253 4666 
z
" transform="scale(0.015625)"/>
       </defs>
       <use xlink:href="#DejaVuSans-31"/>
       <use xlink:href="#DejaVuSans-2e" x="63.623047"/>
       <use xlink:href="#DejaVuSans-34" x="95.410156"/>
      </g>
     </g>
    </g>
    <g id="xtick_6">
     <g id="line2d_6">
      <g>
       <use xlink:href="#m03266a0c5c" x="553.503504" y="349.295625" style="stroke: #000000; stroke-width: 0.8"/>
      </g>
     </g>
     <g id="text_6">
      <!-- 1.5 -->
      <g transform="translate(545.551941 363.894062) scale(0.1 -0.1)">
       <defs>
        <path id="DejaVuSans-35" d="M 691 4666 
L 3169 4666 
L 3169 4134 
L 1269 4134 
L 1269 2991 
Q 1406 3038 1543 3061 
Q 1681 3084 1819 3084 
Q 2600 3084 3056 2656 
Q 3513 2228 3513 1497 
Q 3513 744 3044 326 
Q 2575 -91 1722 -91 
Q 1428 -91 1123 -41 
Q 819 9 494 109 
L 494 744 
Q 775 591 1075 516 
Q 1375 441 1709 441 
Q 2250 441 2565 725 
Q 2881 1009 2881 1497 
Q 2881 1984 2565 2268 
Q 2250 2553 1709 2553 
Q 1456 2553 1204 2497 
Q 953 2441 691 2322 
L 691 4666 
z
" transform="scale(0.015625)"/>
       </defs>
       <use xlink:href="#DejaVuSans-31"/>
       <use xlink:href="#DejaVuSans-2e" x="63.623047"/>
       <use xlink:href="#DejaVuSans-35" x="95.410156"/>
      </g>
     </g>
    </g>
    <g id="xtick_7">
     <g id="line2d_7">
      <g>
       <use xlink:href="#m03266a0c5c" x="652.178693" y="349.295625" style="stroke: #000000; stroke-width: 0.8"/>
      </g>
     </g>
     <g id="text_7">
      <!-- 1.6 -->
      <g transform="translate(644.227131 363.894062) scale(0.1 -0.1)">
       <defs>
        <path id="DejaVuSans-36" d="M 2113 2584 
Q 1688 2584 1439 2293 
Q 1191 2003 1191 1497 
Q 1191 994 1439 701 
Q 1688 409 2113 409 
Q 2538 409 2786 701 
Q 3034 994 3034 1497 
Q 3034 2003 2786 2293 
Q 2538 2584 2113 2584 
z
M 3366 4563 
L 3366 3988 
Q 3128 4100 2886 4159 
Q 2644 4219 2406 4219 
Q 1781 4219 1451 3797 
Q 1122 3375 1075 2522 
Q 1259 2794 1537 2939 
Q 1816 3084 2150 3084 
Q 2853 3084 3261 2657 
Q 3669 2231 3669 1497 
Q 3669 778 3244 343 
Q 2819 -91 2113 -91 
Q 1303 -91 875 529 
Q 447 1150 447 2328 
Q 447 3434 972 4092 
Q 1497 4750 2381 4750 
Q 2619 4750 2861 4703 
Q 3103 4656 3366 4563 
z
" transform="scale(0.015625)"/>
       </defs>
       <use xlink:href="#DejaVuSans-31"/>
       <use xlink:href="#DejaVuSans-2e" x="63.623047"/>
       <use xlink:href="#DejaVuSans-36" x="95.410156"/>
      </g>
     </g>
    </g>
   </g>
   <g id="matplotlib.axis_2">
    <g id="ytick_1">
     <g id="line2d_8">
      <defs>
       <path id="mb53e0e25a0" d="M 0 0 
L -3.5 0 
" style="stroke: #000000; stroke-width: 0.8"/>
      </defs>
      <g>
       <use xlink:href="#mb53e0e25a0" x="30.525" y="349.295625" style="stroke: #000000; stroke-width: 0.8"/>
      </g>
     </g>
     <g id="text_8">
      <!-- 0 -->
      <g transform="translate(17.1625 353.094844) scale(0.1 -0.1)">
       <use xlink:href="#DejaVuSans-30"/>
      </g>
     </g>
    </g>
    <g id="ytick_2">
     <g id="line2d_9">
      <g>
       <use xlink:href="#mb53e0e25a0" x="30.525" y="297.826878" style="stroke: #000000; stroke-width: 0.8"/>
      </g>
     </g>
     <g id="text_9">
      <!-- 2 -->
      <g transform="translate(17.1625 301.626096) scale(0.1 -0.1)">
       <use xlink:href="#DejaVuSans-32"/>
      </g>
     </g>
    </g>
    <g id="ytick_3">
     <g id="line2d_10">
      <g>
       <use xlink:href="#mb53e0e25a0" x="30.525" y="246.35813" style="stroke: #000000; stroke-width: 0.8"/>
      </g>
     </g>
     <g id="text_10">
      <!-- 4 -->
      <g transform="translate(17.1625 250.157349) scale(0.1 -0.1)">
       <use xlink:href="#DejaVuSans-34"/>
      </g>
     </g>
    </g>
    <g id="ytick_4">
     <g id="line2d_11">
      <g>
       <use xlink:href="#mb53e0e25a0" x="30.525" y="194.889383" style="stroke: #000000; stroke-width: 0.8"/>
      </g>
     </g>
     <g id="text_11">
      <!-- 6 -->
      <g transform="translate(17.1625 198.688602) scale(0.1 -0.1)">
       <use xlink:href="#DejaVuSans-36"/>
      </g>
     </g>
    </g>
    <g id="ytick_5">
     <g id="line2d_12">
      <g>
       <use xlink:href="#mb53e0e25a0" x="30.525" y="143.420635" style="stroke: #000000; stroke-width: 0.8"/>
      </g>
     </g>
     <g id="text_12">
      <!-- 8 -->
      <g transform="translate(17.1625 147.219854) scale(0.1 -0.1)">
       <defs>
        <path id="DejaVuSans-38" d="M 2034 2216 
Q 1584 2216 1326 1975 
Q 1069 1734 1069 1313 
Q 1069 891 1326 650 
Q 1584 409 2034 409 
Q 2484 409 2743 651 
Q 3003 894 3003 1313 
Q 3003 1734 2745 1975 
Q 2488 2216 2034 2216 
z
M 1403 2484 
Q 997 2584 770 2862 
Q 544 3141 544 3541 
Q 544 4100 942 4425 
Q 1341 4750 2034 4750 
Q 2731 4750 3128 4425 
Q 3525 4100 3525 3541 
Q 3525 3141 3298 2862 
Q 3072 2584 2669 2484 
Q 3125 2378 3379 2068 
Q 3634 1759 3634 1313 
Q 3634 634 3220 271 
Q 2806 -91 2034 -91 
Q 1263 -91 848 271 
Q 434 634 434 1313 
Q 434 1759 690 2068 
Q 947 2378 1403 2484 
z
M 1172 3481 
Q 1172 3119 1398 2916 
Q 1625 2713 2034 2713 
Q 2441 2713 2670 2916 
Q 2900 3119 2900 3481 
Q 2900 3844 2670 4047 
Q 2441 4250 2034 4250 
Q 1625 4250 1398 4047 
Q 1172 3844 1172 3481 
z
" transform="scale(0.015625)"/>
       </defs>
       <use xlink:href="#DejaVuSans-38"/>
      </g>
     </g>
    </g>
    <g id="ytick_6">
     <g id="line2d_13">
      <g>
       <use xlink:href="#mb53e0e25a0" x="30.525" y="91.951888" style="stroke: #000000; stroke-width: 0.8"/>
      </g>
     </g>
     <g id="text_13">
      <!-- 10 -->
      <g transform="translate(10.8 95.751107) scale(0.1 -0.1)">
       <use xlink:href="#DejaVuSans-31"/>
       <use xlink:href="#DejaVuSans-30" x="63.623047"/>
      </g>
     </g>
    </g>
    <g id="ytick_7">
     <g id="line2d_14">
      <g>
       <use xlink:href="#mb53e0e25a0" x="30.525" y="40.483141" style="stroke: #000000; stroke-width: 0.8"/>
      </g>
     </g>
     <g id="text_14">
      <!-- 12 -->
      <g transform="translate(10.8 44.282359) scale(0.1 -0.1)">
       <use xlink:href="#DejaVuSans-31"/>
       <use xlink:href="#DejaVuSans-32" x="63.623047"/>
      </g>
     </g>
    </g>
   </g>
   <g id="line2d_15">
    <path d="M 60.127557 349.278405 
L 66.107871 349.27569 
L 72.088186 349.272504 
L 78.0685 349.26876 
L 84.048815 349.264353 
L 90.029129 349.259156 
L 96.009444 349.25302 
L 101.989758 349.245765 
L 107.970073 349.237174 
L 113.950387 349.226986 
L 119.930702 349.214891 
L 125.911016 349.200511 
L 131.891331 349.183395 
L 137.871645 349.162999 
L 143.85196 349.138669 
L 149.832274 349.109617 
L 155.812589 349.074894 
L 161.792903 349.033358 
L 167.773218 348.983637 
L 173.753532 348.924079 
L 179.733847 348.852698 
L 185.714162 348.767112 
L 191.694476 348.66446 
L 197.674791 348.541319 
L 203.655105 348.393589 
L 209.63542 348.216377 
L 215.615734 348.00385 
L 221.596049 347.749073 
L 227.576363 347.44382 
L 233.556678 347.078366 
L 239.536992 346.641249 
L 245.517307 346.119016 
L 251.497621 345.495939 
L 257.477936 344.753727 
L 263.45825 343.871217 
L 269.438565 342.824079 
L 275.418879 341.584533 
L 281.399194 340.121115 
L 287.379508 338.398505 
L 293.359823 336.377467 
L 299.340137 334.01494 
L 305.320452 331.264323 
L 311.300766 328.076037 
L 317.281081 324.398407 
L 323.261395 320.178947 
L 329.24171 315.366115 
L 335.222024 309.911605 
L 341.202339 303.773206 
L 347.182653 296.91827 
L 353.162968 289.327751 
L 359.143282 281.000749 
L 365.123597 271.959408 
L 371.103911 262.25395 
L 377.084226 251.96752 
L 383.06454 241.220433 
L 389.044855 230.173313 
L 395.025169 219.028578 
L 401.005484 208.029656 
L 406.985798 197.457375 
L 412.966113 187.623069 
L 418.946427 178.85811 
L 424.926742 171.499871 
L 430.907056 165.874487 
L 436.887371 162.277188 
L 442.867685 160.951445 
L 448.848 162.068559 
L 454.828314 165.709634 
L 460.808629 171.851997 
L 466.788943 180.361999 
L 472.769258 190.995757 
L 478.749572 203.408662 
L 484.729887 217.17364 
L 490.710201 231.807018 
L 496.690516 246.799913 
L 502.67083 261.65213 
L 508.651145 275.905151 
L 514.631459 289.1707 
L 520.611774 301.151909 
L 526.592088 311.655036 
L 532.572403 320.590972 
L 538.552718 327.967138 
L 544.533032 333.871606 
L 550.513347 338.452178 
L 556.493661 341.893501 
L 562.473976 344.395183 
L 568.45429 346.153247 
L 574.434605 347.346395 
L 580.414919 348.127554 
L 586.395234 348.620352 
L 592.375548 348.919547 
L 598.355863 349.094146 
L 604.336177 349.191949 
L 610.316492 349.244462 
L 616.296806 349.27145 
L 622.277121 349.284706 
L 628.257435 349.290918 
L 634.23775 349.293692 
L 640.218064 349.29487 
L 646.198379 349.295345 
L 652.178693 349.295527 
" clip-path="url(#p4c1c902cc1)" style="fill: none; stroke: #000000; stroke-width: 1.5; stroke-linecap: square"/>
   </g>
   <g id="patch_33">
    <path d="M 30.525 349.295625 
L 30.525 33.5475 
" style="fill: none; stroke: #000000; stroke-width: 0.8; stroke-linejoin: miter; stroke-linecap: square"/>
   </g>
   <g id="patch_34">
    <path d="M 681.78125 349.295625 
L 681.78125 33.5475 
" style="fill: none; stroke: #000000; stroke-width: 0.8; stroke-linejoin: miter; stroke-linecap: square"/>
   </g>
   <g id="patch_35">
    <path d="M 30.525 349.295625 
L 681.78125 349.295625 
" style="fill: none; stroke: #000000; stroke-width: 0.8; stroke-linejoin: miter; stroke-linecap: square"/>
   </g>
   <g id="patch_36">
    <path d="M 30.525 33.5475 
L 681.78125 33.5475 
" style="fill: none; stroke: #000000; stroke-width: 0.8; stroke-linejoin: miter; stroke-linecap: square"/>
   </g>
   <g id="legend_1">
    <g id="patch_37">
     <path d="M 623.69375 56.225625 
L 674.78125 56.225625 
Q 676.78125 56.225625 676.78125 54.225625 
L 676.78125 40.5475 
Q 676.78125 38.5475 674.78125 38.5475 
L 623.69375 38.5475 
Q 621.69375 38.5475 621.69375 40.5475 
L 621.69375 54.225625 
Q 621.69375 56.225625 623.69375 56.225625 
z
" style="fill: #ffffff; opacity: 0.8; stroke: #cccccc; stroke-linejoin: miter"/>
    </g>
    <g id="patch_38">
     <path d="M 625.69375 50.145938 
L 645.69375 50.145938 
L 645.69375 43.145938 
L 625.69375 43.145938 
z
" style="fill: #f0e68c"/>
    </g>
    <g id="text_15">
     <!-- 100 -->
     <g transform="translate(653.69375 50.145938) scale(0.1 -0.1)">
      <use xlink:href="#DejaVuSans-31"/>
      <use xlink:href="#DejaVuSans-30" x="63.623047"/>
      <use xlink:href="#DejaVuSans-30" x="127.246094"/>
     </g>
    </g>
   </g>
  </g>
  <g id="axes_2">
   <g id="patch_39">
    <path d="M 705.94375 349.295625 
L 1357.2 349.295625 
L 1357.2 33.5475 
L 705.94375 33.5475 
z
" style="fill: #ffffff"/>
   </g>
   <g id="patch_40">
    <path d="M 915.281783 349.295625 
L 925.344245 349.295625 
L 925.344245 333.040895 
L 915.281783 333.040895 
z
" clip-path="url(#p134d50c484)" style="fill: #f0e68c"/>
   </g>
   <g id="patch_41">
    <path d="M 926.462297 349.295625 
L 936.524759 349.295625 
L 936.524759 324.91353 
L 926.462297 324.91353 
z
" clip-path="url(#p134d50c484)" style="fill: #f0e68c"/>
   </g>
   <g id="patch_42">
    <path d="M 937.642811 349.295625 
L 947.705273 349.295625 
L 947.705273 349.295625 
L 937.642811 349.295625 
z
" clip-path="url(#p134d50c484)" style="fill: #f0e68c"/>
   </g>
   <g id="patch_43">
    <path d="M 948.823325 349.295625 
L 958.885787 349.295625 
L 958.885787 349.295625 
L 948.823325 349.295625 
z
" clip-path="url(#p134d50c484)" style="fill: #f0e68c"/>
   </g>
   <g id="patch_44">
    <path d="M 960.003839 349.295625 
L 970.066301 349.295625 
L 970.066301 316.786166 
L 960.003839 316.786166 
z
" clip-path="url(#p134d50c484)" style="fill: #f0e68c"/>
   </g>
   <g id="patch_45">
    <path d="M 971.184353 349.295625 
L 981.246815 349.295625 
L 981.246815 324.91353 
L 971.184353 324.91353 
z
" clip-path="url(#p134d50c484)" style="fill: #f0e68c"/>
   </g>
   <g id="patch_46">
    <path d="M 982.364866 349.295625 
L 992.427329 349.295625 
L 992.427329 324.91353 
L 982.364866 324.91353 
z
" clip-path="url(#p134d50c484)" style="fill: #f0e68c"/>
   </g>
   <g id="patch_47">
    <path d="M 993.54538 349.295625 
L 1003.607843 349.295625 
L 1003.607843 292.404071 
L 993.54538 292.404071 
z
" clip-path="url(#p134d50c484)" style="fill: #f0e68c"/>
   </g>
   <g id="patch_48">
    <path d="M 1004.725894 349.295625 
L 1014.788357 349.295625 
L 1014.788357 300.531436 
L 1004.725894 300.531436 
z
" clip-path="url(#p134d50c484)" style="fill: #f0e68c"/>
   </g>
   <g id="patch_49">
    <path d="M 1015.906408 349.295625 
L 1025.968871 349.295625 
L 1025.968871 292.404071 
L 1015.906408 292.404071 
z
" clip-path="url(#p134d50c484)" style="fill: #f0e68c"/>
   </g>
   <g id="patch_50">
    <path d="M 1027.086922 349.295625 
L 1037.149385 349.295625 
L 1037.149385 243.639882 
L 1027.086922 243.639882 
z
" clip-path="url(#p134d50c484)" style="fill: #f0e68c"/>
   </g>
   <g id="patch_51">
    <path d="M 1038.267436 349.295625 
L 1048.329899 349.295625 
L 1048.329899 243.639882 
L 1038.267436 243.639882 
z
" clip-path="url(#p134d50c484)" style="fill: #f0e68c"/>
   </g>
   <g id="patch_52">
    <path d="M 1049.44795 349.295625 
L 1059.510413 349.295625 
L 1059.510413 178.620963 
L 1049.44795 178.620963 
z
" clip-path="url(#p134d50c484)" style="fill: #f0e68c"/>
   </g>
   <g id="patch_53">
    <path d="M 1060.628464 349.295625 
L 1070.690927 349.295625 
L 1070.690927 186.748328 
L 1060.628464 186.748328 
z
" clip-path="url(#p134d50c484)" style="fill: #f0e68c"/>
   </g>
   <g id="patch_54">
    <path d="M 1071.808978 349.295625 
L 1081.87144 349.295625 
L 1081.87144 129.856774 
L 1071.808978 129.856774 
z
" clip-path="url(#p134d50c484)" style="fill: #f0e68c"/>
   </g>
   <g id="patch_55">
    <path d="M 1082.989492 349.295625 
L 1093.051954 349.295625 
L 1093.051954 105.474679 
L 1082.989492 105.474679 
z
" clip-path="url(#p134d50c484)" style="fill: #f0e68c"/>
   </g>
   <g id="patch_56">
    <path d="M 1094.170006 349.295625 
L 1104.232468 349.295625 
L 1104.232468 105.474679 
L 1094.170006 105.474679 
z
" clip-path="url(#p134d50c484)" style="fill: #f0e68c"/>
   </g>
   <g id="patch_57">
    <path d="M 1105.35052 349.295625 
L 1115.412982 349.295625 
L 1115.412982 146.111503 
L 1105.35052 146.111503 
z
" clip-path="url(#p134d50c484)" style="fill: #f0e68c"/>
   </g>
   <g id="patch_58">
    <path d="M 1116.531034 349.295625 
L 1126.593496 349.295625 
L 1126.593496 48.583125 
L 1116.531034 48.583125 
z
" clip-path="url(#p134d50c484)" style="fill: #f0e68c"/>
   </g>
   <g id="patch_59">
    <path d="M 1127.711548 349.295625 
L 1137.77401 349.295625 
L 1137.77401 81.092584 
L 1127.711548 81.092584 
z
" clip-path="url(#p134d50c484)" style="fill: #f0e68c"/>
   </g>
   <g id="patch_60">
    <path d="M 1138.892061 349.295625 
L 1148.954524 349.295625 
L 1148.954524 178.620963 
L 1138.892061 178.620963 
z
" clip-path="url(#p134d50c484)" style="fill: #f0e68c"/>
   </g>
   <g id="patch_61">
    <path d="M 1150.072575 349.295625 
L 1160.135038 349.295625 
L 1160.135038 162.366233 
L 1150.072575 162.366233 
z
" clip-path="url(#p134d50c484)" style="fill: #f0e68c"/>
   </g>
   <g id="patch_62">
    <path d="M 1161.253089 349.295625 
L 1171.315552 349.295625 
L 1171.315552 186.748328 
L 1161.253089 186.748328 
z
" clip-path="url(#p134d50c484)" style="fill: #f0e68c"/>
   </g>
   <g id="patch_63">
    <path d="M 1172.433603 349.295625 
L 1182.496066 349.295625 
L 1182.496066 259.894611 
L 1172.433603 259.894611 
z
" clip-path="url(#p134d50c484)" style="fill: #f0e68c"/>
   </g>
   <g id="patch_64">
    <path d="M 1183.614117 349.295625 
L 1193.67658 349.295625 
L 1193.67658 211.130422 
L 1183.614117 211.130422 
z
" clip-path="url(#p134d50c484)" style="fill: #f0e68c"/>
   </g>
   <g id="patch_65">
    <path d="M 1194.794631 349.295625 
L 1204.857094 349.295625 
L 1204.857094 276.149341 
L 1194.794631 276.149341 
z
" clip-path="url(#p134d50c484)" style="fill: #f0e68c"/>
   </g>
   <g id="patch_66">
    <path d="M 1205.975145 349.295625 
L 1216.037608 349.295625 
L 1216.037608 292.404071 
L 1205.975145 292.404071 
z
" clip-path="url(#p134d50c484)" style="fill: #f0e68c"/>
   </g>
   <g id="patch_67">
    <path d="M 1217.155659 349.295625 
L 1227.218122 349.295625 
L 1227.218122 300.531436 
L 1217.155659 300.531436 
z
" clip-path="url(#p134d50c484)" style="fill: #f0e68c"/>
   </g>
   <g id="patch_68">
    <path d="M 1228.336173 349.295625 
L 1238.398635 349.295625 
L 1238.398635 349.295625 
L 1228.336173 349.295625 
z
" clip-path="url(#p134d50c484)" style="fill: #f0e68c"/>
   </g>
   <g id="patch_69">
    <path d="M 1239.516687 349.295625 
L 1249.579149 349.295625 
L 1249.579149 333.040895 
L 1239.516687 333.040895 
z
" clip-path="url(#p134d50c484)" style="fill: #f0e68c"/>
   </g>
   <g id="matplotlib.axis_3">
    <g id="xtick_8">
     <g id="line2d_16">
      <g>
       <use xlink:href="#m03266a0c5c" x="735.546307" y="349.295625" style="stroke: #000000; stroke-width: 0.8"/>
      </g>
     </g>
     <g id="text_16">
      <!-- 1.0 -->
      <g transform="translate(727.594744 363.894062) scale(0.1 -0.1)">
       <use xlink:href="#DejaVuSans-31"/>
       <use xlink:href="#DejaVuSans-2e" x="63.623047"/>
       <use xlink:href="#DejaVuSans-30" x="95.410156"/>
      </g>
     </g>
    </g>
    <g id="xtick_9">
     <g id="line2d_17">
      <g>
       <use xlink:href="#m03266a0c5c" x="834.221496" y="349.295625" style="stroke: #000000; stroke-width: 0.8"/>
      </g>
     </g>
     <g id="text_17">
      <!-- 1.1 -->
      <g transform="translate(826.269934 363.894062) scale(0.1 -0.1)">
       <use xlink:href="#DejaVuSans-31"/>
       <use xlink:href="#DejaVuSans-2e" x="63.623047"/>
       <use xlink:href="#DejaVuSans-31" x="95.410156"/>
      </g>
     </g>
    </g>
    <g id="xtick_10">
     <g id="line2d_18">
      <g>
       <use xlink:href="#m03266a0c5c" x="932.896686" y="349.295625" style="stroke: #000000; stroke-width: 0.8"/>
      </g>
     </g>
     <g id="text_18">
      <!-- 1.2 -->
      <g transform="translate(924.945123 363.894062) scale(0.1 -0.1)">
       <use xlink:href="#DejaVuSans-31"/>
       <use xlink:href="#DejaVuSans-2e" x="63.623047"/>
       <use xlink:href="#DejaVuSans-32" x="95.410156"/>
      </g>
     </g>
    </g>
    <g id="xtick_11">
     <g id="line2d_19">
      <g>
       <use xlink:href="#m03266a0c5c" x="1031.571875" y="349.295625" style="stroke: #000000; stroke-width: 0.8"/>
      </g>
     </g>
     <g id="text_19">
      <!-- 1.3 -->
      <g transform="translate(1023.620313 363.894062) scale(0.1 -0.1)">
       <use xlink:href="#DejaVuSans-31"/>
       <use xlink:href="#DejaVuSans-2e" x="63.623047"/>
       <use xlink:href="#DejaVuSans-33" x="95.410156"/>
      </g>
     </g>
    </g>
    <g id="xtick_12">
     <g id="line2d_20">
      <g>
       <use xlink:href="#m03266a0c5c" x="1130.247064" y="349.295625" style="stroke: #000000; stroke-width: 0.8"/>
      </g>
     </g>
     <g id="text_20">
      <!-- 1.4 -->
      <g transform="translate(1122.295502 363.894062) scale(0.1 -0.1)">
       <use xlink:href="#DejaVuSans-31"/>
       <use xlink:href="#DejaVuSans-2e" x="63.623047"/>
       <use xlink:href="#DejaVuSans-34" x="95.410156"/>
      </g>
     </g>
    </g>
    <g id="xtick_13">
     <g id="line2d_21">
      <g>
       <use xlink:href="#m03266a0c5c" x="1228.922254" y="349.295625" style="stroke: #000000; stroke-width: 0.8"/>
      </g>
     </g>
     <g id="text_21">
      <!-- 1.5 -->
      <g transform="translate(1220.970691 363.894062) scale(0.1 -0.1)">
       <use xlink:href="#DejaVuSans-31"/>
       <use xlink:href="#DejaVuSans-2e" x="63.623047"/>
       <use xlink:href="#DejaVuSans-35" x="95.410156"/>
      </g>
     </g>
    </g>
    <g id="xtick_14">
     <g id="line2d_22">
      <g>
       <use xlink:href="#m03266a0c5c" x="1327.597443" y="349.295625" style="stroke: #000000; stroke-width: 0.8"/>
      </g>
     </g>
     <g id="text_22">
      <!-- 1.6 -->
      <g transform="translate(1319.645881 363.894062) scale(0.1 -0.1)">
       <use xlink:href="#DejaVuSans-31"/>
       <use xlink:href="#DejaVuSans-2e" x="63.623047"/>
       <use xlink:href="#DejaVuSans-36" x="95.410156"/>
      </g>
     </g>
    </g>
   </g>
   <g id="matplotlib.axis_4">
    <g id="ytick_8">
     <g id="line2d_23">
      <g>
       <use xlink:href="#mb53e0e25a0" x="705.94375" y="349.295625" style="stroke: #000000; stroke-width: 0.8"/>
      </g>
     </g>
     <g id="text_23">
      <!-- 0 -->
      <g transform="translate(692.58125 353.094844) scale(0.1 -0.1)">
       <use xlink:href="#DejaVuSans-30"/>
      </g>
     </g>
    </g>
    <g id="ytick_9">
     <g id="line2d_24">
      <g>
       <use xlink:href="#mb53e0e25a0" x="705.94375" y="312.460381" style="stroke: #000000; stroke-width: 0.8"/>
      </g>
     </g>
     <g id="text_24">
      <!-- 1 -->
      <g transform="translate(692.58125 316.2596) scale(0.1 -0.1)">
       <use xlink:href="#DejaVuSans-31"/>
      </g>
     </g>
    </g>
    <g id="ytick_10">
     <g id="line2d_25">
      <g>
       <use xlink:href="#mb53e0e25a0" x="705.94375" y="275.625138" style="stroke: #000000; stroke-width: 0.8"/>
      </g>
     </g>
     <g id="text_25">
      <!-- 2 -->
      <g transform="translate(692.58125 279.424356) scale(0.1 -0.1)">
       <use xlink:href="#DejaVuSans-32"/>
      </g>
     </g>
    </g>
    <g id="ytick_11">
     <g id="line2d_26">
      <g>
       <use xlink:href="#mb53e0e25a0" x="705.94375" y="238.789894" style="stroke: #000000; stroke-width: 0.8"/>
      </g>
     </g>
     <g id="text_26">
      <!-- 3 -->
      <g transform="translate(692.58125 242.589113) scale(0.1 -0.1)">
       <use xlink:href="#DejaVuSans-33"/>
      </g>
     </g>
    </g>
    <g id="ytick_12">
     <g id="line2d_27">
      <g>
       <use xlink:href="#mb53e0e25a0" x="705.94375" y="201.95465" style="stroke: #000000; stroke-width: 0.8"/>
      </g>
     </g>
     <g id="text_27">
      <!-- 4 -->
      <g transform="translate(692.58125 205.753869) scale(0.1 -0.1)">
       <use xlink:href="#DejaVuSans-34"/>
      </g>
     </g>
    </g>
    <g id="ytick_13">
     <g id="line2d_28">
      <g>
       <use xlink:href="#mb53e0e25a0" x="705.94375" y="165.119407" style="stroke: #000000; stroke-width: 0.8"/>
      </g>
     </g>
     <g id="text_28">
      <!-- 5 -->
      <g transform="translate(692.58125 168.918626) scale(0.1 -0.1)">
       <use xlink:href="#DejaVuSans-35"/>
      </g>
     </g>
    </g>
    <g id="ytick_14">
     <g id="line2d_29">
      <g>
       <use xlink:href="#mb53e0e25a0" x="705.94375" y="128.284163" style="stroke: #000000; stroke-width: 0.8"/>
      </g>
     </g>
     <g id="text_29">
      <!-- 6 -->
      <g transform="translate(692.58125 132.083382) scale(0.1 -0.1)">
       <use xlink:href="#DejaVuSans-36"/>
      </g>
     </g>
    </g>
    <g id="ytick_15">
     <g id="line2d_30">
      <g>
       <use xlink:href="#mb53e0e25a0" x="705.94375" y="91.448919" style="stroke: #000000; stroke-width: 0.8"/>
      </g>
     </g>
     <g id="text_30">
      <!-- 7 -->
      <g transform="translate(692.58125 95.248138) scale(0.1 -0.1)">
       <defs>
        <path id="DejaVuSans-37" d="M 525 4666 
L 3525 4666 
L 3525 4397 
L 1831 0 
L 1172 0 
L 2766 4134 
L 525 4134 
L 525 4666 
z
" transform="scale(0.015625)"/>
       </defs>
       <use xlink:href="#DejaVuSans-37"/>
      </g>
     </g>
    </g>
    <g id="ytick_16">
     <g id="line2d_31">
      <g>
       <use xlink:href="#mb53e0e25a0" x="705.94375" y="54.613676" style="stroke: #000000; stroke-width: 0.8"/>
      </g>
     </g>
     <g id="text_31">
      <!-- 8 -->
      <g transform="translate(692.58125 58.412895) scale(0.1 -0.1)">
       <use xlink:href="#DejaVuSans-38"/>
      </g>
     </g>
    </g>
   </g>
   <g id="line2d_32">
    <path d="M 735.546307 349.270977 
L 741.526621 349.267091 
L 747.506936 349.262531 
L 753.48725 349.257172 
L 759.467565 349.250863 
L 765.447879 349.243425 
L 771.428194 349.234642 
L 777.408508 349.224257 
L 783.388823 349.21196 
L 789.369137 349.197378 
L 795.349452 349.180065 
L 801.329766 349.159482 
L 807.310081 349.134983 
L 813.290395 349.105789 
L 819.27071 349.070964 
L 825.251024 349.02938 
L 831.231339 348.979678 
L 837.211653 348.920226 
L 843.191968 348.849057 
L 849.172282 348.763807 
L 855.152597 348.661635 
L 861.132912 348.53913 
L 867.113226 348.392199 
L 873.093541 348.215939 
L 879.073855 348.004484 
L 885.05417 347.750829 
L 891.034484 347.446626 
L 897.014799 347.081947 
L 902.995113 346.645019 
L 908.975428 346.121921 
L 914.955742 345.496248 
L 920.936057 344.748742 
L 926.916371 343.856893 
L 932.896686 342.794518 
L 938.877 341.531325 
L 944.857315 340.032489 
L 950.837629 338.258249 
L 956.817944 336.163566 
L 962.798258 333.697885 
L 968.778573 330.805045 
L 974.758887 327.423409 
L 980.739202 323.486277 
L 986.719516 318.922681 
L 992.699831 313.658655 
L 998.680145 307.619074 
L 1004.66046 300.730163 
L 1010.640774 292.922776 
L 1016.621089 284.136495 
L 1022.601403 274.32459 
L 1028.581718 263.459798 
L 1034.562032 251.540831 
L 1040.542347 238.599385 
L 1046.522661 224.707346 
L 1052.502976 209.983727 
L 1058.48329 194.600738 
L 1064.463605 178.788294 
L 1070.443919 162.836127 
L 1076.424234 147.09267 
L 1082.404548 131.959893 
L 1088.384863 117.883426 
L 1094.365177 105.337583 
L 1100.345492 94.80527 
L 1106.325806 86.7533 
L 1112.306121 81.604258 
L 1118.286435 79.706637 
L 1124.26675 81.305633 
L 1130.247064 86.517335 
L 1136.227379 95.309289 
L 1142.207693 107.490197 
L 1148.188008 122.710969 
L 1154.168322 140.478349 
L 1160.148637 160.181035 
L 1166.128951 181.12672 
L 1172.109266 202.587002 
L 1178.08958 223.845923 
L 1184.069895 244.247178 
L 1190.050209 263.235001 
L 1196.030524 280.384466 
L 1202.010838 295.418259 
L 1207.991153 308.208832 
L 1213.971468 318.766806 
L 1219.951782 327.218246 
L 1225.932097 333.77471 
L 1231.912411 338.700495 
L 1237.892726 342.281311 
L 1243.87304 344.79774 
L 1249.853355 346.505568 
L 1255.833669 347.62369 
L 1261.813984 348.329064 
L 1267.794298 348.757321 
L 1273.774613 349.007236 
L 1279.754927 349.147226 
L 1285.735242 349.222392 
L 1291.715556 349.261022 
L 1297.695871 349.279995 
L 1303.676185 349.288888 
L 1309.6565 349.292859 
L 1315.636814 349.294545 
L 1321.617129 349.295225 
L 1327.597443 349.295484 
" clip-path="url(#p134d50c484)" style="fill: none; stroke: #000000; stroke-width: 1.5; stroke-linecap: square"/>
   </g>
   <g id="patch_70">
    <path d="M 705.94375 349.295625 
L 705.94375 33.5475 
" style="fill: none; stroke: #000000; stroke-width: 0.8; stroke-linejoin: miter; stroke-linecap: square"/>
   </g>
   <g id="patch_71">
    <path d="M 1357.2 349.295625 
L 1357.2 33.5475 
" style="fill: none; stroke: #000000; stroke-width: 0.8; stroke-linejoin: miter; stroke-linecap: square"/>
   </g>
   <g id="patch_72">
    <path d="M 705.94375 349.295625 
L 1357.2 349.295625 
" style="fill: none; stroke: #000000; stroke-width: 0.8; stroke-linejoin: miter; stroke-linecap: square"/>
   </g>
   <g id="patch_73">
    <path d="M 705.94375 33.5475 
L 1357.2 33.5475 
" style="fill: none; stroke: #000000; stroke-width: 0.8; stroke-linejoin: miter; stroke-linecap: square"/>
   </g>
   <g id="legend_2">
    <g id="patch_74">
     <path d="M 1299.1125 56.225625 
L 1350.2 56.225625 
Q 1352.2 56.225625 1352.2 54.225625 
L 1352.2 40.5475 
Q 1352.2 38.5475 1350.2 38.5475 
L 1299.1125 38.5475 
Q 1297.1125 38.5475 1297.1125 40.5475 
L 1297.1125 54.225625 
Q 1297.1125 56.225625 1299.1125 56.225625 
z
" style="fill: #ffffff; opacity: 0.8; stroke: #cccccc; stroke-linejoin: miter"/>
    </g>
    <g id="patch_75">
     <path d="M 1301.1125 50.145938 
L 1321.1125 50.145938 
L 1321.1125 43.145938 
L 1301.1125 43.145938 
z
" style="fill: #f0e68c"/>
    </g>
    <g id="text_32">
     <!-- 400 -->
     <g transform="translate(1329.1125 50.145938) scale(0.1 -0.1)">
      <use xlink:href="#DejaVuSans-34"/>
      <use xlink:href="#DejaVuSans-30" x="63.623047"/>
      <use xlink:href="#DejaVuSans-30" x="127.246094"/>
     </g>
    </g>
   </g>
  </g>
  <g id="axes_3">
   <g id="patch_76">
    <path d="M 30.525 692.521875 
L 681.78125 692.521875 
L 681.78125 376.77375 
L 30.525 376.77375 
z
" style="fill: #ffffff"/>
   </g>
   <g id="patch_77">
    <path d="M 90.145414 692.521875 
L 104.499396 692.521875 
L 104.499396 690.19077 
L 90.145414 690.19077 
z
" clip-path="url(#p37ae1e11a3)" style="fill: #f0e68c"/>
   </g>
   <g id="patch_78">
    <path d="M 106.094282 692.521875 
L 120.448264 692.521875 
L 120.448264 692.521875 
L 106.094282 692.521875 
z
" clip-path="url(#p37ae1e11a3)" style="fill: #f0e68c"/>
   </g>
   <g id="patch_79">
    <path d="M 122.043151 692.521875 
L 136.397133 692.521875 
L 136.397133 692.521875 
L 122.043151 692.521875 
z
" clip-path="url(#p37ae1e11a3)" style="fill: #f0e68c"/>
   </g>
   <g id="patch_80">
    <path d="M 137.99202 692.521875 
L 152.346002 692.521875 
L 152.346002 692.521875 
L 137.99202 692.521875 
z
" clip-path="url(#p37ae1e11a3)" style="fill: #f0e68c"/>
   </g>
   <g id="patch_81">
    <path d="M 153.940889 692.521875 
L 168.29487 692.521875 
L 168.29487 692.521875 
L 153.940889 692.521875 
z
" clip-path="url(#p37ae1e11a3)" style="fill: #f0e68c"/>
   </g>
   <g id="patch_82">
    <path d="M 169.889757 692.521875 
L 184.243739 692.521875 
L 184.243739 692.521875 
L 169.889757 692.521875 
z
" clip-path="url(#p37ae1e11a3)" style="fill: #f0e68c"/>
   </g>
   <g id="patch_83">
    <path d="M 185.838626 692.521875 
L 200.192608 692.521875 
L 200.192608 690.19077 
L 185.838626 690.19077 
z
" clip-path="url(#p37ae1e11a3)" style="fill: #f0e68c"/>
   </g>
   <g id="patch_84">
    <path d="M 201.787495 692.521875 
L 216.141477 692.521875 
L 216.141477 687.859666 
L 201.787495 687.859666 
z
" clip-path="url(#p37ae1e11a3)" style="fill: #f0e68c"/>
   </g>
   <g id="patch_85">
    <path d="M 217.736364 692.521875 
L 232.090345 692.521875 
L 232.090345 685.528561 
L 217.736364 685.528561 
z
" clip-path="url(#p37ae1e11a3)" style="fill: #f0e68c"/>
   </g>
   <g id="patch_86">
    <path d="M 233.685232 692.521875 
L 248.039214 692.521875 
L 248.039214 687.859666 
L 233.685232 687.859666 
z
" clip-path="url(#p37ae1e11a3)" style="fill: #f0e68c"/>
   </g>
   <g id="patch_87">
    <path d="M 249.634101 692.521875 
L 263.988083 692.521875 
L 263.988083 692.521875 
L 249.634101 692.521875 
z
" clip-path="url(#p37ae1e11a3)" style="fill: #f0e68c"/>
   </g>
   <g id="patch_88">
    <path d="M 265.58297 692.521875 
L 279.936952 692.521875 
L 279.936952 690.19077 
L 265.58297 690.19077 
z
" clip-path="url(#p37ae1e11a3)" style="fill: #f0e68c"/>
   </g>
   <g id="patch_89">
    <path d="M 281.531838 692.521875 
L 295.88582 692.521875 
L 295.88582 676.204142 
L 281.531838 676.204142 
z
" clip-path="url(#p37ae1e11a3)" style="fill: #f0e68c"/>
   </g>
   <g id="patch_90">
    <path d="M 297.480707 692.521875 
L 311.834689 692.521875 
L 311.834689 655.224201 
L 297.480707 655.224201 
z
" clip-path="url(#p37ae1e11a3)" style="fill: #f0e68c"/>
   </g>
   <g id="patch_91">
    <path d="M 313.429576 692.521875 
L 327.783558 692.521875 
L 327.783558 657.555305 
L 313.429576 657.555305 
z
" clip-path="url(#p37ae1e11a3)" style="fill: #f0e68c"/>
   </g>
   <g id="patch_92">
    <path d="M 329.378445 692.521875 
L 343.732427 692.521875 
L 343.732427 622.588735 
L 329.378445 622.588735 
z
" clip-path="url(#p37ae1e11a3)" style="fill: #f0e68c"/>
   </g>
   <g id="patch_93">
    <path d="M 345.327313 692.521875 
L 359.681295 692.521875 
L 359.681295 615.595422 
L 345.327313 615.595422 
z
" clip-path="url(#p37ae1e11a3)" style="fill: #f0e68c"/>
   </g>
   <g id="patch_94">
    <path d="M 361.276182 692.521875 
L 375.630164 692.521875 
L 375.630164 573.635538 
L 361.276182 573.635538 
z
" clip-path="url(#p37ae1e11a3)" style="fill: #f0e68c"/>
   </g>
   <g id="patch_95">
    <path d="M 377.225051 692.521875 
L 391.579033 692.521875 
L 391.579033 531.675654 
L 377.225051 531.675654 
z
" clip-path="url(#p37ae1e11a3)" style="fill: #f0e68c"/>
   </g>
   <g id="patch_96">
    <path d="M 393.17392 692.521875 
L 407.527901 692.521875 
L 407.527901 466.404724 
L 393.17392 466.404724 
z
" clip-path="url(#p37ae1e11a3)" style="fill: #f0e68c"/>
   </g>
   <g id="patch_97">
    <path d="M 409.122788 692.521875 
L 423.47677 692.521875 
L 423.47677 438.431468 
L 409.122788 438.431468 
z
" clip-path="url(#p37ae1e11a3)" style="fill: #f0e68c"/>
   </g>
   <g id="patch_98">
    <path d="M 425.071657 692.521875 
L 439.425639 692.521875 
L 439.425639 391.809375 
L 425.071657 391.809375 
z
" clip-path="url(#p37ae1e11a3)" style="fill: #f0e68c"/>
   </g>
   <g id="patch_99">
    <path d="M 441.020526 692.521875 
L 455.374508 692.521875 
L 455.374508 450.086991 
L 441.020526 450.086991 
z
" clip-path="url(#p37ae1e11a3)" style="fill: #f0e68c"/>
   </g>
   <g id="patch_100">
    <path d="M 456.969395 692.521875 
L 471.323376 692.521875 
L 471.323376 450.086991 
L 456.969395 450.086991 
z
" clip-path="url(#p37ae1e11a3)" style="fill: #f0e68c"/>
   </g>
   <g id="patch_101">
    <path d="M 472.918263 692.521875 
L 487.272245 692.521875 
L 487.272245 485.053561 
L 472.918263 485.053561 
z
" clip-path="url(#p37ae1e11a3)" style="fill: #f0e68c"/>
   </g>
   <g id="patch_102">
    <path d="M 488.867132 692.521875 
L 503.221114 692.521875 
L 503.221114 517.689026 
L 488.867132 517.689026 
z
" clip-path="url(#p37ae1e11a3)" style="fill: #f0e68c"/>
   </g>
   <g id="patch_103">
    <path d="M 504.816001 692.521875 
L 519.169983 692.521875 
L 519.169983 606.271003 
L 504.816001 606.271003 
z
" clip-path="url(#p37ae1e11a3)" style="fill: #f0e68c"/>
   </g>
   <g id="patch_104">
    <path d="M 520.764869 692.521875 
L 535.118851 692.521875 
L 535.118851 664.548619 
L 520.764869 664.548619 
z
" clip-path="url(#p37ae1e11a3)" style="fill: #f0e68c"/>
   </g>
   <g id="patch_105">
    <path d="M 536.713738 692.521875 
L 551.06772 692.521875 
L 551.06772 673.873038 
L 536.713738 673.873038 
z
" clip-path="url(#p37ae1e11a3)" style="fill: #f0e68c"/>
   </g>
   <g id="patch_106">
    <path d="M 552.662607 692.521875 
L 567.016589 692.521875 
L 567.016589 680.866352 
L 552.662607 680.866352 
z
" clip-path="url(#p37ae1e11a3)" style="fill: #f0e68c"/>
   </g>
   <g id="matplotlib.axis_5">
    <g id="xtick_15">
     <g id="line2d_33">
      <g>
       <use xlink:href="#m03266a0c5c" x="60.127557" y="692.521875" style="stroke: #000000; stroke-width: 0.8"/>
      </g>
     </g>
     <g id="text_33">
      <!-- 1.0 -->
      <g transform="translate(52.175994 707.120312) scale(0.1 -0.1)">
       <use xlink:href="#DejaVuSans-31"/>
       <use xlink:href="#DejaVuSans-2e" x="63.623047"/>
       <use xlink:href="#DejaVuSans-30" x="95.410156"/>
      </g>
     </g>
    </g>
    <g id="xtick_16">
     <g id="line2d_34">
      <g>
       <use xlink:href="#m03266a0c5c" x="158.802746" y="692.521875" style="stroke: #000000; stroke-width: 0.8"/>
      </g>
     </g>
     <g id="text_34">
      <!-- 1.1 -->
      <g transform="translate(150.851184 707.120312) scale(0.1 -0.1)">
       <use xlink:href="#DejaVuSans-31"/>
       <use xlink:href="#DejaVuSans-2e" x="63.623047"/>
       <use xlink:href="#DejaVuSans-31" x="95.410156"/>
      </g>
     </g>
    </g>
    <g id="xtick_17">
     <g id="line2d_35">
      <g>
       <use xlink:href="#m03266a0c5c" x="257.477936" y="692.521875" style="stroke: #000000; stroke-width: 0.8"/>
      </g>
     </g>
     <g id="text_35">
      <!-- 1.2 -->
      <g transform="translate(249.526373 707.120312) scale(0.1 -0.1)">
       <use xlink:href="#DejaVuSans-31"/>
       <use xlink:href="#DejaVuSans-2e" x="63.623047"/>
       <use xlink:href="#DejaVuSans-32" x="95.410156"/>
      </g>
     </g>
    </g>
    <g id="xtick_18">
     <g id="line2d_36">
      <g>
       <use xlink:href="#m03266a0c5c" x="356.153125" y="692.521875" style="stroke: #000000; stroke-width: 0.8"/>
      </g>
     </g>
     <g id="text_36">
      <!-- 1.3 -->
      <g transform="translate(348.201562 707.120312) scale(0.1 -0.1)">
       <use xlink:href="#DejaVuSans-31"/>
       <use xlink:href="#DejaVuSans-2e" x="63.623047"/>
       <use xlink:href="#DejaVuSans-33" x="95.410156"/>
      </g>
     </g>
    </g>
    <g id="xtick_19">
     <g id="line2d_37">
      <g>
       <use xlink:href="#m03266a0c5c" x="454.828314" y="692.521875" style="stroke: #000000; stroke-width: 0.8"/>
      </g>
     </g>
     <g id="text_37">
      <!-- 1.4 -->
      <g transform="translate(446.876752 707.120312) scale(0.1 -0.1)">
       <use xlink:href="#DejaVuSans-31"/>
       <use xlink:href="#DejaVuSans-2e" x="63.623047"/>
       <use xlink:href="#DejaVuSans-34" x="95.410156"/>
      </g>
     </g>
    </g>
    <g id="xtick_20">
     <g id="line2d_38">
      <g>
       <use xlink:href="#m03266a0c5c" x="553.503504" y="692.521875" style="stroke: #000000; stroke-width: 0.8"/>
      </g>
     </g>
     <g id="text_38">
      <!-- 1.5 -->
      <g transform="translate(545.551941 707.120312) scale(0.1 -0.1)">
       <use xlink:href="#DejaVuSans-31"/>
       <use xlink:href="#DejaVuSans-2e" x="63.623047"/>
       <use xlink:href="#DejaVuSans-35" x="95.410156"/>
      </g>
     </g>
    </g>
    <g id="xtick_21">
     <g id="line2d_39">
      <g>
       <use xlink:href="#m03266a0c5c" x="652.178693" y="692.521875" style="stroke: #000000; stroke-width: 0.8"/>
      </g>
     </g>
     <g id="text_39">
      <!-- 1.6 -->
      <g transform="translate(644.227131 707.120312) scale(0.1 -0.1)">
       <use xlink:href="#DejaVuSans-31"/>
       <use xlink:href="#DejaVuSans-2e" x="63.623047"/>
       <use xlink:href="#DejaVuSans-36" x="95.410156"/>
      </g>
     </g>
    </g>
   </g>
   <g id="matplotlib.axis_6">
    <g id="ytick_17">
     <g id="line2d_40">
      <g>
       <use xlink:href="#mb53e0e25a0" x="30.525" y="692.521875" style="stroke: #000000; stroke-width: 0.8"/>
      </g>
     </g>
     <g id="text_40">
      <!-- 0 -->
      <g transform="translate(17.1625 696.321094) scale(0.1 -0.1)">
       <use xlink:href="#DejaVuSans-30"/>
      </g>
     </g>
    </g>
    <g id="ytick_18">
     <g id="line2d_41">
      <g>
       <use xlink:href="#mb53e0e25a0" x="30.525" y="654.844236" style="stroke: #000000; stroke-width: 0.8"/>
      </g>
     </g>
     <g id="text_41">
      <!-- 1 -->
      <g transform="translate(17.1625 658.643454) scale(0.1 -0.1)">
       <use xlink:href="#DejaVuSans-31"/>
      </g>
     </g>
    </g>
    <g id="ytick_19">
     <g id="line2d_42">
      <g>
       <use xlink:href="#mb53e0e25a0" x="30.525" y="617.166596" style="stroke: #000000; stroke-width: 0.8"/>
      </g>
     </g>
     <g id="text_42">
      <!-- 2 -->
      <g transform="translate(17.1625 620.965815) scale(0.1 -0.1)">
       <use xlink:href="#DejaVuSans-32"/>
      </g>
     </g>
    </g>
    <g id="ytick_20">
     <g id="line2d_43">
      <g>
       <use xlink:href="#mb53e0e25a0" x="30.525" y="579.488957" style="stroke: #000000; stroke-width: 0.8"/>
      </g>
     </g>
     <g id="text_43">
      <!-- 3 -->
      <g transform="translate(17.1625 583.288175) scale(0.1 -0.1)">
       <use xlink:href="#DejaVuSans-33"/>
      </g>
     </g>
    </g>
    <g id="ytick_21">
     <g id="line2d_44">
      <g>
       <use xlink:href="#mb53e0e25a0" x="30.525" y="541.811317" style="stroke: #000000; stroke-width: 0.8"/>
      </g>
     </g>
     <g id="text_44">
      <!-- 4 -->
      <g transform="translate(17.1625 545.610536) scale(0.1 -0.1)">
       <use xlink:href="#DejaVuSans-34"/>
      </g>
     </g>
    </g>
    <g id="ytick_22">
     <g id="line2d_45">
      <g>
       <use xlink:href="#mb53e0e25a0" x="30.525" y="504.133678" style="stroke: #000000; stroke-width: 0.8"/>
      </g>
     </g>
     <g id="text_45">
      <!-- 5 -->
      <g transform="translate(17.1625 507.932896) scale(0.1 -0.1)">
       <use xlink:href="#DejaVuSans-35"/>
      </g>
     </g>
    </g>
    <g id="ytick_23">
     <g id="line2d_46">
      <g>
       <use xlink:href="#mb53e0e25a0" x="30.525" y="466.456038" style="stroke: #000000; stroke-width: 0.8"/>
      </g>
     </g>
     <g id="text_46">
      <!-- 6 -->
      <g transform="translate(17.1625 470.255257) scale(0.1 -0.1)">
       <use xlink:href="#DejaVuSans-36"/>
      </g>
     </g>
    </g>
    <g id="ytick_24">
     <g id="line2d_47">
      <g>
       <use xlink:href="#mb53e0e25a0" x="30.525" y="428.778399" style="stroke: #000000; stroke-width: 0.8"/>
      </g>
     </g>
     <g id="text_47">
      <!-- 7 -->
      <g transform="translate(17.1625 432.577618) scale(0.1 -0.1)">
       <use xlink:href="#DejaVuSans-37"/>
      </g>
     </g>
    </g>
    <g id="ytick_25">
     <g id="line2d_48">
      <g>
       <use xlink:href="#mb53e0e25a0" x="30.525" y="391.100759" style="stroke: #000000; stroke-width: 0.8"/>
      </g>
     </g>
     <g id="text_48">
      <!-- 8 -->
      <g transform="translate(17.1625 394.899978) scale(0.1 -0.1)">
       <use xlink:href="#DejaVuSans-38"/>
      </g>
     </g>
    </g>
   </g>
   <g id="line2d_49">
    <path d="M 60.127557 692.496663 
L 66.107871 692.492688 
L 72.088186 692.488024 
L 78.0685 692.482542 
L 84.048815 692.476089 
L 90.029129 692.468481 
L 96.009444 692.459498 
L 101.989758 692.448875 
L 107.970073 692.436297 
L 113.950387 692.421381 
L 119.930702 692.403672 
L 125.911016 692.382618 
L 131.891331 692.357559 
L 137.871645 692.327698 
L 143.85196 692.292076 
L 149.832274 692.249541 
L 155.812589 692.198703 
L 161.792903 692.137891 
L 167.773218 692.065094 
L 173.753532 691.977895 
L 179.733847 691.873386 
L 185.714162 691.74808 
L 191.694476 691.597788 
L 197.674791 691.417497 
L 203.655105 691.201206 
L 209.63542 690.941751 
L 215.615734 690.630591 
L 221.596049 690.257572 
L 227.576363 689.810652 
L 233.556678 689.275591 
L 239.536992 688.635609 
L 245.517307 687.871008 
L 251.497621 686.958763 
L 257.477936 685.872092 
L 263.45825 684.580011 
L 269.438565 683.046898 
L 275.418879 681.232082 
L 281.399194 679.089495 
L 287.379508 676.567425 
L 293.359823 673.608429 
L 299.340137 670.149457 
L 305.320452 666.122285 
L 311.300766 661.454323 
L 317.281081 656.069913 
L 323.261395 649.892211 
L 329.24171 642.845755 
L 335.222024 634.859819 
L 341.202339 625.872602 
L 347.182653 615.836305 
L 353.162968 604.723044 
L 359.143282 592.531498 
L 365.123597 579.294091 
L 371.103911 565.084351 
L 377.084226 550.024013 
L 383.06454 534.289226 
L 389.044855 518.115162 
L 395.025169 501.798181 
L 401.005484 485.694683 
L 406.985798 470.215829 
L 412.966113 455.817444 
L 418.946427 442.984687 
L 424.926742 432.211506 
L 430.907056 423.975394 
L 436.887371 418.708597 
L 442.867685 416.767579 
L 448.848 418.403143 
L 454.828314 423.734033 
L 460.808629 432.727052 
L 466.788943 445.186529 
L 472.769258 460.755389 
L 478.749572 478.929096 
L 484.729887 499.082369 
L 490.710201 520.507067 
L 496.690516 542.45813 
L 502.67083 564.203228 
L 508.651145 585.071044 
L 514.631459 604.493105 
L 520.611774 622.034767 
L 526.592088 637.412372 
L 532.572403 650.495457 
L 538.552718 661.294884 
L 544.533032 669.939602 
L 550.513347 676.646008 
L 556.493661 681.684442 
L 562.473976 685.347148 
L 568.45429 687.921127 
L 574.434605 689.668012 
L 580.414919 690.811704 
L 586.395234 691.533209 
L 592.375548 691.971261 
L 598.355863 692.226891 
L 604.336177 692.370083 
L 610.316492 692.446967 
L 616.296806 692.48648 
L 622.277121 692.505888 
L 628.257435 692.514984 
L 634.23775 692.519045 
L 640.218064 692.52077 
L 646.198379 692.521466 
L 652.178693 692.521731 
" clip-path="url(#p37ae1e11a3)" style="fill: none; stroke: #000000; stroke-width: 1.5; stroke-linecap: square"/>
   </g>
   <g id="patch_107">
    <path d="M 30.525 692.521875 
L 30.525 376.77375 
" style="fill: none; stroke: #000000; stroke-width: 0.8; stroke-linejoin: miter; stroke-linecap: square"/>
   </g>
   <g id="patch_108">
    <path d="M 681.78125 692.521875 
L 681.78125 376.77375 
" style="fill: none; stroke: #000000; stroke-width: 0.8; stroke-linejoin: miter; stroke-linecap: square"/>
   </g>
   <g id="patch_109">
    <path d="M 30.525 692.521875 
L 681.78125 692.521875 
" style="fill: none; stroke: #000000; stroke-width: 0.8; stroke-linejoin: miter; stroke-linecap: square"/>
   </g>
   <g id="patch_110">
    <path d="M 30.525 376.77375 
L 681.78125 376.77375 
" style="fill: none; stroke: #000000; stroke-width: 0.8; stroke-linejoin: miter; stroke-linecap: square"/>
   </g>
   <g id="legend_3">
    <g id="patch_111">
     <path d="M 617.33125 399.451875 
L 674.78125 399.451875 
Q 676.78125 399.451875 676.78125 397.451875 
L 676.78125 383.77375 
Q 676.78125 381.77375 674.78125 381.77375 
L 617.33125 381.77375 
Q 615.33125 381.77375 615.33125 383.77375 
L 615.33125 397.451875 
Q 615.33125 399.451875 617.33125 399.451875 
z
" style="fill: #ffffff; opacity: 0.8; stroke: #cccccc; stroke-linejoin: miter"/>
    </g>
    <g id="patch_112">
     <path d="M 619.33125 393.372188 
L 639.33125 393.372188 
L 639.33125 386.372188 
L 619.33125 386.372188 
z
" style="fill: #f0e68c"/>
    </g>
    <g id="text_49">
     <!-- 1000 -->
     <g transform="translate(647.33125 393.372188) scale(0.1 -0.1)">
      <use xlink:href="#DejaVuSans-31"/>
      <use xlink:href="#DejaVuSans-30" x="63.623047"/>
      <use xlink:href="#DejaVuSans-30" x="127.246094"/>
      <use xlink:href="#DejaVuSans-30" x="190.869141"/>
     </g>
    </g>
   </g>
  </g>
  <g id="axes_4">
   <g id="patch_113">
    <path d="M 705.94375 692.521875 
L 1357.2 692.521875 
L 1357.2 376.77375 
L 705.94375 376.77375 
z
" style="fill: #ffffff"/>
   </g>
   <g id="patch_114">
    <path d="M 761.982792 692.521875 
L 777.536162 692.521875 
L 777.536162 692.287269 
L 761.982792 692.287269 
z
" clip-path="url(#peffbb4562a)" style="fill: #f0e68c"/>
   </g>
   <g id="patch_115">
    <path d="M 779.264314 692.521875 
L 794.817683 692.521875 
L 794.817683 692.521875 
L 779.264314 692.521875 
z
" clip-path="url(#peffbb4562a)" style="fill: #f0e68c"/>
   </g>
   <g id="patch_116">
    <path d="M 796.545836 692.521875 
L 812.099205 692.521875 
L 812.099205 692.052663 
L 796.545836 692.052663 
z
" clip-path="url(#peffbb4562a)" style="fill: #f0e68c"/>
   </g>
   <g id="patch_117">
    <path d="M 813.827357 692.521875 
L 829.380727 692.521875 
L 829.380727 692.521875 
L 813.827357 692.521875 
z
" clip-path="url(#peffbb4562a)" style="fill: #f0e68c"/>
   </g>
   <g id="patch_118">
    <path d="M 831.108879 692.521875 
L 846.662249 692.521875 
L 846.662249 692.052663 
L 831.108879 692.052663 
z
" clip-path="url(#peffbb4562a)" style="fill: #f0e68c"/>
   </g>
   <g id="patch_119">
    <path d="M 848.390401 692.521875 
L 863.94377 692.521875 
L 863.94377 691.818057 
L 848.390401 691.818057 
z
" clip-path="url(#peffbb4562a)" style="fill: #f0e68c"/>
   </g>
   <g id="patch_120">
    <path d="M 865.671922 692.521875 
L 881.225292 692.521875 
L 881.225292 691.818057 
L 865.671922 691.818057 
z
" clip-path="url(#peffbb4562a)" style="fill: #f0e68c"/>
   </g>
   <g id="patch_121">
    <path d="M 882.953444 692.521875 
L 898.506814 692.521875 
L 898.506814 690.645028 
L 882.953444 690.645028 
z
" clip-path="url(#peffbb4562a)" style="fill: #f0e68c"/>
   </g>
   <g id="patch_122">
    <path d="M 900.234966 692.521875 
L 915.788335 692.521875 
L 915.788335 688.768181 
L 900.234966 688.768181 
z
" clip-path="url(#peffbb4562a)" style="fill: #f0e68c"/>
   </g>
   <g id="patch_123">
    <path d="M 917.516488 692.521875 
L 933.069857 692.521875 
L 933.069857 685.014487 
L 917.516488 685.014487 
z
" clip-path="url(#peffbb4562a)" style="fill: #f0e68c"/>
   </g>
   <g id="patch_124">
    <path d="M 934.798009 692.521875 
L 950.351379 692.521875 
L 950.351379 683.372246 
L 934.798009 683.372246 
z
" clip-path="url(#peffbb4562a)" style="fill: #f0e68c"/>
   </g>
   <g id="patch_125">
    <path d="M 952.079531 692.521875 
L 967.6329 692.521875 
L 967.6329 676.099464 
L 952.079531 676.099464 
z
" clip-path="url(#peffbb4562a)" style="fill: #f0e68c"/>
   </g>
   <g id="patch_126">
    <path d="M 969.361053 692.521875 
L 984.914422 692.521875 
L 984.914422 662.257718 
L 969.361053 662.257718 
z
" clip-path="url(#peffbb4562a)" style="fill: #f0e68c"/>
   </g>
   <g id="patch_127">
    <path d="M 986.642574 692.521875 
L 1002.195944 692.521875 
L 1002.195944 649.589001 
L 986.642574 649.589001 
z
" clip-path="url(#peffbb4562a)" style="fill: #f0e68c"/>
   </g>
   <g id="patch_128">
    <path d="M 1003.924096 692.521875 
L 1019.477466 692.521875 
L 1019.477466 624.955385 
L 1003.924096 624.955385 
z
" clip-path="url(#peffbb4562a)" style="fill: #f0e68c"/>
   </g>
   <g id="patch_129">
    <path d="M 1021.205618 692.521875 
L 1036.758987 692.521875 
L 1036.758987 603.606252 
L 1021.205618 603.606252 
z
" clip-path="url(#peffbb4562a)" style="fill: #f0e68c"/>
   </g>
   <g id="patch_130">
    <path d="M 1038.487139 692.521875 
L 1054.040509 692.521875 
L 1054.040509 550.585326 
L 1038.487139 550.585326 
z
" clip-path="url(#peffbb4562a)" style="fill: #f0e68c"/>
   </g>
   <g id="patch_131">
    <path d="M 1055.768661 692.521875 
L 1071.322031 692.521875 
L 1071.322031 504.36797 
L 1055.768661 504.36797 
z
" clip-path="url(#peffbb4562a)" style="fill: #f0e68c"/>
   </g>
   <g id="patch_132">
    <path d="M 1073.050183 692.521875 
L 1088.603552 692.521875 
L 1088.603552 461.904308 
L 1073.050183 461.904308 
z
" clip-path="url(#peffbb4562a)" style="fill: #f0e68c"/>
   </g>
   <g id="patch_133">
    <path d="M 1090.331705 692.521875 
L 1105.885074 692.521875 
L 1105.885074 403.722053 
L 1090.331705 403.722053 
z
" clip-path="url(#peffbb4562a)" style="fill: #f0e68c"/>
   </g>
   <g id="patch_134">
    <path d="M 1107.613226 692.521875 
L 1123.166596 692.521875 
L 1123.166596 395.98006 
L 1107.613226 395.98006 
z
" clip-path="url(#peffbb4562a)" style="fill: #f0e68c"/>
   </g>
   <g id="patch_135">
    <path d="M 1124.894748 692.521875 
L 1140.448117 692.521875 
L 1140.448117 398.326118 
L 1124.894748 398.326118 
z
" clip-path="url(#peffbb4562a)" style="fill: #f0e68c"/>
   </g>
   <g id="patch_136">
    <path d="M 1142.17627 692.521875 
L 1157.729639 692.521875 
L 1157.729639 455.335344 
L 1142.17627 455.335344 
z
" clip-path="url(#peffbb4562a)" style="fill: #f0e68c"/>
   </g>
   <g id="patch_137">
    <path d="M 1159.457791 692.521875 
L 1175.011161 692.521875 
L 1175.011161 509.060087 
L 1159.457791 509.060087 
z
" clip-path="url(#peffbb4562a)" style="fill: #f0e68c"/>
   </g>
   <g id="patch_138">
    <path d="M 1176.739313 692.521875 
L 1192.292683 692.521875 
L 1192.292683 579.676453 
L 1176.739313 579.676453 
z
" clip-path="url(#peffbb4562a)" style="fill: #f0e68c"/>
   </g>
   <g id="patch_139">
    <path d="M 1194.020835 692.521875 
L 1209.574204 692.521875 
L 1209.574204 625.424597 
L 1194.020835 625.424597 
z
" clip-path="url(#peffbb4562a)" style="fill: #f0e68c"/>
   </g>
   <g id="patch_140">
    <path d="M 1211.302356 692.521875 
L 1226.855726 692.521875 
L 1226.855726 671.172741 
L 1211.302356 671.172741 
z
" clip-path="url(#peffbb4562a)" style="fill: #f0e68c"/>
   </g>
   <g id="patch_141">
    <path d="M 1228.583878 692.521875 
L 1244.137248 692.521875 
L 1244.137248 681.964611 
L 1228.583878 681.964611 
z
" clip-path="url(#peffbb4562a)" style="fill: #f0e68c"/>
   </g>
   <g id="patch_142">
    <path d="M 1245.8654 692.521875 
L 1261.418769 692.521875 
L 1261.418769 690.879634 
L 1245.8654 690.879634 
z
" clip-path="url(#peffbb4562a)" style="fill: #f0e68c"/>
   </g>
   <g id="patch_143">
    <path d="M 1263.146922 692.521875 
L 1278.700291 692.521875 
L 1278.700291 691.818057 
L 1263.146922 691.818057 
z
" clip-path="url(#peffbb4562a)" style="fill: #f0e68c"/>
   </g>
   <g id="matplotlib.axis_7">
    <g id="xtick_22">
     <g id="line2d_50">
      <g>
       <use xlink:href="#m03266a0c5c" x="735.546307" y="692.521875" style="stroke: #000000; stroke-width: 0.8"/>
      </g>
     </g>
     <g id="text_50">
      <!-- 1.0 -->
      <g transform="translate(727.594744 707.120312) scale(0.1 -0.1)">
       <use xlink:href="#DejaVuSans-31"/>
       <use xlink:href="#DejaVuSans-2e" x="63.623047"/>
       <use xlink:href="#DejaVuSans-30" x="95.410156"/>
      </g>
     </g>
    </g>
    <g id="xtick_23">
     <g id="line2d_51">
      <g>
       <use xlink:href="#m03266a0c5c" x="834.221496" y="692.521875" style="stroke: #000000; stroke-width: 0.8"/>
      </g>
     </g>
     <g id="text_51">
      <!-- 1.1 -->
      <g transform="translate(826.269934 707.120312) scale(0.1 -0.1)">
       <use xlink:href="#DejaVuSans-31"/>
       <use xlink:href="#DejaVuSans-2e" x="63.623047"/>
       <use xlink:href="#DejaVuSans-31" x="95.410156"/>
      </g>
     </g>
    </g>
    <g id="xtick_24">
     <g id="line2d_52">
      <g>
       <use xlink:href="#m03266a0c5c" x="932.896686" y="692.521875" style="stroke: #000000; stroke-width: 0.8"/>
      </g>
     </g>
     <g id="text_52">
      <!-- 1.2 -->
      <g transform="translate(924.945123 707.120312) scale(0.1 -0.1)">
       <use xlink:href="#DejaVuSans-31"/>
       <use xlink:href="#DejaVuSans-2e" x="63.623047"/>
       <use xlink:href="#DejaVuSans-32" x="95.410156"/>
      </g>
     </g>
    </g>
    <g id="xtick_25">
     <g id="line2d_53">
      <g>
       <use xlink:href="#m03266a0c5c" x="1031.571875" y="692.521875" style="stroke: #000000; stroke-width: 0.8"/>
      </g>
     </g>
     <g id="text_53">
      <!-- 1.3 -->
      <g transform="translate(1023.620313 707.120312) scale(0.1 -0.1)">
       <use xlink:href="#DejaVuSans-31"/>
       <use xlink:href="#DejaVuSans-2e" x="63.623047"/>
       <use xlink:href="#DejaVuSans-33" x="95.410156"/>
      </g>
     </g>
    </g>
    <g id="xtick_26">
     <g id="line2d_54">
      <g>
       <use xlink:href="#m03266a0c5c" x="1130.247064" y="692.521875" style="stroke: #000000; stroke-width: 0.8"/>
      </g>
     </g>
     <g id="text_54">
      <!-- 1.4 -->
      <g transform="translate(1122.295502 707.120312) scale(0.1 -0.1)">
       <use xlink:href="#DejaVuSans-31"/>
       <use xlink:href="#DejaVuSans-2e" x="63.623047"/>
       <use xlink:href="#DejaVuSans-34" x="95.410156"/>
      </g>
     </g>
    </g>
    <g id="xtick_27">
     <g id="line2d_55">
      <g>
       <use xlink:href="#m03266a0c5c" x="1228.922254" y="692.521875" style="stroke: #000000; stroke-width: 0.8"/>
      </g>
     </g>
     <g id="text_55">
      <!-- 1.5 -->
      <g transform="translate(1220.970691 707.120312) scale(0.1 -0.1)">
       <use xlink:href="#DejaVuSans-31"/>
       <use xlink:href="#DejaVuSans-2e" x="63.623047"/>
       <use xlink:href="#DejaVuSans-35" x="95.410156"/>
      </g>
     </g>
    </g>
    <g id="xtick_28">
     <g id="line2d_56">
      <g>
       <use xlink:href="#m03266a0c5c" x="1327.597443" y="692.521875" style="stroke: #000000; stroke-width: 0.8"/>
      </g>
     </g>
     <g id="text_56">
      <!-- 1.6 -->
      <g transform="translate(1319.645881 707.120312) scale(0.1 -0.1)">
       <use xlink:href="#DejaVuSans-31"/>
       <use xlink:href="#DejaVuSans-2e" x="63.623047"/>
       <use xlink:href="#DejaVuSans-36" x="95.410156"/>
      </g>
     </g>
    </g>
   </g>
   <g id="matplotlib.axis_8">
    <g id="ytick_26">
     <g id="line2d_57">
      <g>
       <use xlink:href="#mb53e0e25a0" x="705.94375" y="692.521875" style="stroke: #000000; stroke-width: 0.8"/>
      </g>
     </g>
     <g id="text_57">
      <!-- 0 -->
      <g transform="translate(692.58125 696.321094) scale(0.1 -0.1)">
       <use xlink:href="#DejaVuSans-30"/>
      </g>
     </g>
    </g>
    <g id="ytick_27">
     <g id="line2d_58">
      <g>
       <use xlink:href="#mb53e0e25a0" x="705.94375" y="651.434076" style="stroke: #000000; stroke-width: 0.8"/>
      </g>
     </g>
     <g id="text_58">
      <!-- 1 -->
      <g transform="translate(692.58125 655.233294) scale(0.1 -0.1)">
       <use xlink:href="#DejaVuSans-31"/>
      </g>
     </g>
    </g>
    <g id="ytick_28">
     <g id="line2d_59">
      <g>
       <use xlink:href="#mb53e0e25a0" x="705.94375" y="610.346276" style="stroke: #000000; stroke-width: 0.8"/>
      </g>
     </g>
     <g id="text_59">
      <!-- 2 -->
      <g transform="translate(692.58125 614.145495) scale(0.1 -0.1)">
       <use xlink:href="#DejaVuSans-32"/>
      </g>
     </g>
    </g>
    <g id="ytick_29">
     <g id="line2d_60">
      <g>
       <use xlink:href="#mb53e0e25a0" x="705.94375" y="569.258477" style="stroke: #000000; stroke-width: 0.8"/>
      </g>
     </g>
     <g id="text_60">
      <!-- 3 -->
      <g transform="translate(692.58125 573.057696) scale(0.1 -0.1)">
       <use xlink:href="#DejaVuSans-33"/>
      </g>
     </g>
    </g>
    <g id="ytick_30">
     <g id="line2d_61">
      <g>
       <use xlink:href="#mb53e0e25a0" x="705.94375" y="528.170678" style="stroke: #000000; stroke-width: 0.8"/>
      </g>
     </g>
     <g id="text_61">
      <!-- 4 -->
      <g transform="translate(692.58125 531.969897) scale(0.1 -0.1)">
       <use xlink:href="#DejaVuSans-34"/>
      </g>
     </g>
    </g>
    <g id="ytick_31">
     <g id="line2d_62">
      <g>
       <use xlink:href="#mb53e0e25a0" x="705.94375" y="487.082879" style="stroke: #000000; stroke-width: 0.8"/>
      </g>
     </g>
     <g id="text_62">
      <!-- 5 -->
      <g transform="translate(692.58125 490.882097) scale(0.1 -0.1)">
       <use xlink:href="#DejaVuSans-35"/>
      </g>
     </g>
    </g>
    <g id="ytick_32">
     <g id="line2d_63">
      <g>
       <use xlink:href="#mb53e0e25a0" x="705.94375" y="445.995079" style="stroke: #000000; stroke-width: 0.8"/>
      </g>
     </g>
     <g id="text_63">
      <!-- 6 -->
      <g transform="translate(692.58125 449.794298) scale(0.1 -0.1)">
       <use xlink:href="#DejaVuSans-36"/>
      </g>
     </g>
    </g>
    <g id="ytick_33">
     <g id="line2d_64">
      <g>
       <use xlink:href="#mb53e0e25a0" x="705.94375" y="404.90728" style="stroke: #000000; stroke-width: 0.8"/>
      </g>
     </g>
     <g id="text_64">
      <!-- 7 -->
      <g transform="translate(692.58125 408.706499) scale(0.1 -0.1)">
       <use xlink:href="#DejaVuSans-37"/>
      </g>
     </g>
    </g>
   </g>
   <g id="line2d_65">
    <path d="M 735.546307 692.494381 
L 741.526621 692.490047 
L 747.506936 692.484961 
L 753.48725 692.478982 
L 759.467565 692.471945 
L 765.447879 692.463648 
L 771.428194 692.453852 
L 777.408508 692.442268 
L 783.388823 692.428551 
L 789.369137 692.412286 
L 795.349452 692.392973 
L 801.329766 692.370014 
L 807.310081 692.342687 
L 813.290395 692.310123 
L 819.27071 692.271277 
L 825.251024 692.224892 
L 831.231339 692.169453 
L 837.211653 692.103137 
L 843.191968 692.023751 
L 849.172282 691.92866 
L 855.152597 691.814693 
L 861.132912 691.678044 
L 867.113226 691.51415 
L 873.093541 691.317541 
L 879.073855 691.081674 
L 885.05417 690.798735 
L 891.034484 690.459413 
L 897.014799 690.052633 
L 902.995113 689.565262 
L 908.975428 688.981774 
L 914.955742 688.283868 
L 920.936057 687.450064 
L 926.916371 686.455253 
L 932.896686 685.270228 
L 938.877 683.861202 
L 944.857315 682.189329 
L 950.837629 680.210256 
L 956.817944 677.873746 
L 962.798258 675.123407 
L 968.778573 671.896595 
L 974.758887 668.124556 
L 980.739202 663.732889 
L 986.719516 658.642435 
L 992.699831 652.770688 
L 998.680145 646.033849 
L 1004.66046 638.349627 
L 1010.640774 629.640892 
L 1016.621089 619.840253 
L 1022.601403 608.895583 
L 1028.581718 596.776473 
L 1034.562032 583.481484 
L 1040.542347 569.045974 
L 1046.522661 553.550128 
L 1052.502976 537.126695 
L 1058.48329 519.967771 
L 1064.463605 502.329812 
L 1070.443919 484.535999 
L 1076.424234 466.974992 
L 1082.404548 450.095165 
L 1088.384863 434.393598 
L 1094.365177 420.399363 
L 1100.345492 408.651114 
L 1106.325806 399.669561 
L 1112.306121 393.926072 
L 1118.286435 391.809375 
L 1124.26675 393.592972 
L 1130.247064 399.406355 
L 1136.227379 409.213322 
L 1142.207693 422.800491 
L 1148.188008 439.778471 
L 1154.168322 459.59706 
L 1160.148637 481.574382 
L 1166.128951 504.938204 
L 1172.109266 528.876033 
L 1178.08958 552.589255 
L 1184.069895 575.345793 
L 1190.050209 596.525723 
L 1196.030524 615.65506 
L 1202.010838 632.424474 
L 1207.991153 646.691694 
L 1213.971468 658.468565 
L 1219.951782 667.895707 
L 1225.932097 675.209101 
L 1231.912411 680.703558 
L 1237.892726 684.697772 
L 1243.87304 687.504718 
L 1249.853355 689.409712 
L 1255.833669 690.656919 
L 1261.813984 691.443726 
L 1267.794298 691.921425 
L 1273.774613 692.200192 
L 1279.754927 692.356344 
L 1285.735242 692.440187 
L 1291.715556 692.483277 
L 1297.695871 692.504441 
L 1303.676185 692.51436 
L 1309.6565 692.518789 
L 1315.636814 692.52067 
L 1321.617129 692.521428 
L 1327.597443 692.521718 
" clip-path="url(#peffbb4562a)" style="fill: none; stroke: #000000; stroke-width: 1.5; stroke-linecap: square"/>
   </g>
   <g id="patch_144">
    <path d="M 705.94375 692.521875 
L 705.94375 376.77375 
" style="fill: none; stroke: #000000; stroke-width: 0.8; stroke-linejoin: miter; stroke-linecap: square"/>
   </g>
   <g id="patch_145">
    <path d="M 1357.2 692.521875 
L 1357.2 376.77375 
" style="fill: none; stroke: #000000; stroke-width: 0.8; stroke-linejoin: miter; stroke-linecap: square"/>
   </g>
   <g id="patch_146">
    <path d="M 705.94375 692.521875 
L 1357.2 692.521875 
" style="fill: none; stroke: #000000; stroke-width: 0.8; stroke-linejoin: miter; stroke-linecap: square"/>
   </g>
   <g id="patch_147">
    <path d="M 705.94375 376.77375 
L 1357.2 376.77375 
" style="fill: none; stroke: #000000; stroke-width: 0.8; stroke-linejoin: miter; stroke-linecap: square"/>
   </g>
   <g id="legend_4">
    <g id="patch_148">
     <path d="M 1286.3875 399.451875 
L 1350.2 399.451875 
Q 1352.2 399.451875 1352.2 397.451875 
L 1352.2 383.77375 
Q 1352.2 381.77375 1350.2 381.77375 
L 1286.3875 381.77375 
Q 1284.3875 381.77375 1284.3875 383.77375 
L 1284.3875 397.451875 
Q 1284.3875 399.451875 1286.3875 399.451875 
z
" style="fill: #ffffff; opacity: 0.8; stroke: #cccccc; stroke-linejoin: miter"/>
    </g>
    <g id="patch_149">
     <path d="M 1288.3875 393.372188 
L 1308.3875 393.372188 
L 1308.3875 386.372188 
L 1288.3875 386.372188 
z
" style="fill: #f0e68c"/>
    </g>
    <g id="text_65">
     <!-- 10000 -->
     <g transform="translate(1316.3875 393.372188) scale(0.1 -0.1)">
      <use xlink:href="#DejaVuSans-31"/>
      <use xlink:href="#DejaVuSans-30" x="63.623047"/>
      <use xlink:href="#DejaVuSans-30" x="127.246094"/>
      <use xlink:href="#DejaVuSans-30" x="190.869141"/>
      <use xlink:href="#DejaVuSans-30" x="254.492188"/>
     </g>
    </g>
   </g>
  </g>
  <g id="text_66">
   <!-- rv_continuous -->
   <g transform="translate(641.985937 23.518125) scale(0.12 -0.12)">
    <defs>
     <path id="DejaVuSans-72" d="M 2631 2963 
Q 2534 3019 2420 3045 
Q 2306 3072 2169 3072 
Q 1681 3072 1420 2755 
Q 1159 2438 1159 1844 
L 1159 0 
L 581 0 
L 581 3500 
L 1159 3500 
L 1159 2956 
Q 1341 3275 1631 3429 
Q 1922 3584 2338 3584 
Q 2397 3584 2469 3576 
Q 2541 3569 2628 3553 
L 2631 2963 
z
" transform="scale(0.015625)"/>
     <path id="DejaVuSans-76" d="M 191 3500 
L 800 3500 
L 1894 563 
L 2988 3500 
L 3597 3500 
L 2284 0 
L 1503 0 
L 191 3500 
z
" transform="scale(0.015625)"/>
     <path id="DejaVuSans-5f" d="M 3263 -1063 
L 3263 -1509 
L -63 -1509 
L -63 -1063 
L 3263 -1063 
z
" transform="scale(0.015625)"/>
     <path id="DejaVuSans-63" d="M 3122 3366 
L 3122 2828 
Q 2878 2963 2633 3030 
Q 2388 3097 2138 3097 
Q 1578 3097 1268 2742 
Q 959 2388 959 1747 
Q 959 1106 1268 751 
Q 1578 397 2138 397 
Q 2388 397 2633 464 
Q 2878 531 3122 666 
L 3122 134 
Q 2881 22 2623 -34 
Q 2366 -91 2075 -91 
Q 1284 -91 818 406 
Q 353 903 353 1747 
Q 353 2603 823 3093 
Q 1294 3584 2113 3584 
Q 2378 3584 2631 3529 
Q 2884 3475 3122 3366 
z
" transform="scale(0.015625)"/>
     <path id="DejaVuSans-6f" d="M 1959 3097 
Q 1497 3097 1228 2736 
Q 959 2375 959 1747 
Q 959 1119 1226 758 
Q 1494 397 1959 397 
Q 2419 397 2687 759 
Q 2956 1122 2956 1747 
Q 2956 2369 2687 2733 
Q 2419 3097 1959 3097 
z
M 1959 3584 
Q 2709 3584 3137 3096 
Q 3566 2609 3566 1747 
Q 3566 888 3137 398 
Q 2709 -91 1959 -91 
Q 1206 -91 779 398 
Q 353 888 353 1747 
Q 353 2609 779 3096 
Q 1206 3584 1959 3584 
z
" transform="scale(0.015625)"/>
     <path id="DejaVuSans-6e" d="M 3513 2113 
L 3513 0 
L 2938 0 
L 2938 2094 
Q 2938 2591 2744 2837 
Q 2550 3084 2163 3084 
Q 1697 3084 1428 2787 
Q 1159 2491 1159 1978 
L 1159 0 
L 581 0 
L 581 3500 
L 1159 3500 
L 1159 2956 
Q 1366 3272 1645 3428 
Q 1925 3584 2291 3584 
Q 2894 3584 3203 3211 
Q 3513 2838 3513 2113 
z
" transform="scale(0.015625)"/>
     <path id="DejaVuSans-74" d="M 1172 4494 
L 1172 3500 
L 2356 3500 
L 2356 3053 
L 1172 3053 
L 1172 1153 
Q 1172 725 1289 603 
Q 1406 481 1766 481 
L 2356 481 
L 2356 0 
L 1766 0 
Q 1100 0 847 248 
Q 594 497 594 1153 
L 594 3053 
L 172 3053 
L 172 3500 
L 594 3500 
L 594 4494 
L 1172 4494 
z
" transform="scale(0.015625)"/>
     <path id="DejaVuSans-69" d="M 603 3500 
L 1178 3500 
L 1178 0 
L 603 0 
L 603 3500 
z
M 603 4863 
L 1178 4863 
L 1178 4134 
L 603 4134 
L 603 4863 
z
" transform="scale(0.015625)"/>
     <path id="DejaVuSans-75" d="M 544 1381 
L 544 3500 
L 1119 3500 
L 1119 1403 
Q 1119 906 1312 657 
Q 1506 409 1894 409 
Q 2359 409 2629 706 
Q 2900 1003 2900 1516 
L 2900 3500 
L 3475 3500 
L 3475 0 
L 2900 0 
L 2900 538 
Q 2691 219 2414 64 
Q 2138 -91 1772 -91 
Q 1169 -91 856 284 
Q 544 659 544 1381 
z
M 1991 3584 
L 1991 3584 
z
" transform="scale(0.015625)"/>
     <path id="DejaVuSans-73" d="M 2834 3397 
L 2834 2853 
Q 2591 2978 2328 3040 
Q 2066 3103 1784 3103 
Q 1356 3103 1142 2972 
Q 928 2841 928 2578 
Q 928 2378 1081 2264 
Q 1234 2150 1697 2047 
L 1894 2003 
Q 2506 1872 2764 1633 
Q 3022 1394 3022 966 
Q 3022 478 2636 193 
Q 2250 -91 1575 -91 
Q 1294 -91 989 -36 
Q 684 19 347 128 
L 347 722 
Q 666 556 975 473 
Q 1284 391 1588 391 
Q 1994 391 2212 530 
Q 2431 669 2431 922 
Q 2431 1156 2273 1281 
Q 2116 1406 1581 1522 
L 1381 1569 
Q 847 1681 609 1914 
Q 372 2147 372 2553 
Q 372 3047 722 3315 
Q 1072 3584 1716 3584 
Q 2034 3584 2315 3537 
Q 2597 3491 2834 3397 
z
" transform="scale(0.015625)"/>
    </defs>
    <use xlink:href="#DejaVuSans-72"/>
    <use xlink:href="#DejaVuSans-76" x="41.113281"/>
    <use xlink:href="#DejaVuSans-5f" x="100.292969"/>
    <use xlink:href="#DejaVuSans-63" x="150.292969"/>
    <use xlink:href="#DejaVuSans-6f" x="205.273438"/>
    <use xlink:href="#DejaVuSans-6e" x="266.455078"/>
    <use xlink:href="#DejaVuSans-74" x="329.833984"/>
    <use xlink:href="#DejaVuSans-69" x="369.042969"/>
    <use xlink:href="#DejaVuSans-6e" x="396.826172"/>
    <use xlink:href="#DejaVuSans-75" x="460.205078"/>
    <use xlink:href="#DejaVuSans-6f" x="523.583984"/>
    <use xlink:href="#DejaVuSans-75" x="584.765625"/>
    <use xlink:href="#DejaVuSans-73" x="648.144531"/>
   </g>
  </g>
 </g>
 <defs>
  <clipPath id="p4c1c902cc1">
   <rect x="30.525" y="33.5475" width="651.25625" height="315.748125"/>
  </clipPath>
  <clipPath id="p134d50c484">
   <rect x="705.94375" y="33.5475" width="651.25625" height="315.748125"/>
  </clipPath>
  <clipPath id="p37ae1e11a3">
   <rect x="30.525" y="376.77375" width="651.25625" height="315.748125"/>
  </clipPath>
  <clipPath id="peffbb4562a">
   <rect x="705.94375" y="376.77375" width="651.25625" height="315.748125"/>
  </clipPath>
 </defs>
</svg>
